font.ufo
<glyph name="exclam" format="1">
  <advance width="262"/>
  <unicode hex="0021"/>
  <outline>
    <contour>
      <point x="83" y="214" type="line"/>
      <point x="179" y="214" type="line"/>
      <point x="179" y="674" type="line"/>
      <point x="83" y="674" type="line"/>
    </contour>
    <contour>
      <point x="62" y="60" type="curve" smooth="yes"/>
      <point x="62" y="21"/>
      <point x="91" y="-8"/>
      <point x="130" y="-8" type="curve" smooth="yes"/>
      <point x="168" y="-8"/>
      <point x="199" y="21"/>
      <point x="199" y="60" type="curve" smooth="yes"/>
      <point x="199" y="98"/>
      <point x="168" y="129"/>
      <point x="130" y="129" type="curve" smooth="yes"/>
      <point x="91" y="129"/>
      <point x="62" y="98"/>
    </contour>
  </outline>
</glyph>
<glyph name="quotedbl" format="1">
  <advance width="322"/>
  <unicode hex="0022"/>
  <outline>
    <contour>
      <point x="43" y="437" type="line"/>
      <point x="128" y="437" type="line"/>
      <point x="128" y="681" type="line"/>
      <point x="43" y="681" type="line"/>
    </contour>
    <contour>
      <point x="194" y="437" type="line"/>
      <point x="279" y="437" type="line"/>
      <point x="279" y="681" type="line"/>
      <point x="194" y="681" type="line"/>
    </contour>
  </outline>
</glyph>
<glyph name="numbersign" format="1">
  <advance width="723"/>
  <unicode hex="0023"/>
  <outline>
    <contour>
      <point x="99" y="427" type="line"/>
      <point x="673" y="427" type="line"/>
      <point x="673" y="507" type="line"/>
      <point x="99" y="507" type="line"/>
    </contour>
    <contour>
      <point x="375" y="0" type="line"/>
      <point x="462" y="0" type="line"/>
      <point x="604" y="674" type="line"/>
      <point x="518" y="674" type="line"/>
    </contour>
    <contour>
      <point x="123" y="0" type="line"/>
      <point x="209" y="0" type="line"/>
      <point x="352" y="674" type="line"/>
      <point x="264" y="674" type="line"/>
    </contour>
    <contour>
      <point x="51" y="165" type="line"/>
      <point x="626" y="165" type="line"/>
      <point x="626" y="243" type="line"/>
      <point x="51" y="243" type="line"/>
    </contour>
  </outline>
</glyph>
<glyph name="dollar" format="1">
  <advance width="507"/>
  <unicode hex="0024"/>
  <outline>
    <contour>
      <point x="325" y="629" type="line"/>
      <point x="325" y="785" type="line"/>
      <point x="240" y="785" type="line"/>
      <point x="240" y="629" type="line"/>
    </contour>
    <contour>
      <point x="190" y="54" type="line"/>
      <point x="190" y="-112" type="line"/>
      <point x="274" y="-112" type="line"/>
      <point x="274" y="54" type="line"/>
    </contour>
    <contour>
      <point x="426" y="647" type="line"/>
      <point x="380" y="670"/>
      <point x="322" y="679"/>
      <point x="271" y="679" type="curve" smooth="yes"/>
      <point x="142" y="679"/>
      <point x="47" y="610"/>
      <point x="47" y="493" type="curve" smooth="yes"/>
      <point x="47" y="386"/>
      <point x="125" y="341"/>
      <point x="202" y="306" type="curve" smooth="yes"/>
      <point x="282" y="271"/>
      <point x="354" y="247"/>
      <point x="354" y="180" type="curve" smooth="yes"/>
      <point x="354" y="119"/>
      <point x="306" y="84"/>
      <point x="234" y="84" type="curve" smooth="yes"/>
      <point x="169" y="84"/>
      <point x="102" y="105"/>
      <point x="51" y="143" type="curve"/>
      <point x="51" y="36" type="line"/>
      <point x="100" y="7"/>
      <point x="170" y="-7"/>
      <point x="236" y="-7" type="curve" smooth="yes"/>
      <point x="366" y="-7"/>
      <point x="461" y="62"/>
      <point x="461" y="184" type="curve" smooth="yes"/>
      <point x="461" y="298"/>
      <point x="374" y="342"/>
      <point x="292" y="378" type="curve" smooth="yes"/>
      <point x="221" y="409"/>
      <point x="157" y="436"/>
      <point x="157" y="498" type="curve" smooth="yes"/>
      <point x="157" y="551"/>
      <point x="200" y="587"/>
      <point x="274" y="587" type="curve" smooth="yes"/>
      <point x="327" y="587"/>
      <point x="387" y="570"/>
      <point x="426" y="545" type="curve"/>
    </contour>
  </outline>
</glyph>
<glyph name="percent" format="1">
  <advance width="884"/>
  <unicode hex="0025"/>
  <outline>
    <contour>
      <point x="212" y="-1" type="line"/>
      <point x="304" y="-1" type="line"/>
      <point x="669" y="677" type="line"/>
      <point x="576" y="677" type="line"/>
    </contour>
    <contour>
      <point x="501" y="160" type="curve" smooth="yes"/>
      <point x="501" y="67"/>
      <point x="576" y="-7"/>
      <point x="669" y="-7" type="curve" smooth="yes"/>
      <point x="761" y="-7"/>
      <point x="836" y="67"/>
      <point x="836" y="160" type="curve" smooth="yes"/>
      <point x="836" y="252"/>
      <point x="761" y="328"/>
      <point x="669" y="328" type="curve" smooth="yes"/>
      <point x="576" y="328"/>
      <point x="501" y="252"/>
    </contour>
    <contour>
      <point x="48" y="520" type="curve" smooth="yes"/>
      <point x="48" y="427"/>
      <point x="123" y="352"/>
      <point x="215" y="352" type="curve" smooth="yes"/>
      <point x="308" y="352"/>
      <point x="383" y="427"/>
      <point x="383" y="520" type="curve" smooth="yes"/>
      <point x="383" y="612"/>
      <point x="308" y="687"/>
      <point x="215" y="687" type="curve" smooth="yes"/>
      <point x="123" y="687"/>
      <point x="48" y="612"/>
    </contour>
    <contour>
      <point x="131" y="520" type="curve" smooth="yes"/>
      <point x="131" y="566"/>
      <point x="169" y="604"/>
      <point x="215" y="604" type="curve" smooth="yes"/>
      <point x="262" y="604"/>
      <point x="300" y="566"/>
      <point x="300" y="520" type="curve" smooth="yes"/>
      <point x="300" y="473"/>
      <point x="262" y="435"/>
      <point x="215" y="435" type="curve" smooth="yes"/>
      <point x="169" y="435"/>
      <point x="131" y="473"/>
    </contour>
    <contour>
      <point x="584" y="160" type="curve" smooth="yes"/>
      <point x="584" y="207"/>
      <point x="622" y="245"/>
      <point x="669" y="245" type="curve" smooth="yes"/>
      <point x="715" y="245"/>
      <point x="753" y="207"/>
      <point x="753" y="160" type="curve" smooth="yes"/>
      <point x="753" y="113"/>
      <point x="715" y="75"/>
      <point x="669" y="75" type="curve" smooth="yes"/>
      <point x="622" y="75"/>
      <point x="584" y="113"/>
    </contour>
  </outline>
</glyph>
<glyph name="ampersand" format="1">
  <advance width="715"/>
  <unicode hex="0026"/>
  <outline>
    <contour>
      <point x="712" y="0" type="line"/>
      <point x="605" y="99"/>
      <point x="344" y="348"/>
      <point x="344" y="348" type="curve"/>
      <point x="270" y="422"/>
      <point x="231" y="466"/>
      <point x="231" y="517" type="curve" smooth="yes"/>
      <point x="231" y="574"/>
      <point x="272" y="604"/>
      <point x="324" y="604" type="curve" smooth="yes"/>
      <point x="390" y="604"/>
      <point x="424" y="562"/>
      <point x="424" y="509" type="curve" smooth="yes"/>
      <point x="424" y="459"/>
      <point x="390" y="417"/>
      <point x="300" y="376" type="curve"/>
      <point x="364" y="321" type="line"/>
      <point x="483" y="375"/>
      <point x="524" y="437"/>
      <point x="524" y="512" type="curve" smooth="yes"/>
      <point x="524" y="616"/>
      <point x="447" y="690"/>
      <point x="325" y="690" type="curve" smooth="yes"/>
      <point x="210" y="690"/>
      <point x="130" y="624"/>
      <point x="130" y="517" type="curve" smooth="yes"/>
      <point x="130" y="430"/>
      <point x="199" y="367"/>
      <point x="276" y="290" type="curve"/>
      <point x="276" y="290"/>
      <point x="491" y="86"/>
      <point x="584" y="0" type="curve"/>
    </contour>
    <contour>
      <point x="232" y="356" type="line"/>
      <point x="116" y="319"/>
      <point x="61" y="263"/>
      <point x="61" y="178" type="curve" smooth="yes"/>
      <point x="61" y="73"/>
      <point x="162" y="-8"/>
      <point x="322" y="-8" type="curve" smooth="yes"/>
      <point x="514" y="-8"/>
      <point x="627" y="117"/>
      <point x="636" y="277" type="curve"/>
      <point x="544" y="277" type="line"/>
      <point x="536" y="144"/>
      <point x="436" y="78"/>
      <point x="321" y="78" type="curve" smooth="yes"/>
      <point x="230" y="78"/>
      <point x="162" y="118"/>
      <point x="162" y="181" type="curve" smooth="yes"/>
      <point x="162" y="236"/>
      <point x="206" y="269"/>
      <point x="301" y="300" type="curve"/>
    </contour>
  </outline>
</glyph>
<glyph name="quotesingle" format="1">
  <advance width="171"/>
  <unicode hex="0027"/>
  <outline>
    <contour>
      <point x="43" y="437" type="line"/>
      <point x="128" y="437" type="line"/>
      <point x="128" y="681" type="line"/>
      <point x="43" y="681" type="line"/>
    </contour>
  </outline>
</glyph>
<glyph name="parenleft" format="1">
  <advance width="318"/>
  <unicode hex="0028"/>
  <outline>
    <contour>
      <point x="217" y="707" type="curve"/>
      <point x="323" y="707" type="line"/>
      <point x="218" y="570"/>
      <point x="167" y="406"/>
      <point x="167" y="256" type="curve" smooth="yes"/>
      <point x="167" y="112"/>
      <point x="221" y="-56"/>
      <point x="331" y="-196" type="curve"/>
      <point x="224" y="-196" type="line"/>
      <point x="117" y="-62"/>
      <point x="62" y="94"/>
      <point x="62" y="261" type="curve" smooth="yes"/>
      <point x="62" y="431"/>
      <point x="122" y="587"/>
    </contour>
  </outline>
</glyph>
<glyph name="parenright" format="1">
  <advance width="318"/>
  <unicode hex="0029"/>
  <outline>
    <contour>
      <point x="102" y="707" type="curve"/>
      <point x="-4" y="707" type="line"/>
      <point x="100" y="570"/>
      <point x="152" y="406"/>
      <point x="152" y="256" type="curve" smooth="yes"/>
      <point x="152" y="112"/>
      <point x="97" y="-56"/>
      <point x="-13" y="-196" type="curve"/>
      <point x="95" y="-196" type="line"/>
      <point x="201" y="-62"/>
      <point x="256" y="94"/>
      <point x="256" y="261" type="curve" smooth="yes"/>
      <point x="256" y="431"/>
      <point x="197" y="587"/>
    </contour>
  </outline>
</glyph>
<glyph name="asterisk" format="1">
  <advance width="437"/>
  <unicode hex="002A"/>
  <outline>
    <contour>
      <point x="178" y="577" type="line"/>
      <point x="178" y="520"/>
      <point x="211" y="495"/>
      <point x="219" y="487" type="curve"/>
      <point x="226" y="495"/>
      <point x="258" y="520"/>
      <point x="258" y="577" type="curve" smooth="yes"/>
      <point x="258" y="674" type="line"/>
      <point x="178" y="674" type="line"/>
    </contour>
    <contour>
      <point x="121" y="476" type="line"/>
      <point x="136" y="471"/>
      <point x="149" y="470"/>
      <point x="161" y="470" type="curve" smooth="yes"/>
      <point x="192" y="470"/>
      <point x="212" y="484"/>
      <point x="219" y="487" type="curve"/>
      <point x="213" y="497"/>
      <point x="199" y="535"/>
      <point x="146" y="553" type="curve" smooth="yes"/>
      <point x="53" y="583" type="line"/>
      <point x="29" y="507" type="line"/>
    </contour>
    <contour>
      <point x="199" y="391" type="line"/>
      <point x="217" y="416"/>
      <point x="223" y="437"/>
      <point x="223" y="459" type="curve" smooth="yes"/>
      <point x="223" y="480"/>
      <point x="219" y="484"/>
      <point x="219" y="487" type="curve"/>
      <point x="187" y="485"/>
      <point x="157" y="470"/>
      <point x="134" y="438" type="curve" smooth="yes"/>
      <point x="76" y="360" type="line"/>
      <point x="141" y="313" type="line"/>
    </contour>
    <contour>
      <point x="304" y="439" type="line"/>
      <point x="274" y="481"/>
      <point x="237" y="486"/>
      <point x="219" y="487" type="curve"/>
      <point x="218" y="485"/>
      <point x="215" y="481"/>
      <point x="215" y="461" type="curve" smooth="yes"/>
      <point x="215" y="442"/>
      <point x="220" y="418"/>
      <point x="239" y="391" type="curve" smooth="yes"/>
      <point x="296" y="313" type="line"/>
      <point x="360" y="360" type="line"/>
    </contour>
    <contour>
      <point x="291" y="554" type="line"/>
      <point x="238" y="537"/>
      <point x="224" y="498"/>
      <point x="219" y="487" type="curve"/>
      <point x="225" y="484"/>
      <point x="245" y="471"/>
      <point x="276" y="471" type="curve" smooth="yes"/>
      <point x="287" y="471"/>
      <point x="301" y="472"/>
      <point x="316" y="477" type="curve" smooth="yes"/>
      <point x="408" y="507" type="line"/>
      <point x="383" y="583" type="line"/>
    </contour>
  </outline>
</glyph>
<glyph name="plus" format="1">
  <advance width="564"/>
  <unicode hex="002B"/>
  <outline>
    <contour>
      <point x="53" y="295" type="line"/>
      <point x="510" y="295" type="line"/>
      <point x="510" y="384" type="line"/>
      <point x="53" y="384" type="line"/>
    </contour>
    <contour>
      <point x="325" y="109" type="line"/>
      <point x="325" y="571" type="line"/>
      <point x="234" y="571" type="line"/>
      <point x="234" y="109" type="line"/>
    </contour>
  </outline>
</glyph>
<glyph name="comma" format="1">
  <advance width="245"/>
  <unicode hex="002C"/>
  <outline>
    <contour>
      <point x="-8" y="-124" type="line"/>
      <point x="78" y="-124" type="line"/>
      <point x="209" y="110" type="line"/>
      <point x="88" y="110" type="line"/>
    </contour>
  </outline>
</glyph>
<glyph name="hyphen" format="1">
  <advance width="350"/>
  <unicode hex="002D"/>
  <outline>
    <contour>
      <point x="53" y="225" type="line"/>
      <point x="297" y="225" type="line"/>
      <point x="297" y="309" type="line"/>
      <point x="53" y="309" type="line"/>
    </contour>
  </outline>
</glyph>
<glyph name="period" format="1">
  <advance width="193"/>
  <unicode hex="002E"/>
  <outline>
    <contour>
      <point x="29" y="60" type="curve" smooth="yes"/>
      <point x="29" y="22"/>
      <point x="59" y="-8"/>
      <point x="97" y="-8" type="curve" smooth="yes"/>
      <point x="134" y="-8"/>
      <point x="164" y="22"/>
      <point x="164" y="60" type="curve" smooth="yes"/>
      <point x="164" y="98"/>
      <point x="134" y="127"/>
      <point x="97" y="127" type="curve" smooth="yes"/>
      <point x="59" y="127"/>
      <point x="29" y="98"/>
    </contour>
  </outline>
</glyph>
<glyph name="slash" format="1">
  <advance width="421"/>
  <unicode hex="002F"/>
  <outline>
    <contour>
      <point x="-7" y="-102" type="line"/>
      <point x="94" y="-102" type="line"/>
      <point x="457" y="707" type="line"/>
      <point x="356" y="707" type="line"/>
    </contour>
  </outline>
</glyph>
<glyph name="zero" format="1">
  <advance width="545"/>
  <unicode hex="0030"/>
  <outline>
    <contour>
      <point x="41" y="329" type="curve" smooth="yes"/>
      <point x="41" y="128"/>
      <point x="126" y="-8"/>
      <point x="271" y="-8" type="curve" smooth="yes"/>
      <point x="425" y="-8"/>
      <point x="504" y="131"/>
      <point x="504" y="329" type="curve" smooth="yes"/>
      <point x="504" y="534"/>
      <point x="417" y="664"/>
      <point x="271" y="664" type="curve" smooth="yes"/>
      <point x="128" y="664"/>
      <point x="41" y="534"/>
    </contour>
    <contour>
      <point x="141" y="329" type="curve" smooth="yes"/>
      <point x="141" y="493"/>
      <point x="201" y="573"/>
      <point x="271" y="573" type="curve" smooth="yes"/>
      <point x="346" y="573"/>
      <point x="403" y="493"/>
      <point x="403" y="329" type="curve" smooth="yes"/>
      <point x="403" y="169"/>
      <point x="352" y="83"/>
      <point x="271" y="83" type="curve" smooth="yes"/>
      <point x="197" y="83"/>
      <point x="141" y="169"/>
    </contour>
  </outline>
</glyph>
<glyph name="one" format="1">
  <advance width="340"/>
  <unicode hex="0031"/>
  <outline>
    <contour>
      <point x="16" y="452" type="line"/>
      <point x="171" y="547" type="line"/>
      <point x="171" y="0" type="line"/>
      <point x="268" y="0" type="line"/>
      <point x="268" y="654" type="line"/>
      <point x="179" y="654" type="line"/>
      <point x="16" y="557" type="line"/>
    </contour>
  </outline>
</glyph>
<glyph name="two" format="1">
  <advance width="496"/>
  <unicode hex="0032"/>
  <outline>
    <contour>
      <point x="78" y="20" type="line"/>
      <point x="293" y="161"/>
      <point x="437" y="316"/>
      <point x="437" y="463" type="curve" smooth="yes"/>
      <point x="437" y="595"/>
      <point x="341" y="661"/>
      <point x="225" y="661" type="curve" smooth="yes"/>
      <point x="164" y="661"/>
      <point x="97" y="639"/>
      <point x="54" y="606" type="curve"/>
      <point x="54" y="509" type="line"/>
      <point x="99" y="544"/>
      <point x="160" y="569"/>
      <point x="211" y="569" type="curve" smooth="yes"/>
      <point x="288" y="569"/>
      <point x="335" y="527"/>
      <point x="335" y="451" type="curve" smooth="yes"/>
      <point x="335" y="332"/>
      <point x="178" y="185"/>
      <point x="36" y="81" type="curve"/>
    </contour>
    <contour>
      <point x="36" y="0" type="line"/>
      <point x="455" y="0" type="line"/>
      <point x="455" y="85" type="line"/>
      <point x="455" y="85"/>
      <point x="214" y="85"/>
      <point x="148" y="85" type="curve" smooth="yes"/>
      <point x="36" y="81" type="line"/>
    </contour>
  </outline>
</glyph>
<glyph name="three" format="1">
  <advance width="471"/>
  <unicode hex="0033"/>
  <outline>
    <contour>
      <point x="176" y="373" type="line"/>
      <point x="245" y="373"/>
      <point x="306" y="409"/>
      <point x="306" y="476" type="curve" smooth="yes"/>
      <point x="306" y="542"/>
      <point x="260" y="572"/>
      <point x="192" y="572" type="curve" smooth="yes"/>
      <point x="145" y="572"/>
      <point x="92" y="552"/>
      <point x="57" y="530" type="curve"/>
      <point x="57" y="625" type="line"/>
      <point x="88" y="643"/>
      <point x="142" y="661"/>
      <point x="195" y="661" type="curve" smooth="yes"/>
      <point x="334" y="661"/>
      <point x="408" y="582"/>
      <point x="408" y="487" type="curve" smooth="yes"/>
      <point x="408" y="399"/>
      <point x="353" y="330"/>
      <point x="243" y="315" type="curve"/>
      <point x="244" y="337" type="line"/>
      <point x="350" y="338"/>
      <point x="424" y="280"/>
      <point x="424" y="180" type="curve" smooth="yes"/>
      <point x="424" y="76"/>
      <point x="348" y="-6"/>
      <point x="203" y="-6" type="curve" smooth="yes"/>
      <point x="148" y="-6"/>
      <point x="80" y="6"/>
      <point x="36" y="28" type="curve"/>
      <point x="36" y="124" type="line"/>
      <point x="84" y="98"/>
      <point x="137" y="84"/>
      <point x="198" y="84" type="curve" smooth="yes"/>
      <point x="279" y="84"/>
      <point x="324" y="129"/>
      <point x="324" y="189" type="curve" smooth="yes"/>
      <point x="324" y="251"/>
      <point x="276" y="289"/>
      <point x="176" y="289" type="curve"/>
    </contour>
    <contour>
      <point x="253" y="289" type="line"/>
      <point x="136" y="289" type="line"/>
      <point x="136" y="373" type="line"/>
      <point x="253" y="373" type="line"/>
    </contour>
  </outline>
</glyph>
<glyph name="four" format="1">
  <advance width="546"/>
  <unicode hex="0034"/>
  <outline>
    <contour>
      <point x="38" y="238" type="line"/>
      <point x="524" y="238" type="line"/>
      <point x="524" y="153" type="line"/>
      <point x="38" y="153" type="line"/>
    </contour>
    <contour>
      <point x="273" y="655" type="line"/>
      <point x="367" y="655" type="line"/>
      <point x="137" y="238" type="line"/>
      <point x="38" y="238" type="line"/>
    </contour>
    <contour>
      <point x="334" y="655" type="line"/>
      <point x="432" y="655" type="line"/>
      <point x="432" y="0" type="line"/>
      <point x="334" y="0" type="line"/>
    </contour>
  </outline>
</glyph>
<glyph name="five" format="1">
  <advance width="507"/>
  <unicode hex="0035"/>
  <outline>
    <contour>
      <point x="83" y="284" type="curve"/>
      <point x="83" y="365" type="line"/>
      <point x="134" y="389"/>
      <point x="195" y="406"/>
      <point x="248" y="406" type="curve" smooth="yes"/>
      <point x="384" y="406"/>
      <point x="466" y="329"/>
      <point x="466" y="208" type="curve" smooth="yes"/>
      <point x="466" y="79"/>
      <point x="377" y="-7"/>
      <point x="222" y="-7" type="curve" smooth="yes"/>
      <point x="165" y="-7"/>
      <point x="101" y="2"/>
      <point x="52" y="27" type="curve"/>
      <point x="52" y="122" type="line"/>
      <point x="90" y="99"/>
      <point x="152" y="83"/>
      <point x="206" y="83" type="curve" smooth="yes"/>
      <point x="311" y="83"/>
      <point x="364" y="127"/>
      <point x="364" y="211" type="curve" smooth="yes"/>
      <point x="364" y="281"/>
      <point x="311" y="319"/>
      <point x="233" y="319" type="curve" smooth="yes"/>
      <point x="176" y="319"/>
      <point x="119" y="301"/>
    </contour>
    <contour>
      <point x="422" y="570" type="line"/>
      <point x="83" y="570" type="line"/>
      <point x="83" y="655" type="line"/>
      <point x="422" y="655" type="line"/>
    </contour>
    <contour>
      <point x="83" y="613" type="line"/>
      <point x="180" y="613" type="line"/>
      <point x="180" y="345" type="line"/>
      <point x="83" y="345" type="line"/>
    </contour>
  </outline>
</glyph>
<glyph name="six" format="1">
  <advance width="529"/>
  <unicode hex="0036"/>
  <outline>
    <contour>
      <point x="115" y="310" type="line"/>
      <point x="148" y="375"/>
      <point x="223" y="421"/>
      <point x="304" y="421" type="curve" smooth="yes"/>
      <point x="423" y="421"/>
      <point x="496" y="338"/>
      <point x="496" y="213" type="curve" smooth="yes"/>
      <point x="496" y="82"/>
      <point x="414" y="-13"/>
      <point x="282" y="-13" type="curve" smooth="yes"/>
      <point x="125" y="-13"/>
      <point x="47" y="118"/>
      <point x="47" y="297" type="curve" smooth="yes"/>
      <point x="47" y="511"/>
      <point x="164" y="671"/>
      <point x="354" y="671" type="curve" smooth="yes"/>
      <point x="390" y="671"/>
      <point x="422" y="665"/>
      <point x="449" y="656" type="curve"/>
      <point x="449" y="561" type="line"/>
      <point x="422" y="575"/>
      <point x="392" y="581"/>
      <point x="358" y="581" type="curve" smooth="yes"/>
      <point x="214" y="581"/>
      <point x="146" y="443"/>
      <point x="146" y="297" type="curve" smooth="yes"/>
      <point x="146" y="142"/>
      <point x="207" y="76"/>
      <point x="283" y="76" type="curve" smooth="yes"/>
      <point x="353" y="76"/>
      <point x="395" y="132"/>
      <point x="395" y="212" type="curve" smooth="yes"/>
      <point x="395" y="288"/>
      <point x="351" y="335"/>
      <point x="285" y="335" type="curve" smooth="yes"/>
      <point x="210" y="335"/>
      <point x="151" y="286"/>
      <point x="117" y="231" type="curve"/>
    </contour>
  </outline>
</glyph>
<glyph name="seven" format="1">
  <advance width="459"/>
  <unicode hex="0037"/>
  <outline>
    <contour>
      <point x="179" y="0" type="line"/>
      <point x="74" y="0" type="line"/>
      <point x="341" y="569" type="line"/>
      <point x="445" y="569" type="line"/>
    </contour>
    <contour>
      <point x="445" y="569" type="line"/>
      <point x="14" y="569" type="line"/>
      <point x="14" y="654" type="line"/>
      <point x="445" y="654" type="line"/>
    </contour>
  </outline>
</glyph>
<glyph name="eight" format="1">
  <advance width="538"/>
  <unicode hex="0038"/>
  <outline>
    <contour>
      <point x="57" y="475" type="curve" smooth="yes"/>
      <point x="57" y="371"/>
      <point x="144" y="307"/>
      <point x="266" y="307" type="curve" smooth="yes"/>
      <point x="390" y="307"/>
      <point x="478" y="372"/>
      <point x="478" y="474" type="curve" smooth="yes"/>
      <point x="478" y="604"/>
      <point x="377" y="663"/>
      <point x="266" y="663" type="curve" smooth="yes"/>
      <point x="157" y="663"/>
      <point x="57" y="598"/>
    </contour>
    <contour>
      <point x="266" y="579" type="curve" smooth="yes"/>
      <point x="347" y="579"/>
      <point x="378" y="531"/>
      <point x="378" y="477" type="curve" smooth="yes"/>
      <point x="378" y="408"/>
      <point x="330" y="372"/>
      <point x="270" y="372" type="curve" smooth="yes"/>
      <point x="208" y="372"/>
      <point x="157" y="404"/>
      <point x="157" y="476" type="curve" smooth="yes"/>
      <point x="157" y="530"/>
      <point x="194" y="579"/>
    </contour>
    <contour>
      <point x="46" y="169" type="curve" smooth="yes"/>
      <point x="46" y="59"/>
      <point x="140" y="-9"/>
      <point x="266" y="-9" type="curve" smooth="yes"/>
      <point x="394" y="-9"/>
      <point x="492" y="62"/>
      <point x="492" y="174" type="curve" smooth="yes"/>
      <point x="492" y="299"/>
      <point x="391" y="346"/>
      <point x="266" y="346" type="curve" smooth="yes"/>
      <point x="143" y="346"/>
      <point x="46" y="287"/>
    </contour>
    <contour>
      <point x="267" y="283" type="curve"/>
      <point x="355" y="283"/>
      <point x="393" y="233"/>
      <point x="393" y="179" type="curve" smooth="yes"/>
      <point x="393" y="125"/>
      <point x="353" y="75"/>
      <point x="267" y="75" type="curve" smooth="yes"/>
      <point x="183" y="75"/>
      <point x="146" y="122"/>
      <point x="146" y="173" type="curve" smooth="yes"/>
      <point x="146" y="228"/>
      <point x="181" y="282"/>
    </contour>
  </outline>
</glyph>
<glyph name="nine" format="1">
  <advance width="512"/>
  <unicode hex="0039"/>
  <outline>
    <contour>
      <point x="399" y="413" type="curve"/>
      <point x="401" y="334" type="line"/>
      <point x="366" y="264"/>
      <point x="319" y="232"/>
      <point x="228" y="232" type="curve" smooth="yes"/>
      <point x="122" y="232"/>
      <point x="31" y="312"/>
      <point x="31" y="443" type="curve" smooth="yes"/>
      <point x="31" y="565"/>
      <point x="109" y="662"/>
      <point x="243" y="662" type="curve" smooth="yes"/>
      <point x="399" y="662"/>
      <point x="472" y="532"/>
      <point x="472" y="366" type="curve" smooth="yes"/>
      <point x="472" y="130"/>
      <point x="370" y="-8"/>
      <point x="180" y="-8" type="curve" smooth="yes"/>
      <point x="137" y="-8"/>
      <point x="97" y="-1"/>
      <point x="65" y="11" type="curve"/>
      <point x="65" y="106" type="line"/>
      <point x="96" y="92"/>
      <point x="134" y="83"/>
      <point x="173" y="83" type="curve" smooth="yes"/>
      <point x="316" y="83"/>
      <point x="375" y="185"/>
      <point x="375" y="366" type="curve" smooth="yes"/>
      <point x="375" y="487"/>
      <point x="336" y="573"/>
      <point x="247" y="573" type="curve" smooth="yes"/>
      <point x="178" y="573"/>
      <point x="133" y="524"/>
      <point x="133" y="445" type="curve" smooth="yes"/>
      <point x="133" y="364"/>
      <point x="180" y="316"/>
      <point x="252" y="316" type="curve" smooth="yes"/>
      <point x="327" y="316"/>
      <point x="371" y="359"/>
    </contour>
  </outline>
</glyph>
<glyph name="colon" format="1">
  <advance width="250"/>
  <unicode hex="003A"/>
  <outline>
    <contour>
      <point x="58" y="391" type="curve" smooth="yes"/>
      <point x="58" y="353"/>
      <point x="87" y="324"/>
      <point x="125" y="324" type="curve" smooth="yes"/>
      <point x="162" y="324"/>
      <point x="192" y="353"/>
      <point x="192" y="391" type="curve" smooth="yes"/>
      <point x="192" y="428"/>
      <point x="162" y="458"/>
      <point x="125" y="458" type="curve" smooth="yes"/>
      <point x="87" y="458"/>
      <point x="58" y="428"/>
    </contour>
    <contour>
      <point x="58" y="66" type="curve" smooth="yes"/>
      <point x="58" y="28"/>
      <point x="87" y="-1"/>
      <point x="125" y="-1" type="curve" smooth="yes"/>
      <point x="162" y="-1"/>
      <point x="192" y="28"/>
      <point x="192" y="66" type="curve" smooth="yes"/>
      <point x="192" y="103"/>
      <point x="162" y="133"/>
      <point x="125" y="133" type="curve" smooth="yes"/>
      <point x="87" y="133"/>
      <point x="58" y="103"/>
    </contour>
  </outline>
</glyph>
<glyph name="semicolon" format="1">
  <advance width="245"/>
  <unicode hex="003B"/>
  <outline>
    <contour>
      <point x="71" y="390" type="curve" smooth="yes"/>
      <point x="71" y="353"/>
      <point x="100" y="324"/>
      <point x="137" y="324" type="curve" smooth="yes"/>
      <point x="175" y="324"/>
      <point x="205" y="353"/>
      <point x="205" y="390" type="curve" smooth="yes"/>
      <point x="205" y="428"/>
      <point x="175" y="458"/>
      <point x="137" y="458" type="curve" smooth="yes"/>
      <point x="100" y="458"/>
      <point x="71" y="428"/>
    </contour>
    <contour>
      <point x="-8" y="-124" type="line"/>
      <point x="78" y="-124" type="line"/>
      <point x="209" y="110" type="line"/>
      <point x="88" y="110" type="line"/>
    </contour>
  </outline>
</glyph>
<glyph name="less" format="1">
  <advance width="545"/>
  <unicode hex="003C"/>
  <outline>
    <contour>
      <point x="53" y="293" type="line"/>
      <point x="497" y="108" type="line"/>
      <point x="497" y="208" type="line"/>
      <point x="497" y="208"/>
      <point x="208" y="315"/>
      <point x="155" y="341" type="curve"/>
      <point x="207" y="366"/>
      <point x="497" y="473"/>
      <point x="497" y="473" type="curve"/>
      <point x="497" y="573" type="line"/>
      <point x="53" y="388" type="line"/>
    </contour>
  </outline>
</glyph>
<glyph name="equal" format="1">
  <advance width="564"/>
  <unicode hex="003D"/>
  <outline>
    <contour>
      <point x="53" y="403" type="line"/>
      <point x="510" y="403" type="line"/>
      <point x="510" y="487" type="line"/>
      <point x="53" y="487" type="line"/>
    </contour>
    <contour>
      <point x="53" y="193" type="line"/>
      <point x="510" y="193" type="line"/>
      <point x="510" y="278" type="line"/>
      <point x="53" y="278" type="line"/>
    </contour>
  </outline>
</glyph>
<glyph name="greater" format="1">
  <advance width="545"/>
  <unicode hex="003E"/>
  <outline>
    <contour>
      <point x="491" y="388" type="line"/>
      <point x="48" y="573" type="line"/>
      <point x="48" y="473" type="line"/>
      <point x="48" y="473"/>
      <point x="337" y="366"/>
      <point x="390" y="341" type="curve"/>
      <point x="336" y="315"/>
      <point x="48" y="208"/>
      <point x="48" y="208" type="curve"/>
      <point x="48" y="108" type="line"/>
      <point x="491" y="293" type="line"/>
    </contour>
  </outline>
</glyph>
<glyph name="question" format="1">
  <advance width="454"/>
  <unicode hex="003F"/>
  <outline>
    <contour>
      <point x="51" y="548" type="line"/>
      <point x="102" y="581"/>
      <point x="150" y="596"/>
      <point x="199" y="596" type="curve" smooth="yes"/>
      <point x="280" y="596"/>
      <point x="317" y="551"/>
      <point x="317" y="492" type="curve" smooth="yes"/>
      <point x="317" y="413"/>
      <point x="253" y="375"/>
      <point x="136" y="375" type="curve"/>
      <point x="137" y="214" type="line"/>
      <point x="230" y="214" type="line"/>
      <point x="231" y="315" type="line"/>
      <point x="311" y="321"/>
      <point x="418" y="374"/>
      <point x="418" y="499" type="curve" smooth="yes"/>
      <point x="418" y="615"/>
      <point x="333" y="682"/>
      <point x="208" y="682" type="curve" smooth="yes"/>
      <point x="145" y="682"/>
      <point x="88" y="666"/>
      <point x="51" y="645" type="curve"/>
    </contour>
    <contour>
      <point x="114" y="60" type="curve" smooth="yes"/>
      <point x="114" y="21"/>
      <point x="144" y="-8"/>
      <point x="182" y="-8" type="curve" smooth="yes"/>
      <point x="221" y="-8"/>
      <point x="251" y="21"/>
      <point x="251" y="60" type="curve" smooth="yes"/>
      <point x="251" y="98"/>
      <point x="221" y="129"/>
      <point x="182" y="129" type="curve" smooth="yes"/>
      <point x="144" y="129"/>
      <point x="114" y="98"/>
    </contour>
  </outline>
</glyph>
<glyph name="at" format="1">
  <advance width="926"/>
  <unicode hex="0040"/>
  <outline>
    <contour>
      <point x="577" y="419" type="curve"/>
      <point x="657" y="419" type="line"/>
      <point x="647" y="316" type="line" smooth="yes"/>
      <point x="642" y="252"/>
      <point x="640" y="217"/>
      <point x="640" y="196" type="curve" smooth="yes"/>
      <point x="640" y="127"/>
      <point x="658" y="93"/>
      <point x="702" y="93" type="curve" smooth="yes"/>
      <point x="756" y="93"/>
      <point x="798" y="159"/>
      <point x="798" y="261" type="curve" smooth="yes"/>
      <point x="798" y="453"/>
      <point x="663" y="548"/>
      <point x="496" y="548" type="curve" smooth="yes"/>
      <point x="301" y="548"/>
      <point x="145" y="393"/>
      <point x="145" y="196" type="curve" smooth="yes"/>
      <point x="145" y="0"/>
      <point x="281" y="-99"/>
      <point x="431" y="-99" type="curve" smooth="yes"/>
      <point x="490" y="-99"/>
      <point x="555" y="-87"/>
      <point x="615" y="-55" type="curve"/>
      <point x="611" y="-146" type="line"/>
      <point x="555" y="-173"/>
      <point x="484" y="-182"/>
      <point x="430" y="-182" type="curve" smooth="yes"/>
      <point x="191" y="-182"/>
      <point x="54" y="-14"/>
      <point x="54" y="197" type="curve" smooth="yes"/>
      <point x="54" y="446"/>
      <point x="256" y="630"/>
      <point x="499" y="630" type="curve" smooth="yes"/>
      <point x="705" y="630"/>
      <point x="883" y="493"/>
      <point x="883" y="267" type="curve" smooth="yes"/>
      <point x="883" y="105"/>
      <point x="789" y="15"/>
      <point x="698" y="15" type="curve" smooth="yes"/>
      <point x="582" y="15"/>
      <point x="562" y="115"/>
      <point x="562" y="169" type="curve" smooth="yes"/>
      <point x="562" y="237"/>
      <point x="571" y="309"/>
    </contour>
    <contour>
      <point x="601" y="271" type="curve"/>
      <point x="567" y="227" type="line"/>
      <point x="560" y="303"/>
      <point x="527" y="347"/>
      <point x="463" y="347" type="curve" smooth="yes"/>
      <point x="397" y="347"/>
      <point x="348" y="285"/>
      <point x="348" y="200" type="curve" smooth="yes"/>
      <point x="348" y="132"/>
      <point x="389" y="89"/>
      <point x="442" y="89" type="curve" smooth="yes"/>
      <point x="494" y="89"/>
      <point x="549" y="130"/>
      <point x="566" y="207" type="curve"/>
      <point x="589" y="157" type="line"/>
      <point x="565" y="67"/>
      <point x="502" y="13"/>
      <point x="421" y="13" type="curve" smooth="yes"/>
      <point x="317" y="13"/>
      <point x="257" y="100"/>
      <point x="257" y="205" type="curve" smooth="yes"/>
      <point x="257" y="332"/>
      <point x="345" y="423"/>
      <point x="454" y="423" type="curve" smooth="yes"/>
      <point x="537" y="423"/>
      <point x="585" y="369"/>
    </contour>
  </outline>
</glyph>
<glyph name="A" format="1">
  <advance width="660"/>
  <unicode hex="0041"/>
  <outline>
    <contour>
      <point x="31" y="0" type="line"/>
      <point x="140" y="0" type="line"/>
      <point x="233" y="285" type="line" smooth="yes"/>
      <point x="320" y="550"/>
      <point x="331" y="596"/>
      <point x="331" y="596" type="curve"/>
      <point x="331" y="596"/>
      <point x="341" y="550"/>
      <point x="427" y="285" type="curve" smooth="yes"/>
      <point x="519" y="0" type="line"/>
      <point x="629" y="0" type="line"/>
      <point x="399" y="674" type="line"/>
      <point x="264" y="674" type="line"/>
    </contour>
    <contour>
      <point x="163" y="165" type="line"/>
      <point x="504" y="165" type="line"/>
      <point x="504" y="251" type="line"/>
      <point x="163" y="251" type="line"/>
    </contour>
  </outline>
</glyph>
<glyph name="B" format="1">
  <advance width="581"/>
  <unicode hex="0042"/>
  <outline>
    <contour>
      <point x="522" y="494" type="curve" smooth="yes"/>
      <point x="522" y="601"/>
      <point x="437" y="674"/>
      <point x="294" y="674" type="curve" smooth="yes"/>
      <point x="73" y="674" type="line"/>
      <point x="73" y="589" type="line"/>
      <point x="286" y="589" type="line" smooth="yes"/>
      <point x="378" y="589"/>
      <point x="417" y="546"/>
      <point x="417" y="492" type="curve" smooth="yes"/>
      <point x="417" y="432"/>
      <point x="375" y="382"/>
      <point x="269" y="382" type="curve" smooth="yes"/>
      <point x="73" y="382" type="line"/>
      <point x="73" y="298" type="line"/>
      <point x="298" y="298" type="line" smooth="yes"/>
      <point x="390" y="298"/>
      <point x="435" y="256"/>
      <point x="435" y="190" type="curve" smooth="yes"/>
      <point x="435" y="121"/>
      <point x="390" y="85"/>
      <point x="308" y="85" type="curve"/>
      <point x="73" y="85" type="line"/>
      <point x="73" y="0" type="line"/>
      <point x="332" y="0" type="line" smooth="yes"/>
      <point x="467" y="0"/>
      <point x="540" y="77"/>
      <point x="540" y="181" type="curve" smooth="yes"/>
      <point x="540" y="280"/>
      <point x="476" y="330"/>
      <point x="410" y="342" type="curve"/>
      <point x="475" y="358"/>
      <point x="522" y="418"/>
    </contour>
    <contour>
      <point x="73" y="0" type="line"/>
      <point x="176" y="0" type="line"/>
      <point x="176" y="674" type="line"/>
      <point x="73" y="674" type="line"/>
    </contour>
  </outline>
</glyph>
<glyph name="C" format="1">
  <advance width="605"/>
  <unicode hex="0043"/>
  <outline>
    <contour>
      <point x="154" y="338" type="curve" smooth="yes"/>
      <point x="154" y="183"/>
      <point x="253" y="87"/>
      <point x="398" y="87" type="curve" smooth="yes"/>
      <point x="458" y="87"/>
      <point x="520" y="106"/>
      <point x="561" y="137" type="curve"/>
      <point x="561" y="33" type="line"/>
      <point x="514" y="2"/>
      <point x="446" y="-8"/>
      <point x="389" y="-8" type="curve" smooth="yes"/>
      <point x="191" y="-8"/>
      <point x="46" y="124"/>
      <point x="46" y="338" type="curve" smooth="yes"/>
      <point x="46" y="544"/>
      <point x="191" y="683"/>
      <point x="387" y="683" type="curve" smooth="yes"/>
      <point x="449" y="683"/>
      <point x="509" y="675"/>
      <point x="560" y="646" type="curve"/>
      <point x="560" y="545" type="line"/>
      <point x="505" y="575"/>
      <point x="466" y="588"/>
      <point x="390" y="588" type="curve" smooth="yes"/>
      <point x="259" y="588"/>
      <point x="154" y="492"/>
    </contour>
  </outline>
</glyph>
<glyph name="D" format="1">
  <advance width="667"/>
  <unicode hex="0044"/>
  <outline>
    <contour>
      <point x="73" y="0" type="line"/>
      <point x="178" y="0" type="line"/>
      <point x="178" y="674" type="line"/>
      <point x="73" y="674" type="line"/>
    </contour>
    <contour>
      <point x="285" y="0" type="line"/>
      <point x="503" y="0"/>
      <point x="625" y="150"/>
      <point x="625" y="344" type="curve" smooth="yes"/>
      <point x="625" y="536"/>
      <point x="483" y="674"/>
      <point x="283" y="674" type="curve"/>
      <point x="73" y="674" type="line"/>
      <point x="73" y="586" type="line"/>
      <point x="281" y="586" type="line"/>
      <point x="429" y="586"/>
      <point x="519" y="479"/>
      <point x="519" y="344" type="curve" smooth="yes"/>
      <point x="519" y="202"/>
      <point x="445" y="87"/>
      <point x="284" y="87" type="curve"/>
      <point x="73" y="87" type="line"/>
      <point x="73" y="0" type="line"/>
    </contour>
  </outline>
</glyph>
<glyph name="E" format="1">
  <advance width="514"/>
  <unicode hex="0045"/>
  <outline>
    <contour>
      <point x="103" y="0" type="line"/>
      <point x="462" y="0" type="line"/>
      <point x="462" y="86" type="line"/>
      <point x="103" y="86" type="line"/>
    </contour>
    <contour>
      <point x="73" y="0" type="line"/>
      <point x="176" y="0" type="line"/>
      <point x="176" y="674" type="line"/>
      <point x="73" y="674" type="line"/>
    </contour>
    <contour>
      <point x="103" y="294" type="line"/>
      <point x="425" y="294" type="line"/>
      <point x="425" y="380" type="line"/>
      <point x="103" y="380" type="line"/>
    </contour>
    <contour>
      <point x="103" y="588" type="line"/>
      <point x="457" y="588" type="line"/>
      <point x="457" y="674" type="line"/>
      <point x="103" y="674" type="line"/>
    </contour>
  </outline>
</glyph>
<glyph name="F" format="1">
  <advance width="494"/>
  <unicode hex="0046"/>
  <outline>
    <contour>
      <point x="73" y="0" type="line"/>
      <point x="176" y="0" type="line"/>
      <point x="176" y="674" type="line"/>
      <point x="73" y="674" type="line"/>
    </contour>
    <contour>
      <point x="103" y="281" type="line"/>
      <point x="421" y="281" type="line"/>
      <point x="421" y="367" type="line"/>
      <point x="103" y="367" type="line"/>
    </contour>
    <contour>
      <point x="103" y="588" type="line"/>
      <point x="455" y="588" type="line"/>
      <point x="455" y="674" type="line"/>
      <point x="103" y="674" type="line"/>
    </contour>
  </outline>
</glyph>
<glyph name="H" format="1">
  <advance width="656"/>
  <unicode hex="0048"/>
  <outline>
    <contour>
      <point x="131" y="295" type="line"/>
      <point x="517" y="295" type="line"/>
      <point x="517" y="384" type="line"/>
      <point x="131" y="384" type="line"/>
    </contour>
    <contour>
      <point x="479" y="0" type="line"/>
      <point x="582" y="0" type="line"/>
      <point x="582" y="674" type="line"/>
      <point x="479" y="674" type="line"/>
    </contour>
    <contour>
      <point x="73" y="0" type="line"/>
      <point x="176" y="0" type="line"/>
      <point x="176" y="674" type="line"/>
      <point x="73" y="674" type="line"/>
    </contour>
  </outline>
</glyph>
<glyph name="J" format="1">
  <advance width="368"/>
  <unicode hex="004A"/>
  <outline>
    <contour>
      <point x="30" y="21" type="line"/>
      <point x="55" y="7"/>
      <point x="97" y="0"/>
      <point x="129" y="0" type="curve" smooth="yes"/>
      <point x="226" y="0"/>
      <point x="297" y="52"/>
      <point x="297" y="182" type="curve"/>
      <point x="297" y="674" type="line"/>
      <point x="194" y="674" type="line"/>
      <point x="194" y="178" type="line" smooth="yes"/>
      <point x="194" y="118"/>
      <point x="165" y="91"/>
      <point x="112" y="91" type="curve" smooth="yes"/>
      <point x="82" y="91"/>
      <point x="53" y="102"/>
      <point x="30" y="116" type="curve"/>
    </contour>
  </outline>
</glyph>
<glyph name="K" format="1">
  <advance width="599"/>
  <unicode hex="004B"/>
  <outline>
    <contour>
      <point x="73" y="0" type="line"/>
      <point x="176" y="0" type="line"/>
      <point x="176" y="674" type="line"/>
      <point x="73" y="674" type="line"/>
    </contour>
    <contour>
      <point x="189" y="333" type="line"/>
      <point x="444" y="0" type="line"/>
      <point x="574" y="0" type="line"/>
      <point x="312" y="334" type="line"/>
    </contour>
    <contour>
      <point x="312" y="334" type="line"/>
      <point x="559" y="674" type="line"/>
      <point x="434" y="674" type="line"/>
      <point x="189" y="333" type="line"/>
    </contour>
  </outline>
</glyph>
<glyph name="L" format="1">
  <advance width="480"/>
  <unicode hex="004C"/>
  <outline>
    <contour>
      <point x="73" y="674" type="line"/>
      <point x="176" y="674" type="line"/>
      <point x="176" y="0" type="line"/>
      <point x="73" y="0" type="line"/>
    </contour>
    <contour>
      <point x="103" y="91" type="line"/>
      <point x="452" y="91" type="line"/>
      <point x="452" y="0" type="line"/>
      <point x="103" y="0" type="line"/>
    </contour>
  </outline>
</glyph>
<glyph name="M" format="1">
  <advance width="868"/>
  <unicode hex="004D"/>
  <outline>
    <contour>
      <point x="64" y="0" type="line"/>
      <point x="166" y="0" type="line"/>
      <point x="186" y="264" type="line" smooth="yes"/>
      <point x="195" y="389"/>
      <point x="202" y="504"/>
      <point x="202" y="530" type="curve"/>
      <point x="202" y="530"/>
      <point x="238" y="420"/>
      <point x="293" y="264" type="curve" smooth="yes"/>
      <point x="384" y="13" type="line"/>
      <point x="465" y="13" type="line"/>
      <point x="559" y="264" type="line" smooth="yes"/>
      <point x="612" y="407"/>
      <point x="657" y="534"/>
      <point x="657" y="534" type="curve"/>
      <point x="657" y="534"/>
      <point x="665" y="407"/>
      <point x="678" y="264" type="curve" smooth="yes"/>
      <point x="702" y="0" type="line"/>
      <point x="804" y="0" type="line"/>
      <point x="742" y="674" type="line"/>
      <point x="620" y="674" type="line"/>
      <point x="526" y="428" type="line" smooth="yes"/>
      <point x="471" y="282"/>
      <point x="425" y="146"/>
      <point x="425" y="146" type="curve"/>
      <point x="425" y="146"/>
      <point x="381" y="286"/>
      <point x="328" y="428" type="curve" smooth="yes"/>
      <point x="238" y="674" type="line"/>
      <point x="116" y="674" type="line"/>
    </contour>
  </outline>
</glyph>
<glyph name="N" format="1">
  <advance width="680"/>
  <unicode hex="004E"/>
  <outline>
    <contour>
      <point x="73" y="0" type="line"/>
      <point x="176" y="0" type="line"/>
      <point x="176" y="282" type="line" smooth="yes"/>
      <point x="176" y="451"/>
      <point x="168" y="551"/>
      <point x="168" y="551" type="curve"/>
      <point x="168" y="551"/>
      <point x="216" y="452"/>
      <point x="318" y="281" type="curve" smooth="yes"/>
      <point x="485" y="0" type="line"/>
      <point x="607" y="0" type="line"/>
      <point x="607" y="674" type="line"/>
      <point x="504" y="674" type="line"/>
      <point x="504" y="391" type="line" smooth="yes"/>
      <point x="504" y="215"/>
      <point x="510" y="124"/>
      <point x="510" y="124" type="curve"/>
      <point x="510" y="124"/>
      <point x="465" y="214"/>
      <point x="361" y="392" type="curve" smooth="yes"/>
      <point x="195" y="674" type="line"/>
      <point x="73" y="674" type="line"/>
    </contour>
  </outline>
</glyph>
<glyph name="O" format="1">
  <advance width="711"/>
  <unicode hex="004F"/>
  <outline>
    <contour>
      <point x="46" y="340" type="curve" smooth="yes"/>
      <point x="46" y="130"/>
      <point x="168" y="-8"/>
      <point x="356" y="-8" type="curve" smooth="yes"/>
      <point x="546" y="-8"/>
      <point x="665" y="130"/>
      <point x="665" y="340" type="curve" smooth="yes"/>
      <point x="665" y="549"/>
      <point x="549" y="687"/>
      <point x="355" y="687" type="curve" smooth="yes"/>
      <point x="166" y="687"/>
      <point x="46" y="549"/>
    </contour>
    <contour>
      <point x="154" y="340" type="curve" smooth="yes"/>
      <point x="154" y="495"/>
      <point x="230" y="591"/>
      <point x="355" y="591" type="curve" smooth="yes"/>
      <point x="483" y="591"/>
      <point x="557" y="495"/>
      <point x="557" y="340" type="curve" smooth="yes"/>
      <point x="557" y="184"/>
      <point x="483" y="88"/>
      <point x="356" y="88" type="curve" smooth="yes"/>
      <point x="234" y="88"/>
      <point x="154" y="184"/>
    </contour>
  </outline>
</glyph>
<glyph name="P" format="1">
  <advance width="550"/>
  <unicode hex="0050"/>
  <outline>
    <contour>
      <point x="272" y="239" type="line"/>
      <point x="417" y="239"/>
      <point x="518" y="326"/>
      <point x="518" y="455" type="curve"/>
      <point x="518" y="581"/>
      <point x="423" y="674"/>
      <point x="266" y="674" type="curve" smooth="yes"/>
      <point x="73" y="674" type="line"/>
      <point x="73" y="589" type="line"/>
      <point x="262" y="589" type="line" smooth="yes"/>
      <point x="363" y="589"/>
      <point x="414" y="536"/>
      <point x="414" y="455" type="curve" smooth="yes"/>
      <point x="414" y="380"/>
      <point x="365" y="324"/>
      <point x="264" y="324" type="curve" smooth="yes"/>
      <point x="73" y="324" type="line"/>
      <point x="73" y="239" type="line"/>
    </contour>
    <contour>
      <point x="73" y="0" type="line"/>
      <point x="176" y="0" type="line"/>
      <point x="176" y="674" type="line"/>
      <point x="73" y="674" type="line"/>
    </contour>
  </outline>
</glyph>
<glyph name="R" format="1">
  <advance width="568"/>
  <unicode hex="0052"/>
  <outline>
    <contour>
      <point x="228" y="315" type="line"/>
      <point x="423" y="0" type="line"/>
      <point x="546" y="0" type="line"/>
      <point x="343" y="315" type="line"/>
    </contour>
    <contour>
      <point x="399" y="465" type="curve" smooth="yes"/>
      <point x="399" y="394"/>
      <point x="358" y="342"/>
      <point x="269" y="342" type="curve" smooth="yes"/>
      <point x="73" y="342" type="line"/>
      <point x="73" y="256" type="line"/>
      <point x="268" y="256" type="line" smooth="yes"/>
      <point x="408" y="256"/>
      <point x="500" y="332"/>
      <point x="503" y="464" type="curve"/>
      <point x="503" y="591"/>
      <point x="418" y="674"/>
      <point x="261" y="674" type="curve" smooth="yes"/>
      <point x="73" y="674" type="line"/>
      <point x="73" y="588" type="line"/>
      <point x="264" y="588" type="line" smooth="yes"/>
      <point x="353" y="588"/>
      <point x="399" y="545"/>
    </contour>
    <contour>
      <point x="73" y="0" type="line"/>
      <point x="176" y="0" type="line"/>
      <point x="176" y="674" type="line"/>
      <point x="73" y="674" type="line"/>
    </contour>
  </outline>
</glyph>
<glyph name="T" format="1">
  <advance width="500"/>
  <unicode hex="0054"/>
  <outline>
    <contour>
      <point x="198" y="0" type="line"/>
      <point x="301" y="0" type="line"/>
      <point x="301" y="665" type="line"/>
      <point x="198" y="665" type="line"/>
    </contour>
    <contour>
      <point x="22" y="588" type="line"/>
      <point x="478" y="588" type="line"/>
      <point x="478" y="674" type="line"/>
      <point x="22" y="674" type="line"/>
    </contour>
  </outline>
</glyph>
<glyph name="U" format="1">
  <advance width="652"/>
  <unicode hex="0055"/>
  <outline>
    <contour>
      <point x="478" y="256" type="line"/>
      <point x="478" y="129"/>
      <point x="413" y="86"/>
      <point x="325" y="86" type="curve" smooth="yes"/>
      <point x="241" y="86"/>
      <point x="174" y="129"/>
      <point x="174" y="251" type="curve" smooth="yes"/>
      <point x="174" y="674" type="line"/>
      <point x="71" y="674" type="line"/>
      <point x="71" y="250" type="line" smooth="yes"/>
      <point x="71" y="79"/>
      <point x="171" y="-9"/>
      <point x="325" y="-9" type="curve" smooth="yes"/>
      <point x="481" y="-9"/>
      <point x="581" y="80"/>
      <point x="581" y="258" type="curve" smooth="yes"/>
      <point x="581" y="674" type="line"/>
      <point x="478" y="674" type="line"/>
    </contour>
  </outline>
</glyph>
<glyph name="V" format="1">
  <advance width="643"/>
  <unicode hex="0056"/>
  <outline>
    <contour>
      <point x="613" y="674" type="line"/>
      <point x="503" y="674" type="line"/>
      <point x="416" y="406" type="line" smooth="yes"/>
      <point x="352" y="212"/>
      <point x="320" y="92"/>
      <point x="320" y="92" type="curve"/>
      <point x="320" y="92"/>
      <point x="289" y="212"/>
      <point x="227" y="406" type="curve" smooth="yes"/>
      <point x="141" y="674" type="line"/>
      <point x="31" y="674" type="line"/>
      <point x="258" y="0" type="line"/>
      <point x="380" y="0" type="line"/>
    </contour>
  </outline>
</glyph>
<glyph name="W" format="1">
  <advance width="947"/>
  <unicode hex="0057"/>
  <outline>
    <contour>
      <point x="523" y="664" type="line"/>
      <point x="594" y="424" type="line" smooth="yes"/>
      <point x="631" y="296"/>
      <point x="685" y="107"/>
      <point x="685" y="107" type="curve"/>
      <point x="685" y="107"/>
      <point x="722" y="289"/>
      <point x="754" y="424" type="curve" smooth="yes"/>
      <point x="813" y="674" type="line"/>
      <point x="917" y="674" type="line"/>
      <point x="752" y="0" type="line"/>
      <point x="629" y="0" type="line"/>
      <point x="565" y="213" type="line" smooth="yes"/>
      <point x="503" y="419"/>
      <point x="478" y="514"/>
      <point x="478" y="514" type="curve"/>
      <point x="478" y="514"/>
      <point x="455" y="419"/>
      <point x="394" y="213" type="curve" smooth="yes"/>
      <point x="332" y="0" type="line"/>
      <point x="208" y="0" type="line"/>
      <point x="31" y="674" type="line"/>
      <point x="138" y="674" type="line"/>
      <point x="201" y="425" type="line" smooth="yes"/>
      <point x="233" y="298"/>
      <point x="275" y="109"/>
      <point x="275" y="109" type="curve"/>
      <point x="275" y="109"/>
      <point x="320" y="277"/>
      <point x="363" y="425" type="curve" smooth="yes"/>
      <point x="432" y="664" type="line"/>
    </contour>
  </outline>
</glyph>
<glyph name="X" format="1">
  <advance width="628"/>
  <unicode hex="0058"/>
  <outline>
    <contour>
      <point x="47" y="674" type="line"/>
      <point x="166" y="674" type="line"/>
      <point x="309" y="432" type="line"/>
      <point x="324" y="461"/>
      <point x="434" y="645"/>
      <point x="450" y="674" type="curve"/>
      <point x="573" y="674" type="line"/>
      <point x="369" y="340" type="line"/>
      <point x="592" y="0" type="line"/>
      <point x="471" y="0" type="line"/>
      <point x="311" y="253" type="line"/>
      <point x="294" y="221"/>
      <point x="175" y="31"/>
      <point x="158" y="0" type="curve"/>
      <point x="35" y="0" type="line"/>
      <point x="251" y="341" type="line"/>
    </contour>
  </outline>
</glyph>
<glyph name="Y" format="1">
  <advance width="608"/>
  <unicode hex="0059"/>
  <outline>
    <contour>
      <point x="259" y="236" type="line"/>
      <point x="23" y="674" type="line"/>
      <point x="141" y="674" type="line"/>
      <point x="189" y="575" type="line" smooth="yes"/>
      <point x="292" y="365"/>
      <point x="302" y="335"/>
      <point x="302" y="335" type="curve"/>
      <point x="302" y="335"/>
      <point x="311" y="365"/>
      <point x="418" y="575" type="curve" smooth="yes"/>
      <point x="467" y="674" type="line"/>
      <point x="585" y="674" type="line"/>
      <point x="346" y="236" type="line"/>
    </contour>
    <contour>
      <point x="251" y="263" type="line"/>
      <point x="354" y="263" type="line"/>
      <point x="354" y="0" type="line"/>
      <point x="251" y="0" type="line"/>
    </contour>
  </outline>
</glyph>
<glyph name="Z" format="1">
  <advance width="584"/>
  <unicode hex="005A"/>
  <outline>
    <contour>
      <point x="516" y="674" type="line"/>
      <point x="59" y="674" type="line"/>
      <point x="59" y="589" type="line"/>
      <point x="394" y="589" type="line"/>
      <point x="54" y="81" type="line"/>
      <point x="54" y="0" type="line"/>
      <point x="530" y="0" type="line"/>
      <point x="530" y="85" type="line"/>
      <point x="175" y="85" type="line"/>
      <point x="516" y="595" type="line"/>
    </contour>
  </outline>
</glyph>
<glyph name="bracketleft" format="1">
  <advance width="325"/>
  <unicode hex="005B"/>
  <outline>
    <contour>
      <point x="73" y="-186" type="line"/>
      <point x="169" y="-186" type="line"/>
      <point x="169" y="707" type="line"/>
      <point x="73" y="707" type="line"/>
    </contour>
    <contour>
      <point x="73" y="620" type="line"/>
      <point x="319" y="620" type="line"/>
      <point x="319" y="707" type="line"/>
      <point x="73" y="707" type="line"/>
    </contour>
    <contour>
      <point x="73" y="-186" type="line"/>
      <point x="319" y="-186" type="line"/>
      <point x="319" y="-99" type="line"/>
      <point x="73" y="-99" type="line"/>
    </contour>
  </outline>
</glyph>
<glyph name="backslash" format="1">
  <advance width="420"/>
  <unicode hex="005C"/>
  <outline>
    <contour>
      <point x="428" y="-103" type="line"/>
      <point x="327" y="-103" type="line"/>
      <point x="-37" y="707" type="line"/>
      <point x="65" y="707" type="line"/>
    </contour>
  </outline>
</glyph>
<glyph name="bracketright" format="1">
  <advance width="325"/>
  <unicode hex="005D"/>
  <outline>
    <contour>
      <point x="252" y="-186" type="line"/>
      <point x="157" y="-186" type="line"/>
      <point x="157" y="707" type="line"/>
      <point x="252" y="707" type="line"/>
    </contour>
    <contour>
      <point x="252" y="620" type="line"/>
      <point x="7" y="620" type="line"/>
      <point x="7" y="707" type="line"/>
      <point x="252" y="707" type="line"/>
    </contour>
    <contour>
      <point x="252" y="-186" type="line"/>
      <point x="7" y="-186" type="line"/>
      <point x="7" y="-99" type="line"/>
      <point x="252" y="-99" type="line"/>
    </contour>
  </outline>
</glyph>
<glyph name="asciicircum" format="1">
  <advance width="470"/>
  <unicode hex="005E"/>
  <outline>
    <contour>
      <point x="41" y="332" type="line"/>
      <point x="137" y="332" type="line"/>
      <point x="273" y="594" type="line"/>
      <point x="186" y="594" type="line"/>
    </contour>
    <contour>
      <point x="286" y="594" type="line"/>
      <point x="199" y="594" type="line"/>
      <point x="333" y="332" type="line"/>
      <point x="428" y="332" type="line"/>
    </contour>
  </outline>
</glyph>
<glyph name="underscore" format="1">
  <advance width="557"/>
  <unicode hex="005F"/>
  <outline>
    <contour>
      <point x="26" y="-119" type="line"/>
      <point x="531" y="-119" type="line"/>
      <point x="531" y="-35" type="line"/>
      <point x="26" y="-35" type="line"/>
    </contour>
  </outline>
</glyph>
<glyph name="grave" format="1">
  <advance width="444"/>
  <unicode hex="0060"/>
  <outline>
    <contour>
      <point x="230" y="798" type="line"/>
      <point x="121" y="798" type="line"/>
      <point x="241" y="636" type="line"/>
      <point x="325" y="636" type="line"/>
    </contour>
  </outline>
</glyph>
<glyph name="a" format="1">
  <advance width="499"/>
  <unicode hex="0061"/>
  <outline>
    <contour>
      <point x="336" y="169" type="line"/>
      <point x="336" y="113"/>
      <point x="298" y="73"/>
      <point x="233" y="73" type="curve" smooth="yes"/>
      <point x="175" y="73"/>
      <point x="147" y="103"/>
      <point x="147" y="148" type="curve" smooth="yes"/>
      <point x="147" y="190"/>
      <point x="181" y="226"/>
      <point x="260" y="226" type="curve" smooth="yes"/>
      <point x="350" y="226" type="line"/>
      <point x="350" y="297" type="line"/>
      <point x="252" y="297" type="line" smooth="yes"/>
      <point x="120" y="297"/>
      <point x="43" y="240"/>
      <point x="43" y="143" type="curve" smooth="yes"/>
      <point x="43" y="60"/>
      <point x="104" y="-4"/>
      <point x="202" y="-4" type="curve" smooth="yes"/>
      <point x="282" y="-4"/>
      <point x="322" y="32"/>
      <point x="339" y="60" type="curve"/>
      <point x="339" y="0" type="line"/>
      <point x="436" y="0" type="line"/>
      <point x="436" y="322" type="line" smooth="yes"/>
      <point x="436" y="448"/>
      <point x="375" y="515"/>
      <point x="237" y="515" type="curve" smooth="yes"/>
      <point x="175" y="515"/>
      <point x="114" y="500"/>
      <point x="81" y="481" type="curve"/>
      <point x="81" y="386" type="line"/>
      <point x="119" y="412"/>
      <point x="175" y="431"/>
      <point x="228" y="431" type="curve" smooth="yes"/>
      <point x="309" y="431"/>
      <point x="336" y="391"/>
      <point x="336" y="326" type="curve" smooth="yes"/>
    </contour>
  </outline>
</glyph>
<glyph name="b" format="1">
  <advance width="582"/>
  <unicode hex="0062"/>
  <outline>
    <contour>
      <point x="71" y="0" type="line"/>
      <point x="170" y="0" type="line"/>
      <point x="170" y="707" type="line"/>
      <point x="71" y="707" type="line"/>
    </contour>
    <contour>
      <point x="170" y="257" type="curve" smooth="yes"/>
      <point x="170" y="385"/>
      <point x="248" y="428"/>
      <point x="305" y="428" type="curve" smooth="yes"/>
      <point x="379" y="428"/>
      <point x="440" y="369"/>
      <point x="440" y="249" type="curve" smooth="yes"/>
      <point x="440" y="147"/>
      <point x="382" y="79"/>
      <point x="308" y="79" type="curve" smooth="yes"/>
      <point x="238" y="79"/>
      <point x="170" y="128"/>
    </contour>
    <contour>
      <point x="126" y="257" type="curve" smooth="yes"/>
      <point x="126" y="108"/>
      <point x="191" y="-7"/>
      <point x="324" y="-7" type="curve" smooth="yes"/>
      <point x="465" y="-7"/>
      <point x="541" y="116"/>
      <point x="541" y="251" type="curve" smooth="yes"/>
      <point x="541" y="412"/>
      <point x="449" y="514"/>
      <point x="323" y="514" type="curve" smooth="yes"/>
      <point x="204" y="514"/>
      <point x="126" y="413"/>
    </contour>
  </outline>
</glyph>
<glyph name="c" format="1">
  <advance width="471"/>
  <unicode hex="0063"/>
  <outline>
    <contour>
      <point x="142" y="251" type="curve" smooth="yes"/>
      <point x="142" y="353"/>
      <point x="209" y="429"/>
      <point x="316" y="429" type="curve" smooth="yes"/>
      <point x="349" y="429"/>
      <point x="394" y="419"/>
      <point x="427" y="398" type="curve"/>
      <point x="427" y="488" type="line"/>
      <point x="386" y="509"/>
      <point x="340" y="516"/>
      <point x="306" y="516" type="curve" smooth="yes"/>
      <point x="136" y="516"/>
      <point x="41" y="390"/>
      <point x="41" y="252" type="curve" smooth="yes"/>
      <point x="41" y="108"/>
      <point x="139" y="-10"/>
      <point x="302" y="-10" type="curve" smooth="yes"/>
      <point x="346" y="-10"/>
      <point x="396" y="1"/>
      <point x="427" y="20" type="curve"/>
      <point x="427" y="108" type="line"/>
      <point x="397" y="89"/>
      <point x="355" y="75"/>
      <point x="315" y="75" type="curve" smooth="yes"/>
      <point x="203" y="75"/>
      <point x="144" y="153"/>
    </contour>
  </outline>
</glyph>
<glyph name="e" format="1">
  <advance width="525"/>
  <unicode hex="0065"/>
  <outline>
    <contour>
      <point x="103" y="213" type="line"/>
      <point x="473" y="213" type="line"/>
      <point x="476" y="230"/>
      <point x="479" y="263"/>
      <point x="479" y="278" type="curve" smooth="yes"/>
      <point x="479" y="434"/>
      <point x="394" y="513"/>
      <point x="268" y="513" type="curve" smooth="yes"/>
      <point x="140" y="513"/>
      <point x="41" y="419"/>
      <point x="41" y="252" type="curve" smooth="yes"/>
      <point x="41" y="101"/>
      <point x="140" y="-5"/>
      <point x="299" y="-5" type="curve" smooth="yes"/>
      <point x="346" y="-5"/>
      <point x="410" y="6"/>
      <point x="447" y="27" type="curve"/>
      <point x="447" y="115" type="line"/>
      <point x="413" y="91"/>
      <point x="361" y="77"/>
      <point x="312" y="77" type="curve" smooth="yes"/>
      <point x="207" y="77"/>
      <point x="137" y="138"/>
      <point x="137" y="252" type="curve" smooth="yes"/>
      <point x="137" y="373"/>
      <point x="198" y="432"/>
      <point x="270" y="432" type="curve" smooth="yes"/>
      <point x="343" y="432"/>
      <point x="382" y="382"/>
      <point x="384" y="308" type="curve" smooth="yes"/>
      <point x="384" y="306"/>
      <point x="384" y="292"/>
      <point x="384" y="290" type="curve"/>
      <point x="103" y="290" type="line"/>
    </contour>
  </outline>
</glyph>
<glyph name="f" format="1">
  <advance width="334"/>
  <unicode hex="0066"/>
  <outline>
    <contour>
      <point x="330" y="622" type="line"/>
      <point x="314" y="629"/>
      <point x="298" y="632"/>
      <point x="282" y="632" type="curve" smooth="yes"/>
      <point x="242" y="632"/>
      <point x="209" y="609"/>
      <point x="209" y="545" type="curve" smooth="yes"/>
      <point x="209" y="0" type="line"/>
      <point x="111" y="0" type="line"/>
      <point x="111" y="546" type="line" smooth="yes"/>
      <point x="111" y="651"/>
      <point x="170" y="716"/>
      <point x="273" y="716" type="curve" smooth="yes"/>
      <point x="290" y="716"/>
      <point x="312" y="713"/>
      <point x="330" y="708" type="curve"/>
    </contour>
    <contour>
      <point x="30" y="507" type="line"/>
      <point x="316" y="507" type="line"/>
      <point x="316" y="431" type="line"/>
      <point x="30" y="431" type="line"/>
    </contour>
  </outline>
</glyph>
<glyph name="g" format="1">
  <advance width="559"/>
  <unicode hex="0067"/>
  <outline>
    <contour>
      <point x="94" y="-160" type="line"/>
      <point x="143" y="-184"/>
      <point x="204" y="-193"/>
      <point x="259" y="-193" type="curve" smooth="yes"/>
      <point x="388" y="-193"/>
      <point x="496" y="-122"/>
      <point x="496" y="43" type="curve" smooth="yes"/>
      <point x="496" y="507" type="line"/>
      <point x="398" y="507" type="line"/>
      <point x="398" y="44" type="line" smooth="yes"/>
      <point x="398" y="-60"/>
      <point x="342" y="-103"/>
      <point x="249" y="-103" type="curve" smooth="yes"/>
      <point x="196" y="-103"/>
      <point x="137" y="-89"/>
      <point x="94" y="-61" type="curve"/>
    </contour>
    <contour>
      <point x="251" y="514" type="curve" smooth="yes"/>
      <point x="124" y="514"/>
      <point x="43" y="404"/>
      <point x="43" y="257" type="curve" smooth="yes"/>
      <point x="43" y="94"/>
      <point x="145" y="14"/>
      <point x="251" y="14" type="curve" smooth="yes"/>
      <point x="370" y="14"/>
      <point x="434" y="110"/>
      <point x="434" y="252" type="curve" smooth="yes"/>
      <point x="434" y="253"/>
      <point x="434" y="256"/>
      <point x="434" y="257" type="curve" smooth="yes"/>
      <point x="434" y="388"/>
      <point x="389" y="514"/>
    </contour>
    <contour>
      <point x="269" y="98" type="curve" smooth="yes"/>
      <point x="208" y="98"/>
      <point x="146" y="147"/>
      <point x="146" y="259" type="curve" smooth="yes"/>
      <point x="146" y="359"/>
      <point x="193" y="428"/>
      <point x="273" y="428" type="curve" smooth="yes"/>
      <point x="334" y="428"/>
      <point x="398" y="381"/>
      <point x="398" y="252" type="curve" smooth="yes"/>
      <point x="398" y="148"/>
      <point x="333" y="98"/>
    </contour>
  </outline>
</glyph>
<glyph name="h" format="1">
  <advance width="551"/>
  <unicode hex="0068"/>
  <outline>
    <contour>
      <point x="69" y="0" type="line"/>
      <point x="167" y="0" type="line"/>
      <point x="167" y="707" type="line"/>
      <point x="69" y="707" type="line"/>
    </contour>
    <contour>
      <point x="390" y="0" type="line"/>
      <point x="488" y="0" type="line"/>
      <point x="488" y="340" type="line" smooth="yes"/>
      <point x="488" y="452"/>
      <point x="421" y="514"/>
      <point x="324" y="514" type="curve" smooth="yes"/>
      <point x="208" y="514"/>
      <point x="145" y="436"/>
      <point x="143" y="298" type="curve"/>
      <point x="167" y="275" type="line"/>
      <point x="167" y="388"/>
      <point x="237" y="429"/>
      <point x="294" y="429" type="curve" smooth="yes"/>
      <point x="349" y="429"/>
      <point x="390" y="391"/>
      <point x="390" y="320" type="curve" smooth="yes"/>
    </contour>
  </outline>
</glyph>
<glyph name="i" format="1">
  <advance width="245"/>
  <unicode hex="0069"/>
  <outline>
    <contour>
      <point x="73" y="0" type="line"/>
      <point x="172" y="0" type="line"/>
      <point x="172" y="507" type="line"/>
      <point x="73" y="507" type="line"/>
    </contour>
    <contour>
      <point x="61" y="662" type="curve" smooth="yes"/>
      <point x="61" y="628"/>
      <point x="88" y="601"/>
      <point x="122" y="601" type="curve" smooth="yes"/>
      <point x="156" y="601"/>
      <point x="184" y="628"/>
      <point x="184" y="662" type="curve" smooth="yes"/>
      <point x="184" y="697"/>
      <point x="156" y="724"/>
      <point x="122" y="724" type="curve" smooth="yes"/>
      <point x="88" y="724"/>
      <point x="61" y="697"/>
    </contour>
  </outline>
</glyph>
<glyph name="j" format="1">
  <advance width="242"/>
  <unicode hex="006A"/>
  <outline>
    <contour>
      <point x="-44" y="-181" type="line"/>
      <point x="-17" y="-191"/>
      <point x="4" y="-196"/>
      <point x="29" y="-196" type="curve" smooth="yes"/>
      <point x="122" y="-196"/>
      <point x="173" y="-138"/>
      <point x="173" y="-45" type="curve" smooth="yes"/>
      <point x="173" y="507" type="line"/>
      <point x="75" y="507" type="line"/>
      <point x="75" y="-43" type="line" smooth="yes"/>
      <point x="75" y="-95"/>
      <point x="53" y="-114"/>
      <point x="20" y="-114" type="curve" smooth="yes"/>
      <point x="1" y="-114"/>
      <point x="-22" y="-109"/>
      <point x="-44" y="-98" type="curve"/>
    </contour>
    <contour>
      <point x="62" y="662" type="curve" smooth="yes"/>
      <point x="62" y="628"/>
      <point x="89" y="601"/>
      <point x="123" y="601" type="curve" smooth="yes"/>
      <point x="157" y="601"/>
      <point x="185" y="628"/>
      <point x="185" y="662" type="curve" smooth="yes"/>
      <point x="185" y="697"/>
      <point x="157" y="724"/>
      <point x="123" y="724" type="curve" smooth="yes"/>
      <point x="89" y="724"/>
      <point x="62" y="697"/>
    </contour>
  </outline>
</glyph>
<glyph name="k" format="1">
  <advance width="500"/>
  <unicode hex="006B"/>
  <outline>
    <contour>
      <point x="171" y="265" type="line"/>
      <point x="284" y="265" type="line"/>
      <point x="477" y="507" type="line"/>
      <point x="362" y="507" type="line"/>
    </contour>
    <contour>
      <point x="69" y="0" type="line"/>
      <point x="167" y="0" type="line"/>
      <point x="167" y="700" type="line"/>
      <point x="69" y="700" type="line"/>
    </contour>
    <contour>
      <point x="366" y="0" type="line"/>
      <point x="483" y="0" type="line"/>
      <point x="284" y="265" type="line"/>
      <point x="171" y="265" type="line"/>
    </contour>
  </outline>
</glyph>
<glyph name="l" format="1">
  <advance width="245"/>
  <unicode hex="006C"/>
  <outline>
    <contour>
      <point x="73" y="0" type="line"/>
      <point x="172" y="0" type="line"/>
      <point x="172" y="707" type="line"/>
      <point x="73" y="707" type="line"/>
    </contour>
  </outline>
</glyph>
<glyph name="m" format="1">
  <advance width="830"/>
  <unicode hex="006D"/>
  <outline>
    <contour>
      <point x="69" y="0" type="line"/>
      <point x="167" y="0" type="line"/>
      <point x="167" y="507" type="line"/>
      <point x="69" y="507" type="line"/>
    </contour>
    <contour>
      <point x="369" y="0" type="line"/>
      <point x="467" y="0" type="line"/>
      <point x="467" y="341" type="line" smooth="yes"/>
      <point x="467" y="447"/>
      <point x="415" y="514"/>
      <point x="310" y="514" type="curve" smooth="yes"/>
      <point x="208" y="514"/>
      <point x="140" y="437"/>
      <point x="143" y="298" type="curve"/>
      <point x="167" y="275" type="line"/>
      <point x="167" y="385"/>
      <point x="230" y="429"/>
      <point x="280" y="429" type="curve" smooth="yes"/>
      <point x="340" y="429"/>
      <point x="369" y="389"/>
      <point x="369" y="320" type="curve" smooth="yes"/>
    </contour>
    <contour>
      <point x="668" y="0" type="line"/>
      <point x="766" y="0" type="line"/>
      <point x="766" y="341" type="line" smooth="yes"/>
      <point x="766" y="447"/>
      <point x="713" y="514"/>
      <point x="607" y="514" type="curve" smooth="yes"/>
      <point x="510" y="514"/>
      <point x="433" y="440"/>
      <point x="436" y="304" type="curve"/>
      <point x="467" y="275" type="line"/>
      <point x="467" y="385"/>
      <point x="529" y="429"/>
      <point x="580" y="429" type="curve" smooth="yes"/>
      <point x="639" y="429"/>
      <point x="668" y="389"/>
      <point x="668" y="320" type="curve" smooth="yes"/>
    </contour>
  </outline>
</glyph>
<glyph name="n" format="1">
  <advance width="551"/>
  <unicode hex="006E"/>
  <outline>
    <contour>
      <point x="69" y="0" type="line"/>
      <point x="167" y="0" type="line"/>
      <point x="167" y="507" type="line"/>
      <point x="69" y="507" type="line"/>
    </contour>
    <contour>
      <point x="390" y="0" type="line"/>
      <point x="488" y="0" type="line"/>
      <point x="488" y="343" type="line" smooth="yes"/>
      <point x="488" y="449"/>
      <point x="425" y="514"/>
      <point x="325" y="514" type="curve" smooth="yes"/>
      <point x="217" y="514"/>
      <point x="148" y="443"/>
      <point x="145" y="317" type="curve" smooth="yes"/>
      <point x="145" y="313"/>
      <point x="145" y="279"/>
      <point x="145" y="275" type="curve"/>
      <point x="167" y="275" type="line"/>
      <point x="167" y="377"/>
      <point x="228" y="429"/>
      <point x="293" y="429" type="curve" smooth="yes"/>
      <point x="350" y="429"/>
      <point x="390" y="393"/>
      <point x="390" y="320" type="curve" smooth="yes"/>
    </contour>
  </outline>
</glyph>
<glyph name="o" format="1">
  <advance width="564"/>
  <unicode hex="006F"/>
  <outline>
    <contour>
      <point x="281" y="-9" type="curve" smooth="yes"/>
      <point x="437" y="-9"/>
      <point x="523" y="107"/>
      <point x="523" y="253" type="curve" smooth="yes"/>
      <point x="523" y="398"/>
      <point x="441" y="514"/>
      <point x="281" y="514" type="curve" smooth="yes"/>
      <point x="134" y="514"/>
      <point x="41" y="398"/>
      <point x="41" y="249" type="curve" smooth="yes"/>
      <point x="41" y="106"/>
      <point x="126" y="-9"/>
    </contour>
    <contour>
      <point x="280" y="431" type="curve" smooth="yes"/>
      <point x="382" y="431"/>
      <point x="420" y="347"/>
      <point x="420" y="251" type="curve" smooth="yes"/>
      <point x="420" y="155"/>
      <point x="376" y="74"/>
      <point x="281" y="74" type="curve" smooth="yes"/>
      <point x="193" y="74"/>
      <point x="143" y="156"/>
      <point x="143" y="252" type="curve" smooth="yes"/>
      <point x="143" y="347"/>
      <point x="189" y="431"/>
    </contour>
  </outline>
</glyph>
<glyph name="p" format="1">
  <advance width="580"/>
  <unicode hex="0070"/>
  <outline>
    <contour>
      <point x="69" y="-194" type="line"/>
      <point x="167" y="-194" type="line"/>
      <point x="167" y="507" type="line"/>
      <point x="69" y="507" type="line"/>
    </contour>
    <contour>
      <point x="167" y="255" type="curve" smooth="yes"/>
      <point x="167" y="385"/>
      <point x="241" y="428"/>
      <point x="307" y="428" type="curve" smooth="yes"/>
      <point x="381" y="428"/>
      <point x="438" y="364"/>
      <point x="438" y="256" type="curve" smooth="yes"/>
      <point x="438" y="140"/>
      <point x="379" y="79"/>
      <point x="303" y="79" type="curve" smooth="yes"/>
      <point x="242" y="79"/>
      <point x="167" y="127"/>
    </contour>
    <contour>
      <point x="124" y="254" type="curve" smooth="yes"/>
      <point x="124" y="91"/>
      <point x="200" y="-7"/>
      <point x="321" y="-7" type="curve" smooth="yes"/>
      <point x="455" y="-7"/>
      <point x="539" y="106"/>
      <point x="539" y="257" type="curve" smooth="yes"/>
      <point x="539" y="403"/>
      <point x="459" y="514"/>
      <point x="323" y="514" type="curve" smooth="yes"/>
      <point x="186" y="514"/>
      <point x="124" y="395"/>
    </contour>
  </outline>
</glyph>
<glyph name="q" format="1">
  <advance width="580"/>
  <unicode hex="0071"/>
  <outline>
    <contour>
      <point x="511" y="507" type="line"/>
      <point x="412" y="507" type="line"/>
      <point x="412" y="-194" type="line"/>
      <point x="511" y="-194" type="line"/>
    </contour>
    <contour>
      <point x="412" y="255" type="curve" smooth="yes"/>
      <point x="412" y="127"/>
      <point x="339" y="79"/>
      <point x="277" y="79" type="curve" smooth="yes"/>
      <point x="203" y="79"/>
      <point x="142" y="141"/>
      <point x="142" y="256" type="curve" smooth="yes"/>
      <point x="142" y="362"/>
      <point x="200" y="428"/>
      <point x="274" y="428" type="curve" smooth="yes"/>
      <point x="339" y="428"/>
      <point x="412" y="385"/>
    </contour>
    <contour>
      <point x="456" y="254" type="curve" smooth="yes"/>
      <point x="456" y="396"/>
      <point x="393" y="514"/>
      <point x="258" y="514" type="curve" smooth="yes"/>
      <point x="121" y="514"/>
      <point x="41" y="403"/>
      <point x="41" y="257" type="curve" smooth="yes"/>
      <point x="41" y="106"/>
      <point x="125" y="-7"/>
      <point x="259" y="-7" type="curve" smooth="yes"/>
      <point x="376" y="-7"/>
      <point x="456" y="91"/>
    </contour>
  </outline>
</glyph>
<glyph name="r" format="1">
  <advance width="339"/>
  <unicode hex="0072"/>
  <outline>
    <contour>
      <point x="69" y="0" type="line"/>
      <point x="167" y="0" type="line"/>
      <point x="167" y="507" type="line"/>
      <point x="69" y="507" type="line"/>
    </contour>
    <contour>
      <point x="331" y="509" type="line"/>
      <point x="320" y="511"/>
      <point x="310" y="512"/>
      <point x="300" y="512" type="curve" smooth="yes"/>
      <point x="194" y="512"/>
      <point x="149" y="419"/>
      <point x="148" y="309" type="curve"/>
      <point x="167" y="270" type="line"/>
      <point x="167" y="350"/>
      <point x="214" y="422"/>
      <point x="284" y="422" type="curve" smooth="yes"/>
      <point x="300" y="422"/>
      <point x="315" y="420"/>
      <point x="331" y="413" type="curve"/>
    </contour>
  </outline>
</glyph>
<glyph name="s" format="1">
  <advance width="419"/>
  <unicode hex="0073"/>
  <outline>
    <contour>
      <point x="358" y="490" type="line"/>
      <point x="331" y="503"/>
      <point x="285" y="512"/>
      <point x="230" y="512" type="curve" smooth="yes"/>
      <point x="134" y="512"/>
      <point x="55" y="461"/>
      <point x="55" y="369" type="curve" smooth="yes"/>
      <point x="55" y="287"/>
      <point x="116" y="249"/>
      <point x="174" y="225" type="curve" smooth="yes"/>
      <point x="238" y="198"/>
      <point x="285" y="179"/>
      <point x="285" y="133" type="curve" smooth="yes"/>
      <point x="285" y="99"/>
      <point x="257" y="75"/>
      <point x="203" y="75" type="curve" smooth="yes"/>
      <point x="151" y="75"/>
      <point x="97" y="94"/>
      <point x="58" y="118" type="curve"/>
      <point x="58" y="25" type="line"/>
      <point x="90" y="9"/>
      <point x="147" y="-5"/>
      <point x="208" y="-5" type="curve" smooth="yes"/>
      <point x="316" y="-5"/>
      <point x="386" y="48"/>
      <point x="386" y="140" type="curve" smooth="yes"/>
      <point x="386" y="219"/>
      <point x="325" y="256"/>
      <point x="260" y="285" type="curve" smooth="yes"/>
      <point x="207" y="309"/>
      <point x="156" y="327"/>
      <point x="156" y="372" type="curve" smooth="yes"/>
      <point x="156" y="406"/>
      <point x="184" y="430"/>
      <point x="232" y="430" type="curve" smooth="yes"/>
      <point x="281" y="430"/>
      <point x="329" y="418"/>
      <point x="358" y="401" type="curve"/>
    </contour>
  </outline>
</glyph>
<glyph name="u" format="1">
  <advance width="551"/>
  <unicode hex="0075"/>
  <outline>
    <contour>
      <point x="482" y="507" type="line"/>
      <point x="384" y="507" type="line"/>
      <point x="384" y="0" type="line"/>
      <point x="482" y="0" type="line"/>
    </contour>
    <contour>
      <point x="162" y="507" type="line"/>
      <point x="63" y="507" type="line"/>
      <point x="63" y="161" type="line" smooth="yes"/>
      <point x="63" y="56"/>
      <point x="126" y="-6"/>
      <point x="226" y="-6" type="curve" smooth="yes"/>
      <point x="337" y="-6"/>
      <point x="404" y="60"/>
      <point x="402" y="193" type="curve"/>
      <point x="384" y="231" type="line"/>
      <point x="384" y="132"/>
      <point x="333" y="78"/>
      <point x="258" y="78" type="curve" smooth="yes"/>
      <point x="200" y="78"/>
      <point x="162" y="114"/>
      <point x="162" y="185" type="curve" smooth="yes"/>
    </contour>
  </outline>
</glyph>
<glyph name="v" format="1">
  <advance width="514"/>
  <unicode hex="0076"/>
  <outline>
    <contour>
      <point x="19" y="507" type="line"/>
      <point x="122" y="507" type="line"/>
      <point x="191" y="293" type="line" smooth="yes"/>
      <point x="245" y="126"/>
      <point x="256" y="77"/>
      <point x="256" y="77" type="curve"/>
      <point x="256" y="77"/>
      <point x="265" y="126"/>
      <point x="322" y="293" type="curve" smooth="yes"/>
      <point x="393" y="507" type="line"/>
      <point x="495" y="507" type="line"/>
      <point x="311" y="0" type="line"/>
      <point x="199" y="0" type="line"/>
    </contour>
  </outline>
</glyph>
<glyph name="w" format="1">
  <advance width="796"/>
  <unicode hex="0077"/>
  <outline>
    <contour>
      <point x="19" y="507" type="line"/>
      <point x="123" y="507" type="line"/>
      <point x="170" y="339" type="line" smooth="yes"/>
      <point x="222" y="158"/>
      <point x="233" y="95"/>
      <point x="233" y="95" type="curve"/>
      <point x="233" y="95"/>
      <point x="246" y="158"/>
      <point x="299" y="340" type="curve" smooth="yes"/>
      <point x="348" y="507" type="line"/>
      <point x="443" y="507" type="line"/>
      <point x="493" y="340" type="line" smooth="yes"/>
      <point x="548" y="153"/>
      <point x="560" y="94"/>
      <point x="560" y="94" type="curve"/>
      <point x="560" y="94"/>
      <point x="572" y="153"/>
      <point x="628" y="340" type="curve" smooth="yes"/>
      <point x="678" y="507" type="line"/>
      <point x="777" y="507" type="line"/>
      <point x="616" y="0" type="line"/>
      <point x="504" y="0" type="line"/>
      <point x="457" y="166" type="line" smooth="yes"/>
      <point x="409" y="336"/>
      <point x="396" y="400"/>
      <point x="396" y="400" type="curve"/>
      <point x="396" y="400"/>
      <point x="382" y="335"/>
      <point x="335" y="166" type="curve" smooth="yes"/>
      <point x="289" y="0" type="line"/>
      <point x="178" y="0" type="line"/>
    </contour>
  </outline>
</glyph>
<glyph name="x" format="1">
  <advance width="492"/>
  <unicode hex="0078"/>
  <outline>
    <contour>
      <point x="469" y="0" type="line"/>
      <point x="358" y="0" type="line"/>
      <point x="247" y="186" type="line"/>
      <point x="130" y="0" type="line"/>
      <point x="22" y="0" type="line"/>
      <point x="195" y="258" type="line"/>
      <point x="33" y="508" type="line"/>
      <point x="144" y="508" type="line"/>
      <point x="250" y="329" type="line"/>
      <point x="359" y="508" type="line"/>
      <point x="469" y="508" type="line"/>
      <point x="300" y="257" type="line"/>
    </contour>
  </outline>
</glyph>
<glyph name="y" format="1">
  <advance width="504"/>
  <unicode hex="0079"/>
  <outline>
    <contour>
      <point x="7" y="507" type="line"/>
      <point x="116" y="507" type="line"/>
      <point x="179" y="342" type="line" smooth="yes"/>
      <point x="250" y="158"/>
      <point x="258" y="128"/>
      <point x="258" y="128" type="curve"/>
      <point x="258" y="128"/>
      <point x="267" y="158"/>
      <point x="330" y="342" type="curve" smooth="yes"/>
      <point x="387" y="507" type="line"/>
      <point x="491" y="507" type="line"/>
      <point x="308" y="14" type="line" smooth="yes"/>
      <point x="253" y="-133"/>
      <point x="175" y="-181"/>
      <point x="85" y="-181" type="curve" smooth="yes"/>
      <point x="68" y="-181"/>
      <point x="54" y="-180"/>
      <point x="39" y="-176" type="curve"/>
      <point x="39" y="-92" type="line"/>
      <point x="51" y="-95"/>
      <point x="63" y="-96"/>
      <point x="73" y="-96" type="curve" smooth="yes"/>
      <point x="138" y="-96"/>
      <point x="183" y="-60"/>
      <point x="209" y="11" type="curve"/>
    </contour>
  </outline>
</glyph>
<glyph name="z" format="1">
  <advance width="461"/>
  <unicode hex="007A"/>
  <outline>
    <contour>
      <point x="405" y="507" type="line"/>
      <point x="52" y="507" type="line"/>
      <point x="52" y="425" type="line"/>
      <point x="289" y="425" type="line"/>
      <point x="43" y="75" type="line"/>
      <point x="43" y="0" type="line"/>
      <point x="418" y="0" type="line"/>
      <point x="418" y="83" type="line"/>
      <point x="156" y="83" type="line"/>
      <point x="405" y="437" type="line"/>
    </contour>
  </outline>
</glyph>
<glyph name="braceleft" format="1">
  <advance width="348"/>
  <unicode hex="007B"/>
  <outline>
    <contour>
      <point x="137" y="260" type="curve"/>
      <point x="212" y="271"/>
      <point x="257" y="330"/>
      <point x="257" y="405" type="curve" smooth="yes"/>
      <point x="257" y="459"/>
      <point x="239" y="504"/>
      <point x="239" y="551" type="curve" smooth="yes"/>
      <point x="239" y="589"/>
      <point x="260" y="619"/>
      <point x="298" y="619" type="curve" smooth="yes"/>
      <point x="308" y="619"/>
      <point x="320" y="616"/>
      <point x="331" y="610" type="curve"/>
      <point x="331" y="610"/>
      <point x="331" y="705"/>
      <point x="331" y="704" type="curve"/>
      <point x="313" y="710"/>
      <point x="295" y="713"/>
      <point x="278" y="713" type="curve" smooth="yes"/>
      <point x="202" y="713"/>
      <point x="140" y="651"/>
      <point x="140" y="555" type="curve" smooth="yes"/>
      <point x="140" y="506"/>
      <point x="158" y="463"/>
      <point x="158" y="420" type="curve" smooth="yes"/>
      <point x="158" y="366"/>
      <point x="129" y="315"/>
      <point x="71" y="309" type="curve" smooth="yes"/>
      <point x="60" y="308"/>
      <point x="51" y="308"/>
      <point x="46" y="308" type="curve"/>
      <point x="46" y="212" type="line"/>
      <point x="51" y="212"/>
      <point x="62" y="212"/>
      <point x="71" y="211" type="curve" smooth="yes"/>
      <point x="132" y="202"/>
      <point x="158" y="153"/>
      <point x="158" y="99" type="curve" smooth="yes"/>
      <point x="158" y="56"/>
      <point x="140" y="13"/>
      <point x="140" y="-36" type="curve" smooth="yes"/>
      <point x="140" y="-132"/>
      <point x="202" y="-194"/>
      <point x="278" y="-194" type="curve" smooth="yes"/>
      <point x="295" y="-194"/>
      <point x="313" y="-191"/>
      <point x="331" y="-185" type="curve"/>
      <point x="331" y="-185"/>
      <point x="331" y="-91"/>
      <point x="331" y="-91" type="curve"/>
      <point x="320" y="-97"/>
      <point x="308" y="-100"/>
      <point x="298" y="-100" type="curve" smooth="yes"/>
      <point x="260" y="-100"/>
      <point x="239" y="-70"/>
      <point x="239" y="-31" type="curve" smooth="yes"/>
      <point x="239" y="15"/>
      <point x="257" y="60"/>
      <point x="257" y="114" type="curve" smooth="yes"/>
      <point x="257" y="189"/>
      <point x="212" y="249"/>
    </contour>
  </outline>
</glyph>
<glyph name="bar" format="1">
  <advance width="243"/>
  <unicode hex="007C"/>
  <outline>
    <contour>
      <point x="76" y="-194" type="line"/>
      <point x="167" y="-194" type="line"/>
      <point x="167" y="695" type="line"/>
      <point x="76" y="695" type="line"/>
    </contour>
  </outline>
</glyph>
<glyph name="braceright" format="1">
  <advance width="348"/>
  <unicode hex="007D"/>
  <outline>
    <contour>
      <point x="210" y="260" type="curve"/>
      <point x="136" y="249"/>
      <point x="91" y="189"/>
      <point x="91" y="114" type="curve" smooth="yes"/>
      <point x="91" y="60"/>
      <point x="109" y="15"/>
      <point x="109" y="-31" type="curve" smooth="yes"/>
      <point x="109" y="-70"/>
      <point x="87" y="-100"/>
      <point x="49" y="-100" type="curve" smooth="yes"/>
      <point x="39" y="-100"/>
      <point x="27" y="-97"/>
      <point x="17" y="-91" type="curve"/>
      <point x="17" y="-91"/>
      <point x="17" y="-185"/>
      <point x="17" y="-185" type="curve"/>
      <point x="35" y="-191"/>
      <point x="52" y="-194"/>
      <point x="69" y="-194" type="curve" smooth="yes"/>
      <point x="146" y="-194"/>
      <point x="207" y="-132"/>
      <point x="207" y="-36" type="curve" smooth="yes"/>
      <point x="207" y="13"/>
      <point x="189" y="56"/>
      <point x="189" y="99" type="curve" smooth="yes"/>
      <point x="189" y="153"/>
      <point x="216" y="202"/>
      <point x="277" y="211" type="curve" smooth="yes"/>
      <point x="285" y="212"/>
      <point x="297" y="212"/>
      <point x="302" y="212" type="curve"/>
      <point x="302" y="308" type="line"/>
      <point x="297" y="308"/>
      <point x="287" y="308"/>
      <point x="277" y="309" type="curve" smooth="yes"/>
      <point x="218" y="315"/>
      <point x="189" y="366"/>
      <point x="189" y="420" type="curve" smooth="yes"/>
      <point x="189" y="463"/>
      <point x="207" y="506"/>
      <point x="207" y="555" type="curve" smooth="yes"/>
      <point x="207" y="651"/>
      <point x="146" y="713"/>
      <point x="69" y="713" type="curve" smooth="yes"/>
      <point x="52" y="713"/>
      <point x="35" y="710"/>
      <point x="17" y="704" type="curve"/>
      <point x="17" y="705"/>
      <point x="17" y="610"/>
      <point x="17" y="610" type="curve"/>
      <point x="27" y="616"/>
      <point x="39" y="619"/>
      <point x="49" y="619" type="curve" smooth="yes"/>
      <point x="87" y="619"/>
      <point x="109" y="589"/>
      <point x="109" y="551" type="curve" smooth="yes"/>
      <point x="109" y="504"/>
      <point x="91" y="459"/>
      <point x="91" y="405" type="curve" smooth="yes"/>
      <point x="91" y="330"/>
      <point x="136" y="271"/>
    </contour>
  </outline>
</glyph>
<glyph name="asciitilde" format="1">
  <advance width="615"/>
  <unicode hex="007E"/>
  <outline>
    <contour>
      <point x="510" y="341" type="line"/>
      <point x="486" y="306"/>
      <point x="458" y="282"/>
      <point x="415" y="282" type="curve" smooth="yes"/>
      <point x="347" y="282"/>
      <point x="300" y="348"/>
      <point x="194" y="348" type="curve" smooth="yes"/>
      <point x="131" y="348"/>
      <point x="74" y="306"/>
      <point x="34" y="249" type="curve"/>
      <point x="100" y="193" type="line"/>
      <point x="134" y="239"/>
      <point x="168" y="259"/>
      <point x="212" y="259" type="curve" smooth="yes"/>
      <point x="278" y="259"/>
      <point x="335" y="192"/>
      <point x="429" y="192" type="curve" smooth="yes"/>
      <point x="500" y="192"/>
      <point x="547" y="236"/>
      <point x="581" y="288" type="curve"/>
    </contour>
  </outline>
</glyph>
<glyph name="exclamdown" format="1">
  <advance width="262"/>
  <unicode hex="00A1"/>
  <outline>
    <contour>
      <point x="83" y="295" type="line"/>
      <point x="179" y="295" type="line"/>
      <point x="179" y="-165" type="line"/>
      <point x="83" y="-165" type="line"/>
    </contour>
    <contour>
      <point x="62" y="449" type="curve" smooth="yes"/>
      <point x="62" y="488"/>
      <point x="91" y="517"/>
      <point x="130" y="517" type="curve" smooth="yes"/>
      <point x="168" y="517"/>
      <point x="199" y="488"/>
      <point x="199" y="449" type="curve" smooth="yes"/>
      <point x="199" y="411"/>
      <point x="168" y="380"/>
      <point x="130" y="380" type="curve" smooth="yes"/>
      <point x="91" y="380"/>
      <point x="62" y="411"/>
    </contour>
  </outline>
</glyph>
<glyph name="cent" format="1">
  <advance width="460"/>
  <unicode hex="00A2"/>
  <outline>
    <contour>
      <point x="142" y="251" type="curve" smooth="yes"/>
      <point x="143" y="353"/>
      <point x="212" y="427"/>
      <point x="318" y="427" type="curve" smooth="yes"/>
      <point x="352" y="427"/>
      <point x="388" y="418"/>
      <point x="420" y="400" type="curve"/>
      <point x="420" y="488" type="line"/>
      <point x="380" y="507"/>
      <point x="342" y="513"/>
      <point x="308" y="513" type="curve" smooth="yes"/>
      <point x="138" y="513"/>
      <point x="42" y="390"/>
      <point x="41" y="252" type="curve" smooth="yes"/>
      <point x="41" y="108"/>
      <point x="142" y="-8"/>
      <point x="304" y="-8" type="curve" smooth="yes"/>
      <point x="344" y="-8"/>
      <point x="384" y="0"/>
      <point x="420" y="17" type="curve"/>
      <point x="420" y="105" type="line"/>
      <point x="389" y="87"/>
      <point x="351" y="77"/>
      <point x="318" y="77" type="curve" smooth="yes"/>
      <point x="206" y="77"/>
      <point x="144" y="153"/>
    </contour>
    <contour>
      <point x="341" y="448" type="line"/>
      <point x="341" y="617" type="line"/>
      <point x="257" y="617" type="line"/>
      <point x="257" y="448" type="line"/>
    </contour>
    <contour>
      <point x="257" y="61" type="line"/>
      <point x="257" y="-111" type="line"/>
      <point x="341" y="-111" type="line"/>
      <point x="341" y="61" type="line"/>
    </contour>
  </outline>
</glyph>
<glyph name="sterling" format="1">
  <advance width="527"/>
  <unicode hex="00A3"/>
  <outline>
    <contour>
      <point x="56" y="82" type="line"/>
      <point x="128" y="117"/>
      <point x="148" y="164"/>
      <point x="148" y="250" type="curve"/>
      <point x="148" y="310"/>
      <point x="131" y="385"/>
      <point x="131" y="441" type="curve"/>
      <point x="131" y="579"/>
      <point x="206" y="659"/>
      <point x="343" y="659" type="curve" smooth="yes"/>
      <point x="388" y="659"/>
      <point x="430" y="649"/>
      <point x="460" y="632" type="curve"/>
      <point x="460" y="536" type="line"/>
      <point x="428" y="556"/>
      <point x="396" y="566"/>
      <point x="358" y="566" type="curve" smooth="yes"/>
      <point x="279" y="566"/>
      <point x="236" y="528"/>
      <point x="236" y="441" type="curve"/>
      <point x="236" y="381"/>
      <point x="251" y="309"/>
      <point x="251" y="250" type="curve"/>
      <point x="251" y="156"/>
      <point x="221" y="113"/>
      <point x="177" y="85" type="curve"/>
      <point x="490" y="85" type="line"/>
      <point x="490" y="0" type="line"/>
      <point x="56" y="0" type="line"/>
    </contour>
    <contour>
      <point x="60" y="360" type="line"/>
      <point x="418" y="360" type="line"/>
      <point x="418" y="285" type="line"/>
      <point x="60" y="285" type="line"/>
    </contour>
  </outline>
</glyph>
<glyph name="currency" format="1">
  <advance width="551"/>
  <unicode hex="00A4"/>
  <outline>
    <contour>
      <point x="56" y="310" type="curve" smooth="yes"/>
      <point x="56" y="264"/>
      <point x="68" y="221"/>
      <point x="91" y="188" type="curve"/>
      <point x="32" y="130" type="line"/>
      <point x="93" y="71" type="line"/>
      <point x="151" y="129" type="line"/>
      <point x="185" y="107"/>
      <point x="227" y="96"/>
      <point x="274" y="96" type="curve" smooth="yes"/>
      <point x="320" y="96"/>
      <point x="363" y="108"/>
      <point x="397" y="131" type="curve"/>
      <point x="459" y="71" type="line"/>
      <point x="519" y="130" type="line"/>
      <point x="458" y="190" type="line"/>
      <point x="481" y="224"/>
      <point x="496" y="268"/>
      <point x="496" y="314" type="curve" smooth="yes"/>
      <point x="496" y="359"/>
      <point x="482" y="401"/>
      <point x="461" y="434" type="curve"/>
      <point x="519" y="492" type="line"/>
      <point x="459" y="551" type="line"/>
      <point x="401" y="494" type="line"/>
      <point x="366" y="515"/>
      <point x="325" y="528"/>
      <point x="278" y="528" type="curve" smooth="yes"/>
      <point x="231" y="528"/>
      <point x="188" y="515"/>
      <point x="153" y="491" type="curve"/>
      <point x="93" y="551" type="line"/>
      <point x="32" y="492" type="line"/>
      <point x="92" y="432" type="line"/>
      <point x="70" y="398"/>
      <point x="56" y="355"/>
    </contour>
    <contour>
      <point x="140" y="312" type="curve" smooth="yes"/>
      <point x="140" y="389"/>
      <point x="196" y="449"/>
      <point x="276" y="449" type="curve" smooth="yes"/>
      <point x="356" y="449"/>
      <point x="412" y="389"/>
      <point x="412" y="312" type="curve" smooth="yes"/>
      <point x="412" y="234"/>
      <point x="356" y="175"/>
      <point x="276" y="175" type="curve" smooth="yes"/>
      <point x="196" y="175"/>
      <point x="140" y="235"/>
    </contour>
  </outline>
</glyph>
<glyph name="yen" format="1">
  <advance width="600"/>
  <unicode hex="00A5"/>
  <outline>
    <contour>
      <point x="266" y="294" type="line"/>
      <point x="70" y="294" type="line"/>
      <point x="70" y="362" type="line"/>
      <point x="266" y="362" type="line"/>
    </contour>
    <contour>
      <point x="70" y="213" type="line"/>
      <point x="526" y="213" type="line"/>
      <point x="526" y="145" type="line"/>
      <point x="70" y="145" type="line"/>
    </contour>
    <contour>
      <point x="253" y="241" type="line"/>
      <point x="26" y="654" type="line"/>
      <point x="144" y="654" type="line"/>
      <point x="297" y="354" type="line"/>
      <point x="454" y="654" type="line"/>
      <point x="571" y="654" type="line"/>
      <point x="342" y="241" type="line"/>
    </contour>
    <contour>
      <point x="246" y="264" type="line"/>
      <point x="349" y="264" type="line"/>
      <point x="349" y="0" type="line"/>
      <point x="246" y="0" type="line"/>
    </contour>
    <contour>
      <point x="526" y="294" type="line"/>
      <point x="329" y="294" type="line"/>
      <point x="329" y="362" type="line"/>
      <point x="526" y="362" type="line"/>
    </contour>
  </outline>
</glyph>
<glyph name="brokenbar" format="1">
  <advance width="243"/>
  <unicode hex="00A6"/>
  <outline>
    <contour>
      <point x="167" y="367" type="line"/>
      <point x="167" y="700" type="line"/>
      <point x="76" y="700" type="line"/>
      <point x="76" y="367" type="line"/>
    </contour>
    <contour>
      <point x="167" y="-160" type="line"/>
      <point x="167" y="173" type="line"/>
      <point x="76" y="173" type="line"/>
      <point x="76" y="-160" type="line"/>
    </contour>
  </outline>
</glyph>
<glyph name="section" format="1">
  <advance width="537"/>
  <unicode hex="00A7"/>
  <outline>
    <contour>
      <point x="414" y="63" type="line"/>
      <point x="453" y="90"/>
      <point x="479" y="142"/>
      <point x="479" y="201" type="curve" smooth="yes"/>
      <point x="479" y="310"/>
      <point x="403" y="352"/>
      <point x="319" y="392" type="curve" smooth="yes"/>
      <point x="227" y="437"/>
      <point x="167" y="449"/>
      <point x="167" y="508" type="curve" smooth="yes"/>
      <point x="167" y="558"/>
      <point x="208" y="588"/>
      <point x="283" y="588" type="curve" smooth="yes"/>
      <point x="336" y="588"/>
      <point x="395" y="570"/>
      <point x="435" y="546" type="curve"/>
      <point x="435" y="648" type="line"/>
      <point x="389" y="671"/>
      <point x="331" y="680"/>
      <point x="280" y="680" type="curve" smooth="yes"/>
      <point x="153" y="680"/>
      <point x="60" y="619"/>
      <point x="60" y="505" type="curve" smooth="yes"/>
      <point x="60" y="398"/>
      <point x="158" y="368"/>
      <point x="245" y="326" type="curve" smooth="yes"/>
      <point x="323" y="288"/>
      <point x="380" y="264"/>
      <point x="380" y="202" type="curve" smooth="yes"/>
      <point x="380" y="170"/>
      <point x="367" y="142"/>
      <point x="340" y="121" type="curve"/>
    </contour>
    <contour>
      <point x="104" y="421" type="line"/>
      <point x="73" y="389"/>
      <point x="53" y="348"/>
      <point x="53" y="297" type="curve" smooth="yes"/>
      <point x="53" y="189"/>
      <point x="136" y="142"/>
      <point x="223" y="103" type="curve" smooth="yes"/>
      <point x="332" y="55"/>
      <point x="370" y="33"/>
      <point x="370" y="-19" type="curve" smooth="yes"/>
      <point x="370" y="-77"/>
      <point x="325" y="-107"/>
      <point x="250" y="-107" type="curve" smooth="yes"/>
      <point x="185" y="-107"/>
      <point x="118" y="-86"/>
      <point x="67" y="-48" type="curve"/>
      <point x="67" y="-155" type="line"/>
      <point x="116" y="-184"/>
      <point x="185" y="-198"/>
      <point x="251" y="-198" type="curve" smooth="yes"/>
      <point x="382" y="-198"/>
      <point x="475" y="-135"/>
      <point x="475" y="-18" type="curve" smooth="yes"/>
      <point x="475" y="94"/>
      <point x="373" y="139"/>
      <point x="288" y="176" type="curve" smooth="yes"/>
      <point x="208" y="211"/>
      <point x="153" y="237"/>
      <point x="153" y="297" type="curve" smooth="yes"/>
      <point x="153" y="322"/>
      <point x="164" y="351"/>
      <point x="187" y="371" type="curve"/>
    </contour>
  </outline>
</glyph>
<glyph name="dieresis" format="1">
  <advance width="444"/>
  <unicode hex="00A8"/>
  <outline>
    <contour>
      <point x="51" y="719" type="curve" smooth="yes"/>
      <point x="51" y="685"/>
      <point x="76" y="659"/>
      <point x="112" y="659" type="curve" smooth="yes"/>
      <point x="146" y="659"/>
      <point x="172" y="685"/>
      <point x="172" y="719" type="curve" smooth="yes"/>
      <point x="172" y="753"/>
      <point x="146" y="779"/>
      <point x="112" y="779" type="curve" smooth="yes"/>
      <point x="76" y="779"/>
      <point x="51" y="753"/>
    </contour>
    <contour>
      <point x="272" y="719" type="curve" smooth="yes"/>
      <point x="272" y="685"/>
      <point x="298" y="659"/>
      <point x="332" y="659" type="curve" smooth="yes"/>
      <point x="367" y="659"/>
      <point x="393" y="685"/>
      <point x="393" y="719" type="curve" smooth="yes"/>
      <point x="393" y="753"/>
      <point x="367" y="779"/>
      <point x="332" y="779" type="curve" smooth="yes"/>
      <point x="298" y="779"/>
      <point x="272" y="753"/>
    </contour>
  </outline>
</glyph>
<glyph name="copyright" format="1">
  <advance width="772"/>
  <unicode hex="00A9"/>
  <outline>
    <contour>
      <point x="41" y="337" type="curve" smooth="yes"/>
      <point x="41" y="148"/>
      <point x="197" y="-9"/>
      <point x="386" y="-9" type="curve" smooth="yes"/>
      <point x="575" y="-9"/>
      <point x="731" y="148"/>
      <point x="731" y="337" type="curve" smooth="yes"/>
      <point x="731" y="526"/>
      <point x="575" y="682"/>
      <point x="386" y="682" type="curve" smooth="yes"/>
      <point x="197" y="682"/>
      <point x="41" y="526"/>
    </contour>
    <contour>
      <point x="116" y="336" type="curve" smooth="yes"/>
      <point x="116" y="487"/>
      <point x="235" y="607"/>
      <point x="387" y="607" type="curve" smooth="yes"/>
      <point x="537" y="607"/>
      <point x="656" y="487"/>
      <point x="656" y="336" type="curve" smooth="yes"/>
      <point x="656" y="185"/>
      <point x="537" y="66"/>
      <point x="387" y="66" type="curve" smooth="yes"/>
      <point x="235" y="66"/>
      <point x="116" y="185"/>
    </contour>
    <contour>
      <point x="305" y="335" type="curve" smooth="yes"/>
      <point x="305" y="404"/>
      <point x="353" y="447"/>
      <point x="414" y="447" type="curve" smooth="yes"/>
      <point x="438" y="447"/>
      <point x="470" y="440"/>
      <point x="493" y="425" type="curve"/>
      <point x="493" y="498" type="line"/>
      <point x="464" y="514"/>
      <point x="431" y="519"/>
      <point x="408" y="519" type="curve" smooth="yes"/>
      <point x="290" y="519"/>
      <point x="223" y="433"/>
      <point x="223" y="335" type="curve" smooth="yes"/>
      <point x="223" y="234"/>
      <point x="296" y="154"/>
      <point x="405" y="154" type="curve" smooth="yes"/>
      <point x="436" y="154"/>
      <point x="471" y="162"/>
      <point x="493" y="175" type="curve"/>
      <point x="493" y="249" type="line"/>
      <point x="472" y="234"/>
      <point x="442" y="224"/>
      <point x="413" y="224" type="curve" smooth="yes"/>
      <point x="350" y="224"/>
      <point x="306" y="271"/>
    </contour>
  </outline>
</glyph>
<glyph name="ordfeminine" format="1">
  <advance width="365"/>
  <unicode hex="00AA"/>
  <outline>
    <contour>
      <point x="251" y="531" type="line"/>
      <point x="251" y="489"/>
      <point x="216" y="454"/>
      <point x="164" y="454" type="curve" smooth="yes"/>
      <point x="115" y="454"/>
      <point x="90" y="479"/>
      <point x="90" y="516" type="curve" smooth="yes"/>
      <point x="90" y="558"/>
      <point x="127" y="582"/>
      <point x="194" y="582" type="curve" smooth="yes"/>
      <point x="269" y="582" type="line"/>
      <point x="269" y="644" type="line"/>
      <point x="181" y="644" type="line" smooth="yes"/>
      <point x="69" y="644"/>
      <point x="4" y="594"/>
      <point x="4" y="513" type="curve" smooth="yes"/>
      <point x="4" y="438"/>
      <point x="56" y="388"/>
      <point x="138" y="388" type="curve" smooth="yes"/>
      <point x="193" y="388"/>
      <point x="232" y="414"/>
      <point x="253" y="445" type="curve"/>
      <point x="253" y="392" type="line"/>
      <point x="335" y="392" type="line"/>
      <point x="335" y="664" type="line" smooth="yes"/>
      <point x="335" y="770"/>
      <point x="285" y="826"/>
      <point x="168" y="826" type="curve" smooth="yes"/>
      <point x="115" y="826"/>
      <point x="64" y="813"/>
      <point x="36" y="797" type="curve"/>
      <point x="36" y="718" type="line"/>
      <point x="68" y="740"/>
      <point x="116" y="755"/>
      <point x="159" y="755" type="curve" smooth="yes"/>
      <point x="229" y="755"/>
      <point x="251" y="721"/>
      <point x="251" y="666" type="curve" smooth="yes"/>
    </contour>
  </outline>
</glyph>
<glyph name="guillemotleft" format="1">
  <advance width="512"/>
  <unicode hex="00AB"/>
  <outline>
    <contour>
      <point x="27" y="253" type="line"/>
      <point x="177" y="415" type="line"/>
      <point x="284" y="415" type="line"/>
      <point x="137" y="253" type="line"/>
    </contour>
    <contour>
      <point x="137" y="253" type="line"/>
      <point x="284" y="91" type="line"/>
      <point x="177" y="91" type="line"/>
      <point x="27" y="253" type="line"/>
    </contour>
    <contour>
      <point x="222" y="253" type="line"/>
      <point x="373" y="415" type="line"/>
      <point x="479" y="415" type="line"/>
      <point x="333" y="253" type="line"/>
    </contour>
    <contour>
      <point x="333" y="253" type="line"/>
      <point x="479" y="91" type="line"/>
      <point x="373" y="91" type="line"/>
      <point x="222" y="253" type="line"/>
    </contour>
  </outline>
</glyph>
<glyph name="logicalnot" format="1">
  <advance width="565"/>
  <unicode hex="00AC"/>
  <outline>
    <contour>
      <point x="526" y="153" type="line"/>
      <point x="526" y="414" type="line"/>
      <point x="31" y="414" type="line"/>
      <point x="31" y="330" type="line"/>
      <point x="439" y="330" type="line"/>
      <point x="439" y="153" type="line"/>
    </contour>
  </outline>
</glyph>
<glyph name="softhyphen" format="1">
  <advance width="350"/>
  <unicode hex="00AD"/>
  <outline>
    <contour>
      <point x="53" y="225" type="line"/>
      <point x="297" y="225" type="line"/>
      <point x="297" y="309" type="line"/>
      <point x="53" y="309" type="line"/>
    </contour>
  </outline>
</glyph>
<glyph name="registered" format="1">
  <advance width="462"/>
  <unicode hex="00AE"/>
  <outline>
    <contour>
      <point x="209" y="574" type="line"/>
      <point x="275" y="464" type="line"/>
      <point x="331" y="464" type="line"/>
      <point x="261" y="574" type="line"/>
    </contour>
    <contour>
      <point x="263" y="614" type="curve" smooth="yes"/>
      <point x="263" y="596"/>
      <point x="254" y="582"/>
      <point x="234" y="582" type="curve" smooth="yes"/>
      <point x="163" y="582" type="line"/>
      <point x="163" y="544" type="line"/>
      <point x="230" y="544" type="line" smooth="yes"/>
      <point x="284" y="544"/>
      <point x="311" y="571"/>
      <point x="311" y="614" type="curve" smooth="yes"/>
      <point x="311" y="658"/>
      <point x="286" y="684"/>
      <point x="227" y="684" type="curve" smooth="yes"/>
      <point x="163" y="684" type="line"/>
      <point x="163" y="645" type="line"/>
      <point x="231" y="645" type="line" smooth="yes"/>
      <point x="252" y="645"/>
      <point x="263" y="637"/>
    </contour>
    <contour>
      <point x="163" y="464" type="line"/>
      <point x="210" y="464" type="line"/>
      <point x="210" y="684" type="line"/>
      <point x="163" y="684" type="line"/>
    </contour>
    <contour>
      <point x="10" y="567" type="curve" smooth="yes"/>
      <point x="10" y="439"/>
      <point x="103" y="347"/>
      <point x="231" y="347" type="curve" smooth="yes"/>
      <point x="358" y="347"/>
      <point x="452" y="439"/>
      <point x="452" y="567" type="curve" smooth="yes"/>
      <point x="452" y="695"/>
      <point x="358" y="787"/>
      <point x="231" y="787" type="curve" smooth="yes"/>
      <point x="103" y="787"/>
      <point x="10" y="695"/>
    </contour>
    <contour>
      <point x="62" y="567" type="curve" smooth="yes"/>
      <point x="62" y="668"/>
      <point x="129" y="738"/>
      <point x="232" y="738" type="curve" smooth="yes"/>
      <point x="334" y="738"/>
      <point x="401" y="668"/>
      <point x="401" y="567" type="curve" smooth="yes"/>
      <point x="401" y="466"/>
      <point x="334" y="397"/>
      <point x="232" y="397" type="curve" smooth="yes"/>
      <point x="129" y="397"/>
      <point x="62" y="466"/>
    </contour>
  </outline>
</glyph>
<glyph name="macron" format="1">
  <advance width="444"/>
  <unicode hex="00AF"/>
  <outline>
    <contour>
      <point x="374" y="681" type="line"/>
      <point x="374" y="749" type="line"/>
      <point x="70" y="749" type="line"/>
      <point x="70" y="681" type="line"/>
    </contour>
  </outline>
</glyph>
<glyph name="degree" format="1">
  <advance width="380"/>
  <unicode hex="00B0"/>
  <outline>
    <contour>
      <point x="30" y="520" type="curve" smooth="yes"/>
      <point x="30" y="429"/>
      <point x="98" y="363"/>
      <point x="189" y="363" type="curve" smooth="yes"/>
      <point x="279" y="363"/>
      <point x="350" y="431"/>
      <point x="350" y="522" type="curve" smooth="yes"/>
      <point x="350" y="612"/>
      <point x="281" y="679"/>
      <point x="191" y="679" type="curve" smooth="yes"/>
      <point x="100" y="679"/>
      <point x="30" y="610"/>
    </contour>
    <contour>
      <point x="105" y="521" type="curve" smooth="yes"/>
      <point x="105" y="569"/>
      <point x="141" y="608"/>
      <point x="189" y="608" type="curve" smooth="yes"/>
      <point x="237" y="608"/>
      <point x="275" y="569"/>
      <point x="275" y="521" type="curve" smooth="yes"/>
      <point x="275" y="473"/>
      <point x="239" y="434"/>
      <point x="191" y="434" type="curve" smooth="yes"/>
      <point x="143" y="434"/>
      <point x="105" y="473"/>
    </contour>
  </outline>
</glyph>
<glyph name="plusminus" format="1">
  <advance width="564"/>
  <unicode hex="00B1"/>
  <outline>
    <contour>
      <point x="234" y="169" type="line"/>
      <point x="325" y="169" type="line"/>
      <point x="325" y="574" type="line"/>
      <point x="234" y="574" type="line"/>
    </contour>
    <contour>
      <point x="53" y="329" type="line"/>
      <point x="510" y="329" type="line"/>
      <point x="510" y="414" type="line"/>
      <point x="53" y="414" type="line"/>
    </contour>
    <contour>
      <point x="53" y="30" type="line"/>
      <point x="510" y="30" type="line"/>
      <point x="510" y="114" type="line"/>
      <point x="53" y="114" type="line"/>
    </contour>
  </outline>
</glyph>
<glyph name="twosuperior" format="1">
  <advance width="365"/>
  <unicode hex="00B2"/>
  <outline>
    <contour>
      <point x="43" y="392" type="line"/>
      <point x="327" y="392" type="line"/>
      <point x="327" y="457" type="line"/>
      <point x="146" y="457" type="line"/>
      <point x="240" y="525"/>
      <point x="313" y="611"/>
      <point x="313" y="694" type="curve" smooth="yes"/>
      <point x="313" y="781"/>
      <point x="246" y="827"/>
      <point x="168" y="827" type="curve" smooth="yes"/>
      <point x="125" y="827"/>
      <point x="85" y="812"/>
      <point x="56" y="794" type="curve"/>
      <point x="56" y="715" type="line"/>
      <point x="87" y="738"/>
      <point x="126" y="755"/>
      <point x="161" y="755" type="curve" smooth="yes"/>
      <point x="203" y="755"/>
      <point x="233" y="733"/>
      <point x="233" y="687" type="curve" smooth="yes"/>
      <point x="233" y="611"/>
      <point x="137" y="519"/>
      <point x="43" y="449" type="curve"/>
    </contour>
  </outline>
</glyph>
<glyph name="threesuperior" format="1">
  <advance width="333"/>
  <unicode hex="00B3"/>
  <outline>
    <contour>
      <point x="126" y="642" type="line"/>
      <point x="171" y="642"/>
      <point x="208" y="662"/>
      <point x="208" y="702" type="curve" smooth="yes"/>
      <point x="208" y="741"/>
      <point x="182" y="759"/>
      <point x="142" y="759" type="curve" smooth="yes"/>
      <point x="113" y="759"/>
      <point x="77" y="746"/>
      <point x="48" y="726" type="curve"/>
      <point x="48" y="800" type="line"/>
      <point x="72" y="815"/>
      <point x="110" y="827"/>
      <point x="146" y="827" type="curve" smooth="yes"/>
      <point x="239" y="827"/>
      <point x="287" y="774"/>
      <point x="287" y="710" type="curve" smooth="yes"/>
      <point x="287" y="656"/>
      <point x="256" y="622"/>
      <point x="208" y="611" type="curve"/>
      <point x="256" y="606"/>
      <point x="298" y="568"/>
      <point x="298" y="508" type="curve" smooth="yes"/>
      <point x="298" y="439"/>
      <point x="247" y="388"/>
      <point x="154" y="388" type="curve" smooth="yes"/>
      <point x="117" y="388"/>
      <point x="67" y="397"/>
      <point x="35" y="413" type="curve"/>
      <point x="35" y="483" type="line"/>
      <point x="71" y="464"/>
      <point x="108" y="455"/>
      <point x="146" y="455" type="curve" smooth="yes"/>
      <point x="193" y="455"/>
      <point x="220" y="479"/>
      <point x="220" y="515" type="curve" smooth="yes"/>
      <point x="220" y="552"/>
      <point x="191" y="577"/>
      <point x="126" y="577" type="curve" smooth="yes"/>
      <point x="105" y="577" type="line"/>
      <point x="105" y="642" type="line"/>
    </contour>
  </outline>
</glyph>
<glyph name="acute" format="1">
  <advance width="444"/>
  <unicode hex="00B4"/>
  <outline>
    <contour>
      <point x="121" y="636" type="line"/>
      <point x="205" y="636" type="line"/>
      <point x="325" y="798" type="line"/>
      <point x="216" y="798" type="line"/>
    </contour>
  </outline>
</glyph>
<glyph name="mu.math" format="1">
  <advance width="557"/>
  <unicode hex="00B5"/>
  <outline>
    <contour>
      <point x="488" y="507" type="line"/>
      <point x="390" y="507" type="line"/>
      <point x="390" y="0" type="line"/>
      <point x="488" y="0" type="line"/>
    </contour>
    <contour>
      <point x="167" y="451" type="line"/>
      <point x="102" y="451" type="line"/>
      <point x="102" y="161" type="line" smooth="yes"/>
      <point x="102" y="59"/>
      <point x="170" y="-6"/>
      <point x="265" y="-6" type="curve" smooth="yes"/>
      <point x="362" y="-6"/>
      <point x="415" y="68"/>
      <point x="408" y="193" type="curve"/>
      <point x="390" y="231" type="line"/>
      <point x="390" y="132"/>
      <point x="349" y="78"/>
      <point x="279" y="78" type="curve" smooth="yes"/>
      <point x="221" y="78"/>
      <point x="167" y="114"/>
      <point x="167" y="185" type="curve" smooth="yes"/>
    </contour>
    <contour>
      <point x="167" y="507" type="line"/>
      <point x="69" y="507" type="line"/>
      <point x="69" y="-179" type="line"/>
      <point x="167" y="-179" type="line"/>
    </contour>
  </outline>
</glyph>
<glyph name="paragraph" format="1">
  <advance width="559"/>
  <unicode hex="00B6"/>
  <outline>
    <contour>
      <point x="297" y="674" type="line"/>
      <point x="222" y="674" type="line"/>
      <point x="83" y="674"/>
      <point x="21" y="587"/>
      <point x="21" y="503" type="curve" smooth="yes"/>
      <point x="21" y="413"/>
      <point x="86" y="334"/>
      <point x="215" y="334" type="curve"/>
      <point x="215" y="-148" type="line"/>
      <point x="297" y="-148" type="line"/>
    </contour>
    <contour>
      <point x="405" y="-148" type="line"/>
      <point x="488" y="-148" type="line"/>
      <point x="488" y="674" type="line"/>
      <point x="406" y="674" type="line"/>
    </contour>
  </outline>
</glyph>
<glyph name="cedilla" format="1">
  <advance width="444"/>
  <unicode hex="00B8"/>
  <outline>
    <contour>
      <point x="301" y="-123" type="curve" smooth="yes"/>
      <point x="301" y="-99"/>
      <point x="295" y="-68"/>
      <point x="283" y="-51" type="curve"/>
      <point x="199" y="-51" type="line"/>
      <point x="213" y="-72"/>
      <point x="224" y="-93"/>
      <point x="224" y="-120" type="curve" smooth="yes"/>
      <point x="224" y="-161"/>
      <point x="196" y="-186"/>
      <point x="142" y="-189" type="curve"/>
      <point x="142" y="-257" type="line"/>
      <point x="250" y="-255"/>
      <point x="301" y="-193"/>
    </contour>
  </outline>
</glyph>
<glyph name="onesuperior" format="1">
  <advance width="258"/>
  <unicode hex="00B9"/>
  <outline>
    <contour>
      <point x="10" y="678" type="line"/>
      <point x="119" y="738" type="line"/>
      <point x="119" y="392" type="line"/>
      <point x="194" y="392" type="line"/>
      <point x="194" y="823" type="line"/>
      <point x="132" y="823" type="line"/>
      <point x="10" y="753" type="line"/>
    </contour>
  </outline>
</glyph>
<glyph name="ordmasculine" format="1">
  <advance width="395"/>
  <unicode hex="00BA"/>
  <outline>
    <contour>
      <point x="197" y="386" type="curve" smooth="yes"/>
      <point x="326" y="386"/>
      <point x="396" y="483"/>
      <point x="396" y="608" type="curve" smooth="yes"/>
      <point x="396" y="730"/>
      <point x="330" y="828"/>
      <point x="197" y="828" type="curve" smooth="yes"/>
      <point x="75" y="828"/>
      <point x="-1" y="730"/>
      <point x="-1" y="604" type="curve" smooth="yes"/>
      <point x="-1" y="483"/>
      <point x="68" y="386"/>
    </contour>
    <contour>
      <point x="196" y="759" type="curve" smooth="yes"/>
      <point x="281" y="759"/>
      <point x="309" y="686"/>
      <point x="309" y="606" type="curve" smooth="yes"/>
      <point x="309" y="524"/>
      <point x="274" y="455"/>
      <point x="197" y="455" type="curve" smooth="yes"/>
      <point x="125" y="455"/>
      <point x="85" y="525"/>
      <point x="85" y="606" type="curve" smooth="yes"/>
      <point x="85" y="687"/>
      <point x="122" y="759"/>
    </contour>
  </outline>
</glyph>
<glyph name="guillemotright" format="1">
  <advance width="514"/>
  <unicode hex="00BB"/>
  <outline>
    <contour>
      <point x="485" y="253" type="line"/>
      <point x="335" y="415" type="line"/>
      <point x="229" y="415" type="line"/>
      <point x="375" y="253" type="line"/>
    </contour>
    <contour>
      <point x="375" y="253" type="line"/>
      <point x="229" y="91" type="line"/>
      <point x="335" y="91" type="line"/>
      <point x="485" y="253" type="line"/>
    </contour>
    <contour>
      <point x="290" y="253" type="line"/>
      <point x="139" y="415" type="line"/>
      <point x="33" y="415" type="line"/>
      <point x="179" y="253" type="line"/>
    </contour>
    <contour>
      <point x="179" y="253" type="line"/>
      <point x="33" y="91" type="line"/>
      <point x="139" y="91" type="line"/>
      <point x="290" y="253" type="line"/>
    </contour>
  </outline>
</glyph>
<glyph name="onequarter" format="1">
  <advance width="831"/>
  <unicode hex="00BC"/>
  <outline>
    <contour>
      <point x="665" y="429" type="line"/>
      <point x="665" y="0" type="line"/>
      <point x="738" y="0" type="line"/>
      <point x="738" y="429" type="line"/>
    </contour>
    <contour>
      <point x="469" y="156" type="line"/>
      <point x="469" y="95" type="line"/>
      <point x="797" y="95" type="line"/>
      <point x="797" y="156" type="line"/>
    </contour>
    <contour>
      <point x="624" y="429" type="line"/>
      <point x="469" y="156" type="line"/>
      <point x="544" y="156" type="line"/>
      <point x="696" y="429" type="line"/>
    </contour>
    <contour>
      <point x="49" y="567" type="line"/>
      <point x="158" y="626" type="line"/>
      <point x="158" y="280" type="line"/>
      <point x="233" y="280" type="line"/>
      <point x="233" y="711" type="line"/>
      <point x="171" y="711" type="line"/>
      <point x="49" y="642" type="line"/>
    </contour>
    <contour>
      <point x="138" y="0" type="line"/>
      <point x="220" y="0" type="line"/>
      <point x="664" y="712" type="line"/>
      <point x="582" y="712" type="line"/>
    </contour>
  </outline>
</glyph>
<glyph name="onehalf" format="1">
  <advance width="833"/>
  <unicode hex="00BD"/>
  <outline>
    <contour>
      <point x="516" y="0" type="line"/>
      <point x="800" y="0" type="line"/>
      <point x="800" y="65" type="line"/>
      <point x="619" y="65" type="line"/>
      <point x="713" y="133"/>
      <point x="786" y="219"/>
      <point x="786" y="302" type="curve" smooth="yes"/>
      <point x="786" y="389"/>
      <point x="719" y="435"/>
      <point x="641" y="435" type="curve" smooth="yes"/>
      <point x="598" y="435"/>
      <point x="558" y="420"/>
      <point x="529" y="402" type="curve"/>
      <point x="529" y="323" type="line"/>
      <point x="560" y="346"/>
      <point x="599" y="363"/>
      <point x="634" y="363" type="curve" smooth="yes"/>
      <point x="676" y="363"/>
      <point x="706" y="341"/>
      <point x="706" y="295" type="curve" smooth="yes"/>
      <point x="706" y="219"/>
      <point x="610" y="127"/>
      <point x="516" y="57" type="curve"/>
    </contour>
    <contour>
      <point x="49" y="567" type="line"/>
      <point x="158" y="626" type="line"/>
      <point x="158" y="280" type="line"/>
      <point x="233" y="280" type="line"/>
      <point x="233" y="711" type="line"/>
      <point x="171" y="711" type="line"/>
      <point x="49" y="642" type="line"/>
    </contour>
    <contour>
      <point x="138" y="0" type="line"/>
      <point x="220" y="0" type="line"/>
      <point x="664" y="712" type="line"/>
      <point x="582" y="712" type="line"/>
    </contour>
  </outline>
</glyph>
<glyph name="threequarters" format="1">
  <advance width="876"/>
  <unicode hex="00BE"/>
  <outline>
    <contour>
      <point x="524" y="156" type="line"/>
      <point x="852" y="156" type="line"/>
      <point x="852" y="95" type="line"/>
      <point x="524" y="95" type="line"/>
    </contour>
    <contour>
      <point x="679" y="429" type="line"/>
      <point x="751" y="429" type="line"/>
      <point x="600" y="156" type="line"/>
      <point x="524" y="156" type="line"/>
    </contour>
    <contour>
      <point x="720" y="429" type="line"/>
      <point x="793" y="429" type="line"/>
      <point x="793" y="0" type="line"/>
      <point x="720" y="0" type="line"/>
    </contour>
    <contour>
      <point x="193" y="0" type="line"/>
      <point x="275" y="0" type="line"/>
      <point x="720" y="712" type="line"/>
      <point x="637" y="712" type="line"/>
    </contour>
    <contour>
      <point x="149" y="529" type="line"/>
      <point x="194" y="529"/>
      <point x="231" y="550"/>
      <point x="231" y="590" type="curve" smooth="yes"/>
      <point x="231" y="629"/>
      <point x="205" y="647"/>
      <point x="165" y="647" type="curve" smooth="yes"/>
      <point x="136" y="647"/>
      <point x="99" y="634"/>
      <point x="71" y="614" type="curve"/>
      <point x="71" y="688" type="line"/>
      <point x="95" y="703"/>
      <point x="133" y="715"/>
      <point x="168" y="715" type="curve" smooth="yes"/>
      <point x="262" y="715"/>
      <point x="310" y="662"/>
      <point x="310" y="597" type="curve" smooth="yes"/>
      <point x="310" y="544"/>
      <point x="279" y="509"/>
      <point x="231" y="498" type="curve"/>
      <point x="278" y="494"/>
      <point x="321" y="455"/>
      <point x="321" y="396" type="curve" smooth="yes"/>
      <point x="321" y="326"/>
      <point x="269" y="276"/>
      <point x="177" y="276" type="curve" smooth="yes"/>
      <point x="140" y="276"/>
      <point x="90" y="285"/>
      <point x="58" y="301" type="curve"/>
      <point x="58" y="371" type="line"/>
      <point x="93" y="352"/>
      <point x="130" y="343"/>
      <point x="169" y="343" type="curve" smooth="yes"/>
      <point x="215" y="343"/>
      <point x="243" y="367"/>
      <point x="243" y="403" type="curve" smooth="yes"/>
      <point x="243" y="440"/>
      <point x="214" y="465"/>
      <point x="149" y="465" type="curve" smooth="yes"/>
      <point x="127" y="465" type="line"/>
      <point x="127" y="529" type="line"/>
    </contour>
  </outline>
</glyph>
<glyph name="questiondown" format="1">
  <advance width="454"/>
  <unicode hex="00BF"/>
  <outline>
    <contour>
      <point x="418" y="-39" type="line"/>
      <point x="367" y="-72"/>
      <point x="319" y="-86"/>
      <point x="270" y="-86" type="curve" smooth="yes"/>
      <point x="188" y="-86"/>
      <point x="152" y="-41"/>
      <point x="152" y="18" type="curve" smooth="yes"/>
      <point x="152" y="96"/>
      <point x="216" y="134"/>
      <point x="333" y="134" type="curve"/>
      <point x="332" y="296" type="line"/>
      <point x="239" y="296" type="line"/>
      <point x="238" y="195" type="line"/>
      <point x="158" y="189"/>
      <point x="51" y="135"/>
      <point x="51" y="10" type="curve" smooth="yes"/>
      <point x="51" y="-106"/>
      <point x="136" y="-173"/>
      <point x="260" y="-173" type="curve" smooth="yes"/>
      <point x="324" y="-173"/>
      <point x="381" y="-156"/>
      <point x="418" y="-136" type="curve"/>
    </contour>
    <contour>
      <point x="355" y="449" type="curve" smooth="yes"/>
      <point x="355" y="488"/>
      <point x="325" y="517"/>
      <point x="287" y="517" type="curve" smooth="yes"/>
      <point x="248" y="517"/>
      <point x="218" y="488"/>
      <point x="218" y="449" type="curve" smooth="yes"/>
      <point x="218" y="411"/>
      <point x="248" y="381"/>
      <point x="287" y="381" type="curve" smooth="yes"/>
      <point x="325" y="381"/>
      <point x="355" y="411"/>
    </contour>
  </outline>
</glyph>
<glyph name="AE" format="1">
  <advance width="897"/>
  <unicode hex="00C6"/>
  <outline>
    <contour>
      <point x="19" y="0" type="line"/>
      <point x="127" y="0" type="line"/>
      <point x="285" y="285" type="line" smooth="yes"/>
      <point x="413" y="511"/>
      <point x="480" y="645"/>
      <point x="487" y="674" type="curve"/>
      <point x="385" y="674" type="line"/>
    </contour>
    <contour>
      <point x="198" y="165" type="line"/>
      <point x="503" y="165" type="line"/>
      <point x="503" y="251" type="line"/>
      <point x="198" y="251" type="line"/>
    </contour>
    <contour>
      <point x="487" y="0" type="line"/>
      <point x="845" y="0" type="line"/>
      <point x="845" y="86" type="line"/>
      <point x="487" y="86" type="line"/>
    </contour>
    <contour>
      <point x="459" y="0" type="line"/>
      <point x="559" y="0" type="line"/>
      <point x="559" y="674" type="line"/>
      <point x="459" y="674" type="line"/>
    </contour>
    <contour>
      <point x="487" y="294" type="line"/>
      <point x="808" y="294" type="line"/>
      <point x="808" y="380" type="line"/>
      <point x="487" y="380" type="line"/>
    </contour>
    <contour>
      <point x="487" y="588" type="line"/>
      <point x="840" y="588" type="line"/>
      <point x="840" y="674" type="line"/>
      <point x="487" y="674" type="line"/>
    </contour>
  </outline>
</glyph>
<glyph name="Eth" format="1">
  <advance width="736"/>
  <unicode hex="00D0"/>
  <outline>
    <contour>
      <point x="142" y="0" type="line"/>
      <point x="246" y="0" type="line"/>
      <point x="246" y="674" type="line"/>
      <point x="142" y="674" type="line"/>
    </contour>
    <contour>
      <point x="353" y="0" type="line"/>
      <point x="571" y="0"/>
      <point x="693" y="150"/>
      <point x="693" y="344" type="curve" smooth="yes"/>
      <point x="693" y="536"/>
      <point x="552" y="674"/>
      <point x="351" y="674" type="curve" smooth="yes"/>
      <point x="142" y="674" type="line"/>
      <point x="142" y="586" type="line"/>
      <point x="349" y="586" type="line" smooth="yes"/>
      <point x="497" y="586"/>
      <point x="588" y="479"/>
      <point x="588" y="344" type="curve" smooth="yes"/>
      <point x="588" y="202"/>
      <point x="514" y="87"/>
      <point x="352" y="87" type="curve" smooth="yes"/>
      <point x="142" y="87" type="line"/>
      <point x="142" y="0" type="line"/>
    </contour>
    <contour>
      <point x="410" y="294" type="line"/>
      <point x="410" y="378" type="line"/>
      <point x="62" y="378" type="line"/>
      <point x="62" y="294" type="line"/>
    </contour>
  </outline>
</glyph>
<glyph name="multiply" format="1">
  <advance width="503"/>
  <unicode hex="00D7"/>
  <outline>
    <contour>
      <point x="382" y="147" type="line"/>
      <point x="445" y="210" type="line"/>
      <point x="117" y="536" type="line"/>
      <point x="54" y="473" type="line"/>
    </contour>
    <contour>
      <point x="121" y="148" type="line"/>
      <point x="447" y="472" type="line"/>
      <point x="383" y="536" type="line"/>
      <point x="57" y="211" type="line"/>
    </contour>
  </outline>
</glyph>
<glyph name="Oslash" format="1">
  <advance width="686"/>
  <unicode hex="00D8"/>
  <outline>
    <contour>
      <point x="40" y="340" type="curve" smooth="yes"/>
      <point x="40" y="130"/>
      <point x="163" y="-8"/>
      <point x="351" y="-8" type="curve" smooth="yes"/>
      <point x="541" y="-8"/>
      <point x="660" y="130"/>
      <point x="660" y="340" type="curve" smooth="yes"/>
      <point x="660" y="549"/>
      <point x="543" y="687"/>
      <point x="350" y="687" type="curve" smooth="yes"/>
      <point x="160" y="687"/>
      <point x="40" y="549"/>
    </contour>
    <contour>
      <point x="146" y="340" type="curve" smooth="yes"/>
      <point x="146" y="497"/>
      <point x="223" y="595"/>
      <point x="350" y="595" type="curve" smooth="yes"/>
      <point x="480" y="595"/>
      <point x="554" y="500"/>
      <point x="554" y="340" type="curve" smooth="yes"/>
      <point x="554" y="182"/>
      <point x="480" y="84"/>
      <point x="351" y="84" type="curve" smooth="yes"/>
      <point x="227" y="84"/>
      <point x="146" y="179"/>
    </contour>
    <contour>
      <point x="40" y="-8" type="line"/>
      <point x="144" y="-8" type="line"/>
      <point x="661" y="686" type="line"/>
      <point x="557" y="686" type="line"/>
    </contour>
  </outline>
</glyph>
<glyph name="Thorn" format="1">
  <advance width="544"/>
  <unicode hex="00DE"/>
  <outline>
    <contour>
      <point x="267" y="120" type="line"/>
      <point x="417" y="120"/>
      <point x="513" y="207"/>
      <point x="513" y="335" type="curve" smooth="yes"/>
      <point x="513" y="462"/>
      <point x="423" y="554"/>
      <point x="261" y="554" type="curve" smooth="yes"/>
      <point x="73" y="554" type="line"/>
      <point x="73" y="469" type="line"/>
      <point x="259" y="469" type="line" smooth="yes"/>
      <point x="367" y="469"/>
      <point x="409" y="408"/>
      <point x="409" y="333" type="curve" smooth="yes"/>
      <point x="409" y="262"/>
      <point x="365" y="205"/>
      <point x="265" y="205" type="curve" smooth="yes"/>
      <point x="73" y="205" type="line"/>
      <point x="73" y="120" type="line"/>
    </contour>
    <contour>
      <point x="73" y="0" type="line"/>
      <point x="176" y="0" type="line"/>
      <point x="176" y="674" type="line"/>
      <point x="73" y="674" type="line"/>
    </contour>
  </outline>
</glyph>
<glyph name="germandbls" format="1">
  <advance width="558"/>
  <unicode hex="00DF"/>
  <outline>
    <contour>
      <point x="264" y="98" type="line"/>
      <point x="296" y="80"/>
      <point x="320" y="74"/>
      <point x="354" y="74" type="curve" smooth="yes"/>
      <point x="404" y="74"/>
      <point x="436" y="100"/>
      <point x="436" y="140" type="curve" smooth="yes"/>
      <point x="436" y="227"/>
      <point x="288" y="245"/>
      <point x="288" y="352" type="curve" smooth="yes"/>
      <point x="288" y="430"/>
      <point x="362" y="456"/>
      <point x="362" y="526" type="curve" smooth="yes"/>
      <point x="362" y="571"/>
      <point x="328" y="601"/>
      <point x="274" y="601" type="curve" smooth="yes"/>
      <point x="206" y="601"/>
      <point x="168" y="567"/>
      <point x="168" y="490" type="curve"/>
      <point x="168" y="0" type="line"/>
      <point x="71" y="0" type="line"/>
      <point x="71" y="486" type="line"/>
      <point x="71" y="622"/>
      <point x="151" y="690"/>
      <point x="273" y="690" type="curve" smooth="yes"/>
      <point x="389" y="690"/>
      <point x="462" y="616"/>
      <point x="462" y="531" type="curve" smooth="yes"/>
      <point x="462" y="433"/>
      <point x="391" y="408"/>
      <point x="391" y="360" type="curve" smooth="yes"/>
      <point x="391" y="302"/>
      <point x="531" y="278"/>
      <point x="531" y="143" type="curve" smooth="yes"/>
      <point x="531" y="56"/>
      <point x="468" y="-8"/>
      <point x="359" y="-8" type="curve" smooth="yes"/>
      <point x="327" y="-8"/>
      <point x="291" y="-4"/>
      <point x="264" y="8" type="curve"/>
    </contour>
  </outline>
</glyph>
<glyph name="ae" format="1">
  <advance width="816"/>
  <unicode hex="00E6"/>
  <outline>
    <contour>
      <point x="770" y="213" type="line"/>
      <point x="773" y="230"/>
      <point x="776" y="260"/>
      <point x="776" y="275" type="curve" smooth="yes"/>
      <point x="776" y="431"/>
      <point x="699" y="513"/>
      <point x="568" y="513" type="curve" smooth="yes"/>
      <point x="496" y="513"/>
      <point x="434" y="483"/>
      <point x="398" y="430" type="curve"/>
      <point x="376" y="483"/>
      <point x="321" y="515"/>
      <point x="238" y="515" type="curve" smooth="yes"/>
      <point x="175" y="515"/>
      <point x="119" y="500"/>
      <point x="86" y="480" type="curve"/>
      <point x="86" y="387" type="line"/>
      <point x="124" y="412"/>
      <point x="180" y="431"/>
      <point x="233" y="431" type="curve" smooth="yes"/>
      <point x="314" y="431"/>
      <point x="341" y="391"/>
      <point x="341" y="326" type="curve" smooth="yes"/>
      <point x="341" y="298" type="line"/>
      <point x="259" y="298" type="line" smooth="yes"/>
      <point x="126" y="298"/>
      <point x="48" y="240"/>
      <point x="48" y="143" type="curve" smooth="yes"/>
      <point x="48" y="53"/>
      <point x="113" y="-5"/>
      <point x="216" y="-5" type="curve" smooth="yes"/>
      <point x="313" y="-5"/>
      <point x="372" y="42"/>
      <point x="395" y="96" type="curve"/>
      <point x="435" y="31"/>
      <point x="516" y="-5"/>
      <point x="598" y="-5" type="curve" smooth="yes"/>
      <point x="645" y="-5"/>
      <point x="704" y="6"/>
      <point x="741" y="27" type="curve"/>
      <point x="741" y="115" type="line"/>
      <point x="707" y="91"/>
      <point x="657" y="77"/>
      <point x="607" y="77" type="curve" smooth="yes"/>
      <point x="522" y="77"/>
      <point x="454" y="123"/>
      <point x="439" y="213" type="curve"/>
    </contour>
    <contour>
      <point x="569" y="432" type="curve" smooth="yes"/>
      <point x="637" y="432"/>
      <point x="679" y="387"/>
      <point x="681" y="308" type="curve" smooth="yes"/>
      <point x="681" y="306"/>
      <point x="681" y="292"/>
      <point x="681" y="290" type="curve"/>
      <point x="437" y="290" type="line"/>
      <point x="449" y="388"/>
      <point x="507" y="432"/>
    </contour>
    <contour>
      <point x="341" y="175" type="line"/>
      <point x="341" y="113"/>
      <point x="296" y="74"/>
      <point x="238" y="74" type="curve" smooth="yes"/>
      <point x="180" y="74"/>
      <point x="151" y="103"/>
      <point x="151" y="147" type="curve" smooth="yes"/>
      <point x="151" y="197"/>
      <point x="194" y="225"/>
      <point x="274" y="225" type="curve" smooth="yes"/>
      <point x="341" y="225" type="line"/>
    </contour>
  </outline>
</glyph>
<glyph name="igrave" format="1">
  <advance width="245"/>
  <unicode hex="00EC"/>
  <outline>
    <contour>
      <point x="73" y="0" type="line"/>
      <point x="172" y="0" type="line"/>
      <point x="172" y="507" type="line"/>
      <point x="73" y="507" type="line"/>
    </contour>
    <component base="grave" xOffset="-167" yOffset="-78"/>
  </outline>
</glyph>
<glyph name="iacute" format="1">
  <advance width="245"/>
  <unicode hex="00ED"/>
  <outline>
    <contour>
      <point x="73" y="0" type="line"/>
      <point x="172" y="0" type="line"/>
      <point x="172" y="507" type="line"/>
      <point x="73" y="507" type="line"/>
    </contour>
    <component base="acute" xOffset="-33" yOffset="-78"/>
  </outline>
</glyph>
<glyph name="icircumflex" format="1">
  <advance width="245"/>
  <unicode hex="00EE"/>
  <outline>
    <contour>
      <point x="73" y="0" type="line"/>
      <point x="172" y="0" type="line"/>
      <point x="172" y="507" type="line"/>
      <point x="73" y="507" type="line"/>
    </contour>
    <component base="circumflex" xOffset="-98" yOffset="-78"/>
  </outline>
</glyph>
<glyph name="idieresis" format="1">
  <advance width="245"/>
  <unicode hex="00EF"/>
  <outline>
    <contour>
      <point x="73" y="0" type="line"/>
      <point x="172" y="0" type="line"/>
      <point x="172" y="507" type="line"/>
      <point x="73" y="507" type="line"/>
    </contour>
    <component base="dieresis" xOffset="-99" yOffset="-78"/>
  </outline>
</glyph>
<glyph name="eth" format="1">
  <advance width="528"/>
  <unicode hex="00F0"/>
  <outline>
    <contour>
      <point x="272" y="674" type="line"/>
      <point x="382" y="601"/>
      <point x="483" y="448"/>
      <point x="483" y="275" type="curve" smooth="yes"/>
      <point x="483" y="94"/>
      <point x="398" y="-9"/>
      <point x="256" y="-9" type="curve" smooth="yes"/>
      <point x="119" y="-9"/>
      <point x="37" y="90"/>
      <point x="37" y="203" type="curve" smooth="yes"/>
      <point x="37" y="332"/>
      <point x="129" y="406"/>
      <point x="236" y="406" type="curve" smooth="yes"/>
      <point x="319" y="406"/>
      <point x="385" y="360"/>
      <point x="416" y="291" type="curve"/>
      <point x="414" y="208" type="line"/>
      <point x="382" y="269"/>
      <point x="327" y="319"/>
      <point x="251" y="319" type="curve" smooth="yes"/>
      <point x="187" y="319"/>
      <point x="139" y="276"/>
      <point x="139" y="198" type="curve" smooth="yes"/>
      <point x="139" y="125"/>
      <point x="187" y="80"/>
      <point x="256" y="80" type="curve" smooth="yes"/>
      <point x="324" y="80"/>
      <point x="387" y="127"/>
      <point x="387" y="276" type="curve" smooth="yes"/>
      <point x="387" y="472"/>
      <point x="256" y="603"/>
      <point x="130" y="674" type="curve"/>
    </contour>
    <contour>
      <point x="160" y="458" type="line"/>
      <point x="160" y="525" type="line"/>
      <point x="461" y="676" type="line"/>
      <point x="461" y="609" type="line"/>
    </contour>
  </outline>
</glyph>
<glyph name="divide" format="1">
  <advance width="564"/>
  <unicode hex="00F7"/>
  <outline>
    <contour>
      <point x="221" y="518" type="curve" smooth="yes"/>
      <point x="221" y="486"/>
      <point x="248" y="458"/>
      <point x="280" y="458" type="curve" smooth="yes"/>
      <point x="312" y="458"/>
      <point x="339" y="486"/>
      <point x="339" y="518" type="curve" smooth="yes"/>
      <point x="339" y="550"/>
      <point x="312" y="577"/>
      <point x="280" y="577" type="curve" smooth="yes"/>
      <point x="248" y="577"/>
      <point x="221" y="550"/>
    </contour>
    <contour>
      <point x="53" y="296" type="line"/>
      <point x="510" y="296" type="line"/>
      <point x="510" y="384" type="line"/>
      <point x="53" y="384" type="line"/>
    </contour>
    <contour>
      <point x="221" y="162" type="curve" smooth="yes"/>
      <point x="221" y="130"/>
      <point x="248" y="103"/>
      <point x="280" y="103" type="curve" smooth="yes"/>
      <point x="312" y="103"/>
      <point x="339" y="130"/>
      <point x="339" y="162" type="curve" smooth="yes"/>
      <point x="339" y="194"/>
      <point x="312" y="222"/>
      <point x="280" y="222" type="curve" smooth="yes"/>
      <point x="248" y="222"/>
      <point x="221" y="194"/>
    </contour>
  </outline>
</glyph>
<glyph name="oslash" format="1">
  <advance width="563"/>
  <unicode hex="00F8"/>
  <outline>
    <contour>
      <point x="290" y="-9" type="curve" smooth="yes"/>
      <point x="446" y="-9"/>
      <point x="533" y="107"/>
      <point x="533" y="253" type="curve" smooth="yes"/>
      <point x="533" y="398"/>
      <point x="450" y="514"/>
      <point x="290" y="514" type="curve" smooth="yes"/>
      <point x="144" y="514"/>
      <point x="50" y="398"/>
      <point x="50" y="249" type="curve" smooth="yes"/>
      <point x="50" y="106"/>
      <point x="136" y="-9"/>
    </contour>
    <contour>
      <point x="290" y="440" type="curve" smooth="yes"/>
      <point x="399" y="440"/>
      <point x="439" y="351"/>
      <point x="439" y="251" type="curve" smooth="yes"/>
      <point x="439" y="150"/>
      <point x="392" y="65"/>
      <point x="291" y="65" type="curve" smooth="yes"/>
      <point x="196" y="65"/>
      <point x="143" y="152"/>
      <point x="143" y="252" type="curve" smooth="yes"/>
      <point x="143" y="353"/>
      <point x="192" y="440"/>
    </contour>
    <contour>
      <point x="50" y="-9" type="line"/>
      <point x="143" y="-9" type="line"/>
      <point x="533" y="514" type="line"/>
      <point x="439" y="514" type="line"/>
    </contour>
  </outline>
</glyph>
<glyph name="Aogonek" format="1">
  <advance width="656"/>
  <unicode hex="0104"/>
  <outline>
    <contour>
      <point x="29" y="0" type="line"/>
      <point x="138" y="0" type="line"/>
      <point x="230" y="285" type="line" smooth="yes"/>
      <point x="318" y="550"/>
      <point x="328" y="596"/>
      <point x="328" y="596" type="curve"/>
      <point x="328" y="596"/>
      <point x="339" y="550"/>
      <point x="425" y="285" type="curve" smooth="yes"/>
      <point x="517" y="0" type="line"/>
      <point x="627" y="0" type="line"/>
      <point x="397" y="674" type="line"/>
      <point x="261" y="674" type="line"/>
    </contour>
    <contour>
      <point x="161" y="165" type="line"/>
      <point x="502" y="165" type="line"/>
      <point x="502" y="251" type="line"/>
      <point x="161" y="251" type="line"/>
    </contour>
    <contour>
      <point x="645" y="-226" type="curve"/>
      <point x="645" y="-154" type="line"/>
      <point x="626" y="-167"/>
      <point x="599" y="-178"/>
      <point x="571" y="-178" type="curve" smooth="yes"/>
      <point x="535" y="-178"/>
      <point x="513" y="-160"/>
      <point x="513" y="-127" type="curve" smooth="yes"/>
      <point x="513" y="-77"/>
      <point x="566" y="-32"/>
      <point x="627" y="0" type="curve"/>
      <point x="583" y="46" type="line"/>
      <point x="517" y="21"/>
      <point x="430" y="-44"/>
      <point x="430" y="-135" type="curve" smooth="yes"/>
      <point x="430" y="-197"/>
      <point x="471" y="-247"/>
      <point x="557" y="-247" type="curve" smooth="yes"/>
      <point x="591" y="-247"/>
      <point x="621" y="-240"/>
    </contour>
  </outline>
</glyph>
<glyph name="aogonek" format="1">
  <advance width="497"/>
  <unicode hex="0105"/>
  <outline>
    <contour>
      <point x="336" y="165" type="line"/>
      <point x="336" y="115"/>
      <point x="295" y="74"/>
      <point x="233" y="74" type="curve" smooth="yes"/>
      <point x="175" y="74"/>
      <point x="146" y="103"/>
      <point x="146" y="147" type="curve" smooth="yes"/>
      <point x="146" y="197"/>
      <point x="189" y="225"/>
      <point x="269" y="225" type="curve" smooth="yes"/>
      <point x="350" y="225" type="line"/>
      <point x="350" y="298" type="line"/>
      <point x="254" y="298" type="line" smooth="yes"/>
      <point x="121" y="298"/>
      <point x="43" y="240"/>
      <point x="43" y="143" type="curve" smooth="yes"/>
      <point x="43" y="56"/>
      <point x="105" y="-4"/>
      <point x="202" y="-4" type="curve" smooth="yes"/>
      <point x="268" y="-4"/>
      <point x="313" y="26"/>
      <point x="339" y="63" type="curve"/>
      <point x="339" y="0" type="line"/>
      <point x="436" y="0" type="line"/>
      <point x="436" y="322" type="line" smooth="yes"/>
      <point x="436" y="448"/>
      <point x="375" y="515"/>
      <point x="237" y="515" type="curve" smooth="yes"/>
      <point x="175" y="515"/>
      <point x="114" y="500"/>
      <point x="81" y="480" type="curve"/>
      <point x="81" y="387" type="line"/>
      <point x="119" y="412"/>
      <point x="175" y="431"/>
      <point x="228" y="431" type="curve" smooth="yes"/>
      <point x="309" y="431"/>
      <point x="336" y="391"/>
      <point x="336" y="326" type="curve" smooth="yes"/>
    </contour>
    <contour>
      <point x="454" y="-226" type="curve"/>
      <point x="454" y="-154" type="line"/>
      <point x="435" y="-167"/>
      <point x="408" y="-178"/>
      <point x="380" y="-178" type="curve" smooth="yes"/>
      <point x="344" y="-178"/>
      <point x="322" y="-160"/>
      <point x="322" y="-127" type="curve" smooth="yes"/>
      <point x="322" y="-77"/>
      <point x="376" y="-32"/>
      <point x="436" y="0" type="curve"/>
      <point x="400" y="46" type="line"/>
      <point x="334" y="21"/>
      <point x="239" y="-44"/>
      <point x="239" y="-135" type="curve" smooth="yes"/>
      <point x="239" y="-197"/>
      <point x="280" y="-247"/>
      <point x="366" y="-247" type="curve" smooth="yes"/>
      <point x="400" y="-247"/>
      <point x="430" y="-240"/>
    </contour>
  </outline>
</glyph>
<glyph name="dcaron" format="1">
  <advance width="685"/>
  <unicode hex="010F"/>
  <outline>
    <contour>
      <point x="511" y="707" type="line"/>
      <point x="412" y="707" type="line"/>
      <point x="412" y="0" type="line"/>
      <point x="511" y="0" type="line"/>
    </contour>
    <contour>
      <point x="412" y="257" type="curve" smooth="yes"/>
      <point x="412" y="128"/>
      <point x="344" y="79"/>
      <point x="274" y="79" type="curve" smooth="yes"/>
      <point x="199" y="79"/>
      <point x="142" y="147"/>
      <point x="142" y="249" type="curve" smooth="yes"/>
      <point x="142" y="369"/>
      <point x="203" y="428"/>
      <point x="277" y="428" type="curve" smooth="yes"/>
      <point x="334" y="428"/>
      <point x="412" y="385"/>
    </contour>
    <contour>
      <point x="456" y="257" type="curve" smooth="yes"/>
      <point x="456" y="413"/>
      <point x="378" y="514"/>
      <point x="259" y="514" type="curve" smooth="yes"/>
      <point x="133" y="514"/>
      <point x="41" y="412"/>
      <point x="41" y="251" type="curve" smooth="yes"/>
      <point x="41" y="116"/>
      <point x="117" y="-7"/>
      <point x="257" y="-7" type="curve" smooth="yes"/>
      <point x="391" y="-7"/>
      <point x="456" y="108"/>
    </contour>
    <contour>
      <point x="565" y="510" type="line"/>
      <point x="642" y="510" type="line"/>
      <point x="755" y="707" type="line"/>
      <point x="646" y="707" type="line"/>
    </contour>
  </outline>
</glyph>
<glyph name="dcroat" format="1">
  <advance width="580"/>
  <unicode hex="0111"/>
  <outline>
    <contour>
      <point x="578" y="580" type="line"/>
      <point x="578" y="643" type="line"/>
      <point x="231" y="643" type="line"/>
      <point x="231" y="580" type="line"/>
    </contour>
    <contour>
      <point x="511" y="707" type="line"/>
      <point x="412" y="707" type="line"/>
      <point x="412" y="0" type="line"/>
      <point x="511" y="0" type="line"/>
    </contour>
    <contour>
      <point x="412" y="257" type="curve" smooth="yes"/>
      <point x="412" y="128"/>
      <point x="344" y="79"/>
      <point x="274" y="79" type="curve" smooth="yes"/>
      <point x="199" y="79"/>
      <point x="142" y="147"/>
      <point x="142" y="249" type="curve" smooth="yes"/>
      <point x="142" y="369"/>
      <point x="203" y="428"/>
      <point x="277" y="428" type="curve" smooth="yes"/>
      <point x="334" y="428"/>
      <point x="412" y="385"/>
    </contour>
    <contour>
      <point x="456" y="257" type="curve" smooth="yes"/>
      <point x="456" y="413"/>
      <point x="378" y="514"/>
      <point x="259" y="514" type="curve" smooth="yes"/>
      <point x="133" y="514"/>
      <point x="41" y="412"/>
      <point x="41" y="251" type="curve" smooth="yes"/>
      <point x="41" y="116"/>
      <point x="117" y="-7"/>
      <point x="257" y="-7" type="curve" smooth="yes"/>
      <point x="391" y="-7"/>
      <point x="456" y="108"/>
    </contour>
  </outline>
</glyph>
<glyph name="Gcommaaccent" format="1">
  <advance width="681"/>
  <unicode hex="0122"/>
  <outline>
    <contour>
      <point x="587" y="535" type="line"/>
      <point x="522" y="576"/>
      <point x="453" y="589"/>
      <point x="395" y="589" type="curve" smooth="yes"/>
      <point x="252" y="589"/>
      <point x="154" y="490"/>
      <point x="154" y="338" type="curve" smooth="yes"/>
      <point x="154" y="183"/>
      <point x="247" y="88"/>
      <point x="400" y="88" type="curve" smooth="yes"/>
      <point x="496" y="88"/>
      <point x="564" y="132"/>
      <point x="598" y="162" type="curve"/>
      <point x="615" y="55" type="line"/>
      <point x="568" y="21"/>
      <point x="491" y="-8"/>
      <point x="397" y="-8" type="curve" smooth="yes"/>
      <point x="190" y="-8"/>
      <point x="46" y="121"/>
      <point x="46" y="338" type="curve" smooth="yes"/>
      <point x="46" y="546"/>
      <point x="193" y="686"/>
      <point x="391" y="686" type="curve" smooth="yes"/>
      <point x="455" y="686"/>
      <point x="527" y="675"/>
      <point x="587" y="641" type="curve"/>
    </contour>
    <contour>
      <point x="514" y="385" type="line"/>
      <point x="615" y="385" type="line"/>
      <point x="615" y="62" type="line"/>
      <point x="514" y="36" type="line"/>
    </contour>
    <contour>
      <point x="377" y="385" type="line"/>
      <point x="615" y="385" type="line"/>
      <point x="615" y="296" type="line"/>
      <point x="377" y="296" type="line"/>
    </contour>
    <contour>
      <point x="240" y="-249" type="line"/>
      <point x="317" y="-249" type="line"/>
      <point x="430" y="-51" type="line"/>
      <point x="321" y="-51" type="line"/>
    </contour>
  </outline>
</glyph>
<glyph name="imacron" format="1">
  <advance width="245"/>
  <unicode hex="012B"/>
  <outline>
    <contour>
      <point x="73" y="0" type="line"/>
      <point x="172" y="0" type="line"/>
      <point x="172" y="507" type="line"/>
      <point x="73" y="507" type="line"/>
    </contour>
    <component base="macron" xOffset="-99" yOffset="-76"/>
  </outline>
</glyph>
<glyph name="Kcommaaccent" format="1">
  <advance width="599"/>
  <unicode hex="0136"/>
  <outline>
    <contour>
      <point x="172" y="-249" type="line"/>
      <point x="249" y="-249" type="line"/>
      <point x="362" y="-51" type="line"/>
      <point x="253" y="-51" type="line"/>
    </contour>
    <contour>
      <point x="73" y="0" type="line"/>
      <point x="176" y="0" type="line"/>
      <point x="176" y="674" type="line"/>
      <point x="73" y="674" type="line"/>
    </contour>
    <contour>
      <point x="189" y="333" type="line"/>
      <point x="444" y="0" type="line"/>
      <point x="574" y="0" type="line"/>
      <point x="312" y="334" type="line"/>
    </contour>
    <contour>
      <point x="312" y="334" type="line"/>
      <point x="559" y="674" type="line"/>
      <point x="434" y="674" type="line"/>
      <point x="189" y="333" type="line"/>
    </contour>
  </outline>
</glyph>
<glyph name="kcommaaccent" format="1">
  <advance width="500"/>
  <unicode hex="0137"/>
  <outline>
    <contour>
      <point x="126" y="-249" type="line"/>
      <point x="203" y="-249" type="line"/>
      <point x="316" y="-51" type="line"/>
      <point x="207" y="-51" type="line"/>
    </contour>
    <contour>
      <point x="366" y="0" type="line"/>
      <point x="483" y="0" type="line"/>
      <point x="284" y="265" type="line"/>
      <point x="171" y="265" type="line"/>
    </contour>
    <contour>
      <point x="69" y="0" type="line"/>
      <point x="167" y="0" type="line"/>
      <point x="167" y="700" type="line"/>
      <point x="69" y="700" type="line"/>
    </contour>
    <contour>
      <point x="171" y="265" type="line"/>
      <point x="284" y="265" type="line"/>
      <point x="477" y="507" type="line"/>
      <point x="362" y="507" type="line"/>
    </contour>
  </outline>
</glyph>
<glyph name="Lcommaaccent" format="1">
  <advance width="480"/>
  <unicode hex="013B"/>
  <outline>
    <contour>
      <point x="73" y="674" type="line"/>
      <point x="73" y="0" type="line"/>
      <point x="176" y="0" type="line"/>
      <point x="176" y="674" type="line"/>
    </contour>
    <contour>
      <point x="103" y="91" type="line"/>
      <point x="103" y="0" type="line"/>
      <point x="452" y="0" type="line"/>
      <point x="452" y="91" type="line"/>
    </contour>
    <contour>
      <point x="139" y="-249" type="line"/>
      <point x="216" y="-249" type="line"/>
      <point x="329" y="-51" type="line"/>
      <point x="220" y="-51" type="line"/>
    </contour>
  </outline>
</glyph>
<glyph name="lcommaaccent" format="1">
  <advance width="245"/>
  <unicode hex="013C"/>
  <outline>
    <contour>
      <point x="73" y="0" type="line"/>
      <point x="172" y="0" type="line"/>
      <point x="172" y="707" type="line"/>
      <point x="73" y="707" type="line"/>
    </contour>
    <contour>
      <point x="-13" y="-249" type="line"/>
      <point x="64" y="-249" type="line"/>
      <point x="177" y="-51" type="line"/>
      <point x="68" y="-51" type="line"/>
    </contour>
  </outline>
</glyph>
<glyph name="Lcaron" format="1">
  <advance width="480"/>
  <unicode hex="013D"/>
  <outline>
    <contour>
      <point x="73" y="674" type="line"/>
      <point x="176" y="674" type="line"/>
      <point x="176" y="0" type="line"/>
      <point x="73" y="0" type="line"/>
    </contour>
    <contour>
      <point x="103" y="91" type="line"/>
      <point x="452" y="91" type="line"/>
      <point x="452" y="0" type="line"/>
      <point x="103" y="0" type="line"/>
    </contour>
    <contour>
      <point x="257" y="503" type="line"/>
      <point x="334" y="503" type="line"/>
      <point x="447" y="701" type="line"/>
      <point x="338" y="701" type="line"/>
    </contour>
  </outline>
</glyph>
<glyph name="lcaron" format="1">
  <advance width="264"/>
  <unicode hex="013E"/>
  <outline>
    <contour>
      <point x="73" y="0" type="line"/>
      <point x="172" y="0" type="line"/>
      <point x="172" y="707" type="line"/>
      <point x="73" y="707" type="line"/>
    </contour>
    <contour>
      <point x="237" y="510" type="line"/>
      <point x="313" y="510" type="line"/>
      <point x="426" y="708" type="line"/>
      <point x="317" y="708" type="line"/>
    </contour>
  </outline>
</glyph>
<glyph name="Lslash" format="1">
  <advance width="518"/>
  <unicode hex="0141"/>
  <outline>
    <contour>
      <point x="105" y="674" type="line"/>
      <point x="207" y="674" type="line"/>
      <point x="207" y="0" type="line"/>
      <point x="105" y="0" type="line"/>
    </contour>
    <contour>
      <point x="135" y="91" type="line"/>
      <point x="483" y="91" type="line"/>
      <point x="483" y="0" type="line"/>
      <point x="135" y="0" type="line"/>
    </contour>
    <contour>
      <point x="34" y="187" type="line"/>
      <point x="34" y="277" type="line"/>
      <point x="361" y="488" type="line"/>
      <point x="361" y="398" type="line"/>
    </contour>
  </outline>
</glyph>
<glyph name="lslash" format="1">
  <advance width="306"/>
  <unicode hex="0142"/>
  <outline>
    <contour>
      <point x="282" y="418" type="line"/>
      <point x="282" y="508" type="line"/>
      <point x="31" y="333" type="line"/>
      <point x="31" y="242" type="line"/>
    </contour>
    <contour>
      <point x="101" y="0" type="line"/>
      <point x="200" y="0" type="line"/>
      <point x="200" y="707" type="line"/>
      <point x="101" y="707" type="line"/>
    </contour>
  </outline>
</glyph>
<glyph name="Ncommaaccent" format="1">
  <advance width="680"/>
  <unicode hex="0145"/>
  <outline>
    <contour>
      <point x="215" y="-249" type="line"/>
      <point x="292" y="-249" type="line"/>
      <point x="405" y="-51" type="line"/>
      <point x="296" y="-51" type="line"/>
    </contour>
    <contour>
      <point x="73" y="0" type="line"/>
      <point x="176" y="0" type="line"/>
      <point x="176" y="282" type="line" smooth="yes"/>
      <point x="176" y="451"/>
      <point x="168" y="551"/>
      <point x="168" y="551" type="curve"/>
      <point x="168" y="551"/>
      <point x="216" y="452"/>
      <point x="318" y="281" type="curve" smooth="yes"/>
      <point x="485" y="0" type="line"/>
      <point x="607" y="0" type="line"/>
      <point x="607" y="674" type="line"/>
      <point x="504" y="674" type="line"/>
      <point x="504" y="391" type="line" smooth="yes"/>
      <point x="504" y="215"/>
      <point x="510" y="124"/>
      <point x="510" y="124" type="curve"/>
      <point x="510" y="124"/>
      <point x="465" y="214"/>
      <point x="361" y="392" type="curve" smooth="yes"/>
      <point x="195" y="674" type="line"/>
      <point x="73" y="674" type="line"/>
    </contour>
  </outline>
</glyph>
<glyph name="OE" format="1">
  <advance width="988"/>
  <unicode hex="0152"/>
  <outline>
    <contour>
      <point x="46" y="340" type="curve" smooth="yes"/>
      <point x="46" y="130"/>
      <point x="163" y="-8"/>
      <point x="351" y="-8" type="curve" smooth="yes"/>
      <point x="528" y="-8"/>
      <point x="642" y="135"/>
      <point x="642" y="340" type="curve" smooth="yes"/>
      <point x="642" y="545"/>
      <point x="531" y="687"/>
      <point x="350" y="687" type="curve" smooth="yes"/>
      <point x="161" y="687"/>
      <point x="46" y="549"/>
    </contour>
    <contour>
      <point x="154" y="340" type="curve" smooth="yes"/>
      <point x="154" y="495"/>
      <point x="225" y="591"/>
      <point x="350" y="591" type="curve" smooth="yes"/>
      <point x="478" y="591"/>
      <point x="548" y="495"/>
      <point x="548" y="340" type="curve" smooth="yes"/>
      <point x="548" y="184"/>
      <point x="478" y="88"/>
      <point x="351" y="88" type="curve" smooth="yes"/>
      <point x="229" y="88"/>
      <point x="154" y="184"/>
    </contour>
    <contour>
      <point x="578" y="0" type="line"/>
      <point x="937" y="0" type="line"/>
      <point x="937" y="86" type="line"/>
      <point x="578" y="86" type="line"/>
    </contour>
    <contour>
      <point x="548" y="0" type="line"/>
      <point x="646" y="0" type="line"/>
      <point x="646" y="674" type="line"/>
      <point x="548" y="674" type="line"/>
    </contour>
    <contour>
      <point x="578" y="294" type="line"/>
      <point x="900" y="294" type="line"/>
      <point x="900" y="380" type="line"/>
      <point x="578" y="380" type="line"/>
    </contour>
    <contour>
      <point x="578" y="588" type="line"/>
      <point x="932" y="588" type="line"/>
      <point x="932" y="674" type="line"/>
      <point x="578" y="674" type="line"/>
    </contour>
  </outline>
</glyph>
<glyph name="oe" format="1">
  <advance width="889"/>
  <unicode hex="0153"/>
  <outline>
    <contour>
      <point x="275" y="-9" type="curve" smooth="yes"/>
      <point x="424" y="-9"/>
      <point x="506" y="107"/>
      <point x="506" y="253" type="curve" smooth="yes"/>
      <point x="506" y="398"/>
      <point x="428" y="514"/>
      <point x="275" y="514" type="curve" smooth="yes"/>
      <point x="129" y="514"/>
      <point x="41" y="398"/>
      <point x="41" y="249" type="curve" smooth="yes"/>
      <point x="41" y="106"/>
      <point x="121" y="-9"/>
    </contour>
    <contour>
      <point x="275" y="431" type="curve" smooth="yes"/>
      <point x="377" y="431"/>
      <point x="409" y="347"/>
      <point x="409" y="251" type="curve" smooth="yes"/>
      <point x="409" y="155"/>
      <point x="370" y="74"/>
      <point x="275" y="74" type="curve" smooth="yes"/>
      <point x="187" y="74"/>
      <point x="143" y="156"/>
      <point x="143" y="252" type="curve" smooth="yes"/>
      <point x="143" y="347"/>
      <point x="184" y="431"/>
    </contour>
    <contour>
      <point x="472" y="213" type="line"/>
      <point x="841" y="213" type="line"/>
      <point x="844" y="230"/>
      <point x="847" y="260"/>
      <point x="847" y="275" type="curve" smooth="yes"/>
      <point x="847" y="431"/>
      <point x="770" y="513"/>
      <point x="639" y="513" type="curve" smooth="yes"/>
      <point x="517" y="513"/>
      <point x="409" y="421"/>
      <point x="409" y="252" type="curve" smooth="yes"/>
      <point x="409" y="98"/>
      <point x="517" y="-5"/>
      <point x="666" y="-5" type="curve" smooth="yes"/>
      <point x="713" y="-5"/>
      <point x="775" y="6"/>
      <point x="813" y="27" type="curve"/>
      <point x="813" y="115" type="line"/>
      <point x="779" y="91"/>
      <point x="728" y="77"/>
      <point x="679" y="77" type="curve" smooth="yes"/>
      <point x="580" y="77"/>
      <point x="506" y="138"/>
      <point x="506" y="252" type="curve" smooth="yes"/>
      <point x="506" y="377"/>
      <point x="571" y="432"/>
      <point x="640" y="432" type="curve" smooth="yes"/>
      <point x="706" y="432"/>
      <point x="749" y="389"/>
      <point x="752" y="312" type="curve" smooth="yes"/>
      <point x="752" y="309"/>
      <point x="752" y="293"/>
      <point x="752" y="290" type="curve"/>
      <point x="472" y="290" type="line"/>
    </contour>
  </outline>
</glyph>
<glyph name="rcommaaccent" format="1">
  <advance width="339"/>
  <unicode hex="0157"/>
  <outline>
    <contour>
      <point x="69" y="0" type="line"/>
      <point x="167" y="0" type="line"/>
      <point x="167" y="507" type="line"/>
      <point x="69" y="507" type="line"/>
    </contour>
    <contour>
      <point x="331" y="509" type="line"/>
      <point x="320" y="511"/>
      <point x="310" y="512"/>
      <point x="300" y="512" type="curve" smooth="yes"/>
      <point x="194" y="512"/>
      <point x="149" y="419"/>
      <point x="148" y="309" type="curve"/>
      <point x="167" y="270" type="line"/>
      <point x="167" y="350"/>
      <point x="214" y="422"/>
      <point x="284" y="422" type="curve" smooth="yes"/>
      <point x="300" y="422"/>
      <point x="315" y="420"/>
      <point x="331" y="413" type="curve"/>
    </contour>
    <contour>
      <point x="-20" y="-249" type="line"/>
      <point x="57" y="-249" type="line"/>
      <point x="170" y="-51" type="line"/>
      <point x="61" y="-51" type="line"/>
    </contour>
  </outline>
</glyph>
<glyph name="Tcedilla" format="1">
  <advance width="500"/>
  <unicode hex="0162"/>
  <outline>
    <contour>
      <point x="110" y="-249" type="line"/>
      <point x="187" y="-249" type="line"/>
      <point x="299" y="-51" type="line"/>
      <point x="190" y="-51" type="line"/>
    </contour>
    <contour>
      <point x="198" y="0" type="line"/>
      <point x="301" y="0" type="line"/>
      <point x="301" y="665" type="line"/>
      <point x="198" y="665" type="line"/>
    </contour>
    <contour>
      <point x="22" y="588" type="line"/>
      <point x="478" y="588" type="line"/>
      <point x="478" y="674" type="line"/>
      <point x="22" y="674" type="line"/>
    </contour>
  </outline>
</glyph>
<glyph name="tcaron" format="1">
  <advance width="374"/>
  <unicode hex="0165"/>
  <outline>
    <contour>
      <point x="97" y="154" type="line"/>
      <point x="97" y="53"/>
      <point x="145" y="-5"/>
      <point x="254" y="-5" type="curve" smooth="yes"/>
      <point x="277" y="-5"/>
      <point x="313" y="1"/>
      <point x="335" y="13" type="curve"/>
      <point x="335" y="101" type="line"/>
      <point x="317" y="87"/>
      <point x="290" y="79"/>
      <point x="266" y="79" type="curve" smooth="yes"/>
      <point x="220" y="79"/>
      <point x="196" y="104"/>
      <point x="196" y="152" type="curve" smooth="yes"/>
      <point x="196" y="631" type="line"/>
      <point x="97" y="631" type="line"/>
    </contour>
    <contour>
      <point x="18" y="431" type="line"/>
      <point x="329" y="431" type="line"/>
      <point x="329" y="507" type="line"/>
      <point x="18" y="507" type="line"/>
    </contour>
    <contour>
      <point x="253" y="573" type="line"/>
      <point x="329" y="573" type="line"/>
      <point x="442" y="771" type="line"/>
      <point x="333" y="771" type="line"/>
    </contour>
  </outline>
</glyph>
<glyph name="florin" format="1">
  <advance width="430"/>
  <unicode hex="0192"/>
  <outline>
    <contour>
      <point x="436" y="586" type="line"/>
      <point x="419" y="592"/>
      <point x="399" y="596"/>
      <point x="379" y="596" type="curve" smooth="yes"/>
      <point x="327" y="596"/>
      <point x="300" y="557"/>
      <point x="288" y="484" type="curve" smooth="yes"/>
      <point x="194" y="-69" type="line" smooth="yes"/>
      <point x="175" y="-184"/>
      <point x="124" y="-257"/>
      <point x="21" y="-257" type="curve" smooth="yes"/>
      <point x="-6" y="-257"/>
      <point x="-38" y="-252"/>
      <point x="-56" y="-245" type="curve"/>
      <point x="-56" y="-160" type="line"/>
      <point x="-37" y="-168"/>
      <point x="-16" y="-173"/>
      <point x="8" y="-173" type="curve" smooth="yes"/>
      <point x="60" y="-173"/>
      <point x="85" y="-133"/>
      <point x="97" y="-61" type="curve" smooth="yes"/>
      <point x="190" y="492" type="line" smooth="yes"/>
      <point x="209" y="608"/>
      <point x="261" y="680"/>
      <point x="364" y="680" type="curve" smooth="yes"/>
      <point x="385" y="680"/>
      <point x="416" y="678"/>
      <point x="436" y="671" type="curve"/>
    </contour>
    <contour>
      <point x="64" y="375" type="line"/>
      <point x="367" y="375" type="line"/>
      <point x="367" y="299" type="line"/>
      <point x="64" y="299" type="line"/>
    </contour>
  </outline>
</glyph>
<glyph name="Scommaaccent" format="1">
  <advance width="521"/>
  <unicode hex="0218"/>
  <outline>
    <contour>
      <point x="437" y="647" type="line"/>
      <point x="391" y="670"/>
      <point x="333" y="679"/>
      <point x="282" y="679" type="curve" smooth="yes"/>
      <point x="153" y="679"/>
      <point x="58" y="610"/>
      <point x="58" y="493" type="curve" smooth="yes"/>
      <point x="58" y="375"/>
      <point x="155" y="333"/>
      <point x="238" y="295" type="curve" smooth="yes"/>
      <point x="308" y="264"/>
      <point x="364" y="238"/>
      <point x="364" y="180" type="curve" smooth="yes"/>
      <point x="364" y="119"/>
      <point x="317" y="84"/>
      <point x="245" y="84" type="curve" smooth="yes"/>
      <point x="179" y="84"/>
      <point x="113" y="105"/>
      <point x="62" y="143" type="curve"/>
      <point x="62" y="36" type="line"/>
      <point x="111" y="7"/>
      <point x="180" y="-7"/>
      <point x="246" y="-7" type="curve" smooth="yes"/>
      <point x="376" y="-7"/>
      <point x="472" y="62"/>
      <point x="472" y="184" type="curve" smooth="yes"/>
      <point x="472" y="302"/>
      <point x="378" y="345"/>
      <point x="293" y="382" type="curve" smooth="yes"/>
      <point x="225" y="412"/>
      <point x="167" y="439"/>
      <point x="167" y="498" type="curve" smooth="yes"/>
      <point x="167" y="551"/>
      <point x="211" y="587"/>
      <point x="285" y="587" type="curve" smooth="yes"/>
      <point x="338" y="587"/>
      <point x="397" y="570"/>
      <point x="437" y="545" type="curve"/>
    </contour>
    <contour>
      <point x="131" y="-249" type="line"/>
      <point x="208" y="-249" type="line"/>
      <point x="320" y="-51" type="line"/>
      <point x="211" y="-51" type="line"/>
    </contour>
  </outline>
</glyph>
<glyph name="Tcommaaccent" format="1">
  <advance width="500"/>
  <unicode hex="021A"/>
  <outline>
    <contour>
      <point x="198" y="0" type="line"/>
      <point x="301" y="0" type="line"/>
      <point x="301" y="665" type="line"/>
      <point x="198" y="665" type="line"/>
    </contour>
    <contour>
      <point x="22" y="588" type="line"/>
      <point x="478" y="588" type="line"/>
      <point x="478" y="674" type="line"/>
      <point x="22" y="674" type="line"/>
    </contour>
    <contour>
      <point x="113" y="-249" type="line"/>
      <point x="190" y="-249" type="line"/>
      <point x="302" y="-51" type="line"/>
      <point x="193" y="-51" type="line"/>
    </contour>
  </outline>
</glyph>
<glyph name="circumflex" format="1">
  <advance width="444"/>
  <unicode hex="02C6"/>
  <outline>
    <contour>
      <point x="267" y="798" type="line"/>
      <point x="402" y="636" type="line"/>
      <point x="305" y="636" type="line"/>
      <point x="221" y="738" type="line"/>
      <point x="139" y="636" type="line"/>
      <point x="42" y="636" type="line"/>
      <point x="177" y="798" type="line"/>
    </contour>
  </outline>
</glyph>
<glyph name="caron" format="1">
  <advance width="444"/>
  <unicode hex="02C7"/>
  <outline>
    <contour>
      <point x="177" y="636" type="line"/>
      <point x="42" y="798" type="line"/>
      <point x="139" y="798" type="line"/>
      <point x="222" y="696" type="line"/>
      <point x="305" y="798" type="line"/>
      <point x="402" y="798" type="line"/>
      <point x="267" y="636" type="line"/>
    </contour>
  </outline>
</glyph>
<glyph name="breve" format="1">
  <advance width="444"/>
  <unicode hex="02D8"/>
  <outline>
    <contour>
      <point x="222" y="700" type="curve" smooth="yes"/>
      <point x="288" y="700"/>
      <point x="318" y="742"/>
      <point x="318" y="798" type="curve"/>
      <point x="396" y="798" type="line"/>
      <point x="396" y="694"/>
      <point x="335" y="633"/>
      <point x="222" y="633" type="curve"/>
      <point x="109" y="633"/>
      <point x="48" y="694"/>
      <point x="48" y="798" type="curve"/>
      <point x="126" y="798" type="line"/>
      <point x="126" y="742"/>
      <point x="156" y="700"/>
    </contour>
  </outline>
</glyph>
<glyph name="dotaccent" format="1">
  <advance width="444"/>
  <unicode hex="02D9"/>
  <outline>
    <contour>
      <point x="161" y="720" type="curve" smooth="yes"/>
      <point x="161" y="686"/>
      <point x="187" y="660"/>
      <point x="222" y="660" type="curve" smooth="yes"/>
      <point x="257" y="660"/>
      <point x="282" y="686"/>
      <point x="282" y="720" type="curve" smooth="yes"/>
      <point x="282" y="754"/>
      <point x="257" y="780"/>
      <point x="222" y="780" type="curve" smooth="yes"/>
      <point x="187" y="780"/>
      <point x="161" y="754"/>
    </contour>
  </outline>
</glyph>
<glyph name="ring" format="1">
  <advance width="444"/>
  <unicode hex="02DA"/>
  <outline>
    <contour>
      <point x="107" y="717" type="curve" smooth="yes"/>
      <point x="107" y="654"/>
      <point x="158" y="603"/>
      <point x="221" y="603" type="curve" smooth="yes"/>
      <point x="285" y="603"/>
      <point x="337" y="654"/>
      <point x="337" y="717" type="curve" smooth="yes"/>
      <point x="337" y="781"/>
      <point x="285" y="833"/>
      <point x="221" y="833" type="curve" smooth="yes"/>
      <point x="158" y="833"/>
      <point x="107" y="781"/>
    </contour>
    <contour>
      <point x="168" y="719" type="curve" smooth="yes"/>
      <point x="168" y="748"/>
      <point x="191" y="773"/>
      <point x="221" y="773" type="curve" smooth="yes"/>
      <point x="252" y="773"/>
      <point x="275" y="748"/>
      <point x="275" y="719" type="curve" smooth="yes"/>
      <point x="275" y="690"/>
      <point x="252" y="664"/>
      <point x="221" y="664" type="curve" smooth="yes"/>
      <point x="191" y="664"/>
      <point x="168" y="690"/>
    </contour>
  </outline>
</glyph>
<glyph name="ogonek" format="1">
  <advance width="444"/>
  <unicode hex="02DB"/>
  <outline>
    <contour>
      <point x="329" y="-214" type="curve"/>
      <point x="329" y="-142" type="line"/>
      <point x="311" y="-155"/>
      <point x="283" y="-166"/>
      <point x="255" y="-166" type="curve" smooth="yes"/>
      <point x="220" y="-166"/>
      <point x="197" y="-149"/>
      <point x="197" y="-115" type="curve" smooth="yes"/>
      <point x="197" y="-65"/>
      <point x="251" y="-20"/>
      <point x="311" y="12" type="curve"/>
      <point x="275" y="57" type="line"/>
      <point x="209" y="33"/>
      <point x="115" y="-32"/>
      <point x="115" y="-123" type="curve" smooth="yes"/>
      <point x="115" y="-185"/>
      <point x="155" y="-235"/>
      <point x="242" y="-235" type="curve" smooth="yes"/>
      <point x="275" y="-235"/>
      <point x="305" y="-228"/>
    </contour>
  </outline>
</glyph>
<glyph name="tilde" format="1">
  <advance width="444"/>
  <unicode hex="02DC"/>
  <outline>
    <contour>
      <point x="349" y="763" type="line"/>
      <point x="338" y="740"/>
      <point x="321" y="720"/>
      <point x="291" y="720" type="curve" smooth="yes"/>
      <point x="249" y="720"/>
      <point x="215" y="761"/>
      <point x="156" y="761" type="curve" smooth="yes"/>
      <point x="109" y="761"/>
      <point x="69" y="726"/>
      <point x="51" y="687" type="curve"/>
      <point x="100" y="642" type="line"/>
      <point x="120" y="672"/>
      <point x="137" y="688"/>
      <point x="170" y="688" type="curve" smooth="yes"/>
      <point x="206" y="688"/>
      <point x="243" y="647"/>
      <point x="296" y="647" type="curve" smooth="yes"/>
      <point x="343" y="647"/>
      <point x="383" y="674"/>
      <point x="405" y="721" type="curve"/>
    </contour>
  </outline>
</glyph>
<glyph name="hungarumlaut" format="1">
  <advance width="444"/>
  <unicode hex="02DD"/>
  <outline>
    <contour>
      <point x="200" y="636" type="line"/>
      <point x="275" y="636" type="line"/>
      <point x="409" y="798" type="line"/>
      <point x="300" y="798" type="line"/>
    </contour>
    <contour>
      <point x="35" y="636" type="line"/>
      <point x="110" y="636" type="line"/>
      <point x="232" y="798" type="line"/>
      <point x="129" y="798" type="line"/>
    </contour>
  </outline>
</glyph>
<glyph name="pi" format="1">
  <advance width="589"/>
  <unicode hex="03C0"/>
  <outline>
    <contour>
      <point x="384" y="0" type="line"/>
      <point x="482" y="0" type="line"/>
      <point x="482" y="467" type="line"/>
      <point x="384" y="467" type="line"/>
    </contour>
    <contour>
      <point x="114" y="173" type="line"/>
      <point x="114" y="100"/>
      <point x="93" y="84"/>
      <point x="40" y="84" type="curve"/>
      <point x="40" y="0" type="line"/>
      <point x="149" y="0"/>
      <point x="212" y="40"/>
      <point x="212" y="180" type="curve" smooth="yes"/>
      <point x="212" y="467" type="line"/>
      <point x="114" y="467" type="line"/>
    </contour>
    <contour>
      <point x="23" y="431" type="line"/>
      <point x="574" y="431" type="line"/>
      <point x="574" y="507" type="line"/>
      <point x="23" y="507" type="line"/>
    </contour>
  </outline>
</glyph>
<glyph name="dvCandrabindu" format="1">
  <advance width="0"/>
  <unicode hex="0901"/>
  <outline>
    <contour>
      <point x="-87" y="650" type="move" name="_abvm.candra"/>
    </contour>
    <contour>
      <point x="-137" y="737" type="curve" smooth="yes"/>
      <point x="-34" y="737"/>
      <point x="59" y="794"/>
      <point x="59" y="904" type="curve"/>
      <point x="-36" y="904" type="line"/>
      <point x="-36" y="851"/>
      <point x="-73" y="811"/>
      <point x="-137" y="811" type="curve" smooth="yes"/>
      <point x="-202" y="811"/>
      <point x="-239" y="851"/>
      <point x="-239" y="904" type="curve"/>
      <point x="-333" y="904" type="line"/>
      <point x="-333" y="790"/>
      <point x="-246" y="737"/>
    </contour>
    <contour>
      <point x="-193" y="959" type="curve" smooth="yes"/>
      <point x="-193" y="926"/>
      <point x="-169" y="902"/>
      <point x="-137" y="902" type="curve" smooth="yes"/>
      <point x="-104" y="902"/>
      <point x="-79" y="926"/>
      <point x="-79" y="959" type="curve" smooth="yes"/>
      <point x="-79" y="990"/>
      <point x="-104" y="1016"/>
      <point x="-137" y="1016" type="curve" smooth="yes"/>
      <point x="-169" y="1016"/>
      <point x="-193" y="990"/>
    </contour>
  </outline>
</glyph>
<glyph name="dvAnusvara" format="1">
  <advance width="0"/>
  <unicode hex="0902"/>
  <outline>
    <contour>
      <point x="-87" y="650" type="move" name="_abvm.bindu"/>
    </contour>
    <contour>
      <point x="-198" y="793" type="curve" smooth="yes"/>
      <point x="-198" y="758"/>
      <point x="-172" y="732"/>
      <point x="-137" y="732" type="curve" smooth="yes"/>
      <point x="-101" y="732"/>
      <point x="-74" y="758"/>
      <point x="-74" y="793" type="curve" smooth="yes"/>
      <point x="-74" y="828"/>
      <point x="-101" y="856"/>
      <point x="-137" y="856" type="curve" smooth="yes"/>
      <point x="-172" y="856"/>
      <point x="-198" y="828"/>
    </contour>
  </outline>
</glyph>
<glyph name="dvVisarga" format="1">
  <advance width="295"/>
  <unicode hex="0903"/>
  <outline>
    <contour>
      <point x="68" y="484" type="curve" smooth="yes"/>
      <point x="68" y="449"/>
      <point x="94" y="422"/>
      <point x="130" y="422" type="curve" smooth="yes"/>
      <point x="165" y="422"/>
      <point x="193" y="449"/>
      <point x="193" y="484" type="curve" smooth="yes"/>
      <point x="193" y="519"/>
      <point x="165" y="546"/>
      <point x="130" y="546" type="curve" smooth="yes"/>
      <point x="94" y="546"/>
      <point x="68" y="519"/>
    </contour>
    <contour>
      <point x="68" y="155" type="curve" smooth="yes"/>
      <point x="68" y="120"/>
      <point x="94" y="93"/>
      <point x="130" y="93" type="curve" smooth="yes"/>
      <point x="165" y="93"/>
      <point x="193" y="120"/>
      <point x="193" y="155" type="curve" smooth="yes"/>
      <point x="193" y="190"/>
      <point x="165" y="218"/>
      <point x="130" y="218" type="curve" smooth="yes"/>
      <point x="94" y="218"/>
      <point x="68" y="190"/>
    </contour>
  </outline>
</glyph>
<glyph name="dvA" format="1">
  <advance width="671"/>
  <unicode hex="0905"/>
  <outline>
    <contour>
      <point x="441" y="650" type="move" name="abvm.bindu"/>
    </contour>
    <contour>
      <point x="441" y="650" type="move" name="abvm.candra"/>
    </contour>
    <contour>
      <point x="488" y="594" type="line"/>
      <point x="488" y="0" type="line"/>
      <point x="584" y="0" type="line"/>
      <point x="584" y="594" type="line"/>
    </contour>
    <contour>
      <point x="30" y="88" type="line"/>
      <point x="66" y="73"/>
      <point x="111" y="64"/>
      <point x="156" y="64" type="curve" smooth="yes"/>
      <point x="290" y="64"/>
      <point x="359" y="137"/>
      <point x="359" y="234" type="curve" smooth="yes"/>
      <point x="359" y="309"/>
      <point x="316" y="364"/>
      <point x="245" y="373" type="curve"/>
      <point x="301" y="389"/>
      <point x="341" y="434"/>
      <point x="341" y="504" type="curve" smooth="yes"/>
      <point x="341" y="593"/>
      <point x="278" y="652"/>
      <point x="161" y="652" type="curve" smooth="yes"/>
      <point x="124" y="652"/>
      <point x="83" y="643"/>
      <point x="58" y="633" type="curve"/>
      <point x="58" y="544" type="line"/>
      <point x="82" y="557"/>
      <point x="120" y="568"/>
      <point x="157" y="568" type="curve" smooth="yes"/>
      <point x="216" y="568"/>
      <point x="244" y="541"/>
      <point x="244" y="493" type="curve" smooth="yes"/>
      <point x="244" y="445"/>
      <point x="211" y="414"/>
      <point x="144" y="414" type="curve" smooth="yes"/>
      <point x="112" y="414" type="line"/>
      <point x="112" y="330" type="line"/>
      <point x="149" y="330" type="line" smooth="yes"/>
      <point x="232" y="330"/>
      <point x="265" y="295"/>
      <point x="265" y="245" type="curve" smooth="yes"/>
      <point x="265" y="170"/>
      <point x="205" y="146"/>
      <point x="153" y="146" type="curve" smooth="yes"/>
      <point x="108" y="146"/>
      <point x="71" y="157"/>
      <point x="30" y="178" type="curve"/>
    </contour>
    <contour>
      <point x="401" y="570" type="line"/>
      <point x="696" y="570" type="line"/>
      <point x="696" y="650" type="line"/>
      <point x="401" y="650" type="line"/>
    </contour>
    <contour>
      <point x="541" y="252" type="line"/>
      <point x="541" y="333" type="line"/>
      <point x="304" y="333" type="line"/>
      <point x="304" y="252" type="line"/>
    </contour>
  </outline>
</glyph>
<glyph name="dvAA" format="1">
  <advance width="941"/>
  <unicode hex="0906"/>
  <outline>
    <contour>
      <point x="724" y="650" type="move" name="abvm.bindu"/>
    </contour>
    <contour>
      <point x="724" y="650" type="move" name="abvm.candra"/>
    </contour>
    <component base="dvA"/>
    <component base="dvmAA" xOffset="670"/>
  </outline>
</glyph>
<glyph name="dvI" format="1">
  <advance width="495"/>
  <unicode hex="0907"/>
  <outline>
    <contour>
      <point x="303" y="650" type="move" name="abvm.bindu"/>
    </contour>
    <contour>
      <point x="303" y="650" type="move" name="abvm.candra"/>
    </contour>
    <contour>
      <point x="465" y="160" type="curve" smooth="yes"/>
      <point x="465" y="257"/>
      <point x="402" y="303"/>
      <point x="271" y="308" type="curve" smooth="yes"/>
      <point x="193" y="313"/>
      <point x="161" y="328"/>
      <point x="161" y="364" type="curve" smooth="yes"/>
      <point x="161" y="401"/>
      <point x="194" y="419"/>
      <point x="240" y="419" type="curve" smooth="yes"/>
      <point x="412" y="419" type="line"/>
      <point x="395" y="499" type="line"/>
      <point x="240" y="499" type="line" smooth="yes"/>
      <point x="139" y="499"/>
      <point x="64" y="452"/>
      <point x="64" y="360" type="curve" smooth="yes"/>
      <point x="64" y="255"/>
      <point x="161" y="231"/>
      <point x="262" y="227" type="curve" smooth="yes"/>
      <point x="333" y="223"/>
      <point x="369" y="204"/>
      <point x="369" y="158" type="curve" smooth="yes"/>
      <point x="369" y="112"/>
      <point x="333" y="80"/>
      <point x="284" y="80" type="curve" smooth="yes"/>
      <point x="222" y="80"/>
      <point x="170" y="119"/>
      <point x="149" y="172" type="curve"/>
      <point x="130" y="69" type="line"/>
      <point x="166" y="28"/>
      <point x="226" y="4"/>
      <point x="291" y="4" type="curve" smooth="yes"/>
      <point x="393" y="4"/>
      <point x="465" y="73"/>
    </contour>
    <contour>
      <point x="-24" y="570" type="line"/>
      <point x="316" y="570" type="line"/>
      <point x="316" y="446" type="line"/>
      <point x="412" y="420" type="line"/>
      <point x="412" y="570" type="line"/>
      <point x="519" y="570" type="line"/>
      <point x="519" y="650" type="line"/>
      <point x="-24" y="650" type="line"/>
    </contour>
    <contour>
      <point x="61" y="-63" type="line"/>
      <point x="156" y="-63" type="line"/>
      <point x="156" y="117" type="line"/>
      <point x="149" y="172" type="line"/>
      <point x="61" y="172" type="line"/>
    </contour>
  </outline>
</glyph>
<glyph name="dvII" format="1">
  <advance width="495"/>
  <unicode hex="0908"/>
  <outline>
    <contour>
      <point x="420" y="807" type="curve" smooth="yes"/>
      <point x="449" y="807"/>
      <point x="478" y="799"/>
      <point x="497" y="788" type="curve"/>
      <point x="497" y="876" type="line"/>
      <point x="472" y="888"/>
      <point x="443" y="893"/>
      <point x="411" y="893" type="curve" smooth="yes"/>
      <point x="319" y="893"/>
      <point x="255" y="833"/>
      <point x="255" y="746" type="curve" smooth="yes"/>
      <point x="255" y="689"/>
      <point x="283" y="651"/>
      <point x="299" y="639" type="curve"/>
      <point x="400" y="639" type="line"/>
      <point x="386" y="650"/>
      <point x="353" y="695"/>
      <point x="353" y="738" type="curve" smooth="yes"/>
      <point x="353" y="778"/>
      <point x="377" y="807"/>
    </contour>
    <contour>
      <point x="465" y="160" type="curve" smooth="yes"/>
      <point x="465" y="257"/>
      <point x="402" y="303"/>
      <point x="271" y="308" type="curve" smooth="yes"/>
      <point x="193" y="313"/>
      <point x="161" y="328"/>
      <point x="161" y="364" type="curve" smooth="yes"/>
      <point x="161" y="401"/>
      <point x="194" y="419"/>
      <point x="240" y="419" type="curve" smooth="yes"/>
      <point x="408" y="419" type="line"/>
      <point x="391" y="499" type="line"/>
      <point x="240" y="499" type="line" smooth="yes"/>
      <point x="139" y="499"/>
      <point x="64" y="452"/>
      <point x="64" y="360" type="curve" smooth="yes"/>
      <point x="64" y="255"/>
      <point x="161" y="231"/>
      <point x="262" y="227" type="curve" smooth="yes"/>
      <point x="333" y="223"/>
      <point x="369" y="204"/>
      <point x="369" y="158" type="curve" smooth="yes"/>
      <point x="369" y="112"/>
      <point x="333" y="80"/>
      <point x="284" y="80" type="curve" smooth="yes"/>
      <point x="222" y="80"/>
      <point x="170" y="119"/>
      <point x="149" y="172" type="curve"/>
      <point x="130" y="69" type="line"/>
      <point x="166" y="28"/>
      <point x="226" y="4"/>
      <point x="291" y="4" type="curve" smooth="yes"/>
      <point x="393" y="4"/>
      <point x="465" y="73"/>
    </contour>
    <contour>
      <point x="-24" y="570" type="line"/>
      <point x="311" y="570" type="line"/>
      <point x="311" y="446" type="line"/>
      <point x="408" y="420" type="line"/>
      <point x="408" y="570" type="line"/>
      <point x="519" y="570" type="line"/>
      <point x="519" y="650" type="line"/>
      <point x="-24" y="650" type="line"/>
    </contour>
    <contour>
      <point x="61" y="-63" type="line"/>
      <point x="156" y="-63" type="line"/>
      <point x="156" y="117" type="line"/>
      <point x="149" y="172" type="line"/>
      <point x="61" y="172" type="line"/>
    </contour>
  </outline>
</glyph>
<glyph name="dvU" format="1">
  <advance width="439"/>
  <unicode hex="0909"/>
  <outline>
    <contour>
      <point x="269" y="650" type="move" name="abvm.bindu"/>
    </contour>
    <contour>
      <point x="269" y="650" type="move" name="abvm.candra"/>
    </contour>
    <contour>
      <point x="463" y="570" type="line"/>
      <point x="463" y="650" type="line"/>
      <point x="-24" y="650" type="line"/>
      <point x="-24" y="570" type="line"/>
    </contour>
    <contour>
      <point x="204" y="589" type="line"/>
      <point x="236" y="573"/>
      <point x="270" y="531"/>
      <point x="270" y="484" type="curve" smooth="yes"/>
      <point x="270" y="418"/>
      <point x="232" y="387"/>
      <point x="153" y="387" type="curve" smooth="yes"/>
      <point x="111" y="387" type="line"/>
      <point x="111" y="305" type="line"/>
      <point x="155" y="305" type="line" smooth="yes"/>
      <point x="250" y="305"/>
      <point x="304" y="266"/>
      <point x="304" y="204" type="curve" smooth="yes"/>
      <point x="304" y="131"/>
      <point x="250" y="98"/>
      <point x="164" y="98" type="curve" smooth="yes"/>
      <point x="115" y="98"/>
      <point x="69" y="110"/>
      <point x="30" y="130" type="curve"/>
      <point x="30" y="41" type="line"/>
      <point x="71" y="27"/>
      <point x="120" y="17"/>
      <point x="170" y="17" type="curve" smooth="yes"/>
      <point x="319" y="17"/>
      <point x="401" y="88"/>
      <point x="401" y="197" type="curve" smooth="yes"/>
      <point x="401" y="288"/>
      <point x="333" y="339"/>
      <point x="255" y="346" type="curve"/>
      <point x="322" y="361"/>
      <point x="367" y="405"/>
      <point x="367" y="481" type="curve" smooth="yes"/>
      <point x="367" y="525"/>
      <point x="346" y="567"/>
      <point x="314" y="589" type="curve"/>
    </contour>
  </outline>
</glyph>
<glyph name="dvUU" format="1">
  <advance width="702"/>
  <unicode hex="090A"/>
  <outline>
    <contour>
      <point x="415" y="650" type="move" name="abvm.bindu"/>
    </contour>
    <contour>
      <point x="415" y="650" type="move" name="abvm.candra"/>
    </contour>
    <contour>
      <point x="465" y="29" type="line"/>
      <point x="473" y="27"/>
      <point x="482" y="26"/>
      <point x="491" y="26" type="curve" smooth="yes"/>
      <point x="609" y="26"/>
      <point x="677" y="111"/>
      <point x="677" y="225" type="curve" smooth="yes"/>
      <point x="677" y="335"/>
      <point x="614" y="410"/>
      <point x="496" y="410" type="curve" smooth="yes"/>
      <point x="411" y="410"/>
      <point x="348" y="349"/>
      <point x="344" y="267" type="curve"/>
      <point x="401" y="201" type="line"/>
      <point x="402" y="270"/>
      <point x="433" y="331"/>
      <point x="493" y="331" type="curve" smooth="yes"/>
      <point x="554" y="331"/>
      <point x="581" y="284"/>
      <point x="581" y="224" type="curve" smooth="yes"/>
      <point x="581" y="146"/>
      <point x="548" y="105"/>
      <point x="482" y="105" type="curve" smooth="yes"/>
      <point x="477" y="105"/>
      <point x="471" y="106"/>
      <point x="465" y="107" type="curve"/>
    </contour>
    <contour>
      <point x="204" y="589" type="line"/>
      <point x="236" y="573"/>
      <point x="270" y="531"/>
      <point x="270" y="484" type="curve" smooth="yes"/>
      <point x="270" y="418"/>
      <point x="232" y="387"/>
      <point x="153" y="387" type="curve" smooth="yes"/>
      <point x="111" y="387" type="line"/>
      <point x="111" y="305" type="line"/>
      <point x="155" y="305" type="line" smooth="yes"/>
      <point x="250" y="305"/>
      <point x="304" y="266"/>
      <point x="304" y="204" type="curve" smooth="yes"/>
      <point x="304" y="131"/>
      <point x="250" y="98"/>
      <point x="164" y="98" type="curve" smooth="yes"/>
      <point x="115" y="98"/>
      <point x="69" y="110"/>
      <point x="30" y="130" type="curve"/>
      <point x="30" y="41" type="line"/>
      <point x="71" y="27"/>
      <point x="120" y="17"/>
      <point x="170" y="17" type="curve" smooth="yes"/>
      <point x="319" y="17"/>
      <point x="401" y="88"/>
      <point x="401" y="197" type="curve" smooth="yes"/>
      <point x="401" y="288"/>
      <point x="333" y="339"/>
      <point x="255" y="346" type="curve"/>
      <point x="322" y="361"/>
      <point x="367" y="405"/>
      <point x="367" y="481" type="curve" smooth="yes"/>
      <point x="367" y="525"/>
      <point x="346" y="567"/>
      <point x="314" y="589" type="curve"/>
    </contour>
    <contour>
      <point x="726" y="570" type="line"/>
      <point x="726" y="650" type="line"/>
      <point x="-24" y="650" type="line"/>
      <point x="-24" y="570" type="line"/>
    </contour>
  </outline>
</glyph>
<glyph name="dvvR" format="1">
  <advance width="845"/>
  <unicode hex="090B"/>
  <outline>
    <contour>
      <point x="465" y="650" type="move" name="abvm.bindu"/>
    </contour>
    <contour>
      <point x="465" y="650" type="move" name="abvm.candra"/>
    </contour>
    <contour>
      <point x="870" y="570" type="line"/>
      <point x="870" y="650" type="line"/>
      <point x="-24" y="650" type="line"/>
      <point x="-24" y="570" type="line"/>
    </contour>
    <contour>
      <point x="465" y="0" type="line"/>
      <point x="465" y="594" type="line"/>
      <point x="367" y="594" type="line"/>
      <point x="367" y="0" type="line"/>
    </contour>
    <contour>
      <point x="679" y="491" type="line"/>
      <point x="589" y="491" type="line"/>
      <point x="589" y="393" type="line" smooth="yes"/>
      <point x="589" y="324"/>
      <point x="626" y="271"/>
      <point x="705" y="271" type="curve"/>
      <point x="761" y="318" type="line"/>
      <point x="704" y="318"/>
      <point x="679" y="348"/>
      <point x="679" y="402" type="curve" smooth="yes"/>
    </contour>
    <contour>
      <point x="812" y="136" type="line"/>
      <point x="785" y="118"/>
      <point x="746" y="112"/>
      <point x="719" y="112" type="curve" smooth="yes"/>
      <point x="676" y="112"/>
      <point x="644" y="132"/>
      <point x="644" y="170" type="curve" smooth="yes"/>
      <point x="644" y="212"/>
      <point x="672" y="239"/>
      <point x="734" y="239" type="curve" smooth="yes"/>
      <point x="777" y="239" type="line"/>
      <point x="777" y="318" type="line"/>
      <point x="723" y="318" type="line"/>
      <point x="707" y="294" type="line"/>
      <point x="613" y="294"/>
      <point x="549" y="241"/>
      <point x="549" y="165" type="curve" smooth="yes"/>
      <point x="549" y="74"/>
      <point x="638" y="34"/>
      <point x="717" y="34" type="curve" smooth="yes"/>
      <point x="751" y="34"/>
      <point x="790" y="42"/>
      <point x="812" y="55" type="curve"/>
    </contour>
    <contour>
      <point x="422" y="245" type="line"/>
      <point x="660" y="382" type="line"/>
      <point x="614" y="446" type="line"/>
      <point x="422" y="336" type="line"/>
    </contour>
    <contour>
      <point x="136" y="381" type="curve"/>
      <point x="227" y="381"/>
      <point x="255" y="316"/>
      <point x="267" y="240" type="curve"/>
      <point x="345" y="284" type="line"/>
      <point x="320" y="415"/>
      <point x="241" y="468"/>
      <point x="143" y="468" type="curve" smooth="yes"/>
      <point x="112" y="468"/>
      <point x="76" y="462"/>
      <point x="49" y="450" type="curve"/>
      <point x="49" y="362" type="line"/>
      <point x="78" y="374"/>
      <point x="102" y="381"/>
    </contour>
    <contour>
      <point x="388" y="326" type="line"/>
      <point x="58" y="134" type="line"/>
      <point x="58" y="38" type="line"/>
      <point x="388" y="233" type="line"/>
    </contour>
  </outline>
</glyph>
